<svg width="100" height="100" viewBox="0 0 100 100" fill="none" xmlns="http://www.w3.org/2000/svg">
<rect opacity="0.5" width="100" height="100" rx="30" fill="#E9F1FF"/>
<path d="M0 0V4.83581C0 6.77619 1.51967 8.77718 4.16909 10.3254C5.32485 11.0008 6.63042 11.5621 8.04524 12C8.5883 9.50513 9.72796 7.16077 11.3863 5.19039C11.5841 4.95535 11.7901 4.72896 12 4.50721C7.13769 3.94137 2.93652 2.31228 0 0Z" transform="translate(24 49)" stroke="#2075FB" stroke-width="1.5"/>
<path d="M15.8446 4.94377C10.8945 4.94377 6.20652 3.84035 2.64407 1.83691C1.64894 1.27715 0.765308 0.661831 0 0V3.44919V3.71302C0 5.65517 1.52118 7.65775 4.17326 9.20752C7.25491 11.0082 11.3999 12 15.8445 12C16.975 12 18.086 11.9352 19.1652 11.8098C20.0787 8.71478 21.7745 5.99872 24 3.87417C21.48 4.57275 18.707 4.94377 15.8446 4.94377Z" transform="translate(24 38)" stroke="#2075FB" stroke-width="1.5"/>
<path d="M15 0C6.16025 0 0 3.68913 0 7C0 10.3109 6.16025 14 15 14C23.8397 14 30 10.3109 30 7C30 3.68913 23.8397 0 15 0Z" transform="translate(24 25)" stroke="#2075FB" stroke-width="1.5"/>
<path d="M37.2652 13.6763L35.8465 13.2371L35.7749 11.7877C35.4481 5.17778 29.8697 0 23.0749 0C17.0145 0 11.7675 4.20486 10.5989 9.99793L10.3111 11.4243L8.83873 11.6556C3.79986 12.4471 0 16.7924 0 21.7626C0 27.4074 4.71188 32 10.5032 32H34.3769C39.6832 32 44 27.7922 44 22.6204C44 18.5821 41.2305 14.9041 37.2652 13.6763Z" transform="translate(36 43)" stroke="#2075FB" stroke-width="1.5"/>
<path d="M0 0V4.00002C3.30845 4.00002 5.99998 6.69166 5.99998 10H10C10 4.48592 5.51397 0 0 0Z" transform="translate(58 27)" stroke="#2075FB" stroke-width="1.5"/>
<path d="M4.00002 0H0C0 5.51397 4.48603 10 10 10V5.99998C6.69155 5.99998 4.00002 3.30845 4.00002 0Z" transform="translate(20 63)" stroke="#2075FB" stroke-width="1.5"/>
</svg>
