<svg width="100" height="100" viewBox="0 0 100 100" fill="none" xmlns="http://www.w3.org/2000/svg">
<rect opacity="0.5" width="100" height="100" rx="30" fill="#E9F1FF"/>
<path d="M12.7206 1.99683C13.1763 1.47845 13.9659 1.42751 14.4844 1.88306L15.9007 3.12726C16.4194 3.58302 16.4704 4.37308 16.0144 4.89168L8.43257 13.5155C7.51964 14.5539 7.51964 16.1086 8.43257 17.147L16.0144 25.7708C16.4704 26.2894 16.4194 27.0795 15.9007 27.5352L14.4844 28.7794C13.9659 29.235 13.1763 29.1841 12.7206 28.6657L1.72409 16.1565C1.30919 15.6846 1.30919 14.9779 1.72409 14.506L12.7206 1.99683Z" transform="translate(20 35.1084)" stroke="#2176FF" stroke-width="1.5"/>
<path d="M1.8843 4.89168C1.42836 4.37308 1.4793 3.58302 1.99807 3.12726L3.41429 1.88305C3.93282 1.42751 4.72242 1.47845 5.17812 1.99683L16.1746 14.506C16.5895 14.9779 16.5895 15.6846 16.1746 16.1565L5.17812 28.6657C4.72242 29.1841 3.93282 29.235 3.41429 28.7794L1.99807 27.5352C1.4793 27.0795 1.42836 26.2894 1.8843 25.7708L9.46615 17.147C10.3791 16.1086 10.3791 14.5539 9.46615 13.5155L1.8843 4.89168Z" transform="translate(59.3213 35.1084)" stroke="#2176FF" stroke-width="1.5"/>
<path d="M2 0.75H47.8854C48.5758 0.75 49.1354 1.30964 49.1354 2V3.88532C49.1354 4.57567 48.5758 5.13532 47.8854 5.13532H2C1.30965 5.13532 0.75 4.57567 0.75 3.88532V2C0.75 1.30964 1.30964 0.75 2 0.75Z" transform="translate(40.4482 73.7529) rotate(-77.77)" stroke="#2176FF" stroke-width="1.5"/>
</svg>
