<svg width="100" height="100" viewBox="0 0 100 100" fill="none" xmlns="http://www.w3.org/2000/svg">
<rect opacity="0.5" width="100" height="100" rx="30" fill="#E9F1FF"/>
<path d="M46.0818 12.3493L46.0817 12.3493L46.0814 12.3493L46.0811 12.3492L46.0808 12.3492L45.4565 12.3189L45.3149 12.9288C43.839 19.2873 38.6192 24.1676 32.0647 27.058C25.5144 29.9465 17.7683 30.7808 11.4627 29.161L11.4626 29.161C5.31878 27.5831 2.66735 23.1565 1.536 19.0324C0.968741 16.9646 0.791172 14.9896 0.756733 13.5274C0.740061 12.8196 0.757007 12.2356 0.778629 11.8242H38.068C39.6979 11.8242 40.6782 11.5788 41.2802 11.2613C41.5865 11.0997 41.7982 10.9175 41.9411 10.7387C42.012 10.65 42.0631 10.5656 42.0998 10.4902C42.118 10.4527 42.1323 10.418 42.1436 10.3866C42.1493 10.3709 42.1542 10.3561 42.1584 10.3423L42.1641 10.3224L42.1667 10.313L42.1679 10.3084L42.1684 10.3062C42.1687 10.3051 42.169 10.304 41.4415 10.1216L42.169 10.304L42.2299 10.061L42.1326 9.83019C40.8254 6.73025 41.1958 4.41082 41.8443 2.88296C42.1729 2.10864 42.58 1.52234 42.902 1.13247C43.0012 1.01234 43.0919 0.911362 43.1691 0.829792C44.2439 1.20064 45.0372 2.33403 45.5914 3.66706C45.884 4.37099 46.0813 5.06339 46.2053 5.58298C46.2671 5.84164 46.3101 6.05472 46.3374 6.20144C46.351 6.27474 46.3607 6.33129 46.3668 6.36848L46.3734 6.40937L46.3747 6.41827L46.3749 6.41915L46.3749 6.41949L46.3749 6.4197L46.3749 6.41973L46.4866 7.1861L47.2495 7.04923C49.5506 6.63635 51.4393 7.03617 52.7041 7.50015C52.7934 8.30746 52.8496 9.12436 52.8706 9.94982C51.7498 11.1826 50.1462 11.7985 48.7219 12.0961C47.981 12.2509 47.3134 12.3142 46.8317 12.3387C46.5915 12.3509 46.3992 12.3533 46.2691 12.3528C46.2041 12.3525 46.1548 12.3515 46.123 12.3507L46.0886 12.3495L46.0818 12.3493Z" transform="translate(29.3691 35.2656)" stroke="#2075FB" stroke-width="1.5"/>
<path d="M0.5 4.34219V0.5H4.81914V4.34219H0.5Z" transform="translate(33.5 39.3076)" fill="#F2F2F2" stroke="#2176FF"/>
<path d="M0.5 4.34219V0.5H4.81914V4.34219H0.5Z" transform="translate(40.1846 39.3076)" fill="#F2F2F2" stroke="#2176FF"/>
<path d="M0.5 4.34219V0.5H4.81914V4.34219H0.5Z" transform="translate(60.2354 39.3076)" fill="#F2F2F2" stroke="#2176FF"/>
<path d="M0.5 4.34219V0.5H4.81914V4.34219H0.5Z" transform="translate(53.5518 39.3076)" fill="#F2F2F2" stroke="#2176FF"/>
<path d="M0.5 4.34219V0.5H4.81914V4.34219H0.5Z" transform="translate(53.5518 26.9238)" fill="#F2F2F2" stroke="#2176FF"/>
<path d="M0.5 4.34219V0.5H4.81914V4.34219H0.5Z" transform="translate(46.8682 39.3076)" fill="#F2F2F2" stroke="#2176FF"/>
<path d="M0.5 4.34219V0.5H4.81914V4.34219H0.5Z" transform="translate(40.1846 33.1143)" fill="#F2F2F2" stroke="#2176FF"/>
<path d="M0.5 4.34219V0.5H4.81914V4.34219H0.5Z" transform="translate(53.5518 33.1143)" fill="#F2F2F2" stroke="#2176FF"/>
<path d="M0.5 4.34219V0.5H4.81914V4.34219H0.5Z" transform="translate(46.8682 33.1143)" fill="#F2F2F2" stroke="#2176FF"/>
</svg>
