<svg width="269" height="388" viewBox="0 0 269 388" fill="none" xmlns="http://www.w3.org/2000/svg">
<g opacity="0.5">
<path fill-rule="evenodd" clip-rule="evenodd" d="M94.6641 427.557C104.519 425.941 112.005 424.676 117.04 423.716V55.8613C117.04 44.209 115.533 34.7822 112.564 27.5811C109.596 20.3809 105.336 14.6631 99.8281 10.4736C94.3203 6.28418 87.5645 3.49121 79.5186 2.09473C71.4717 0.698242 62.4355 0 52.3232 0C42.2119 0 32.2285 0.829102 22.375 2.44434C12.5215 4.05859 5.03418 5.36816 0 6.28418V374.139C0 385.791 1.50586 395.218 4.47461 402.419C7.44434 409.663 11.7041 415.337 17.2119 419.526C22.7197 423.716 29.4746 426.509 37.5215 427.905C45.5684 429.302 54.6045 430 64.7158 430C74.8281 430 84.8105 429.215 94.6641 427.557ZM34.5527 62.541C28.709 68.5771 25.7871 76.0293 25.7871 84.8545C25.7871 93.6797 28.709 101.133 34.5527 107.168C40.3965 113.204 48.1309 116.233 57.7568 116.233C67.3818 116.233 75.1162 113.204 80.96 107.168C86.8037 101.133 89.7256 93.6797 89.7256 84.8545C89.7256 76.0293 86.8037 68.5771 80.96 62.541C75.1162 56.5059 67.3818 53.4766 57.7568 53.4766C48.1309 53.4766 40.3965 56.5059 34.5527 62.541Z" transform="translate(0 117.528) rotate(-90)" fill="#0954CB"/>
<path fill-rule="evenodd" clip-rule="evenodd" d="M94.6641 427.557C104.519 425.941 112.005 424.676 117.04 423.716V55.8613C117.04 44.209 115.533 34.7822 112.564 27.5811C109.596 20.3809 105.336 14.6631 99.8281 10.4736C94.3203 6.28418 87.5645 3.49121 79.5186 2.09473C71.4717 0.698242 62.4355 0 52.3232 0C42.2119 0 32.2285 0.829102 22.375 2.44434C12.5215 4.05859 5.03418 5.36816 0 6.28418V374.139C0 385.791 1.50586 395.218 4.47461 402.419C7.44434 409.663 11.7041 415.337 17.2119 419.526C22.7197 423.716 29.4746 426.509 37.5215 427.905C45.5684 429.302 54.6045 430 64.7158 430C74.8281 430 84.8105 429.215 94.6641 427.557ZM34.5508 62.541C28.707 68.5771 25.7852 76.0293 25.7852 84.8545C25.7852 93.6797 28.707 101.133 34.5508 107.168C40.3945 113.204 48.1289 116.233 57.7549 116.233C67.3799 116.233 75.1143 113.204 80.958 107.168C86.8018 101.133 89.7236 93.6797 89.7236 84.8545C89.7236 76.0293 86.8018 68.5771 80.958 62.541C75.1143 56.5059 67.3799 53.4766 57.7549 53.4766C48.1289 53.4766 40.3945 56.5059 34.5508 62.541Z" transform="translate(0 282.53) rotate(-90)" fill="#0954CB"/>
<path fill-rule="evenodd" clip-rule="evenodd" d="M94.6641 427.557C104.519 425.941 112.005 424.676 117.04 423.716V55.8613C117.04 44.209 115.533 34.7822 112.564 27.5811C109.596 20.3809 105.336 14.6631 99.8281 10.4736C94.3203 6.28418 87.5645 3.49121 79.5186 2.09473C71.4717 0.698242 62.4355 0 52.3232 0C42.2119 0 32.2285 0.829102 22.375 2.44434C12.5215 4.05859 5.03418 5.36816 0 6.28418V374.139C0 385.791 1.50586 395.218 4.47461 402.419C7.44434 409.663 11.7041 415.337 17.2119 419.526C22.7197 423.716 29.4746 426.509 37.5215 427.905C45.5684 429.302 54.6045 430 64.7158 430C74.8281 430 84.8105 429.215 94.6641 427.557ZM34.5527 62.541C28.709 68.5771 25.7871 76.0293 25.7871 84.8545C25.7871 93.6797 28.709 101.133 34.5527 107.168C40.3965 113.204 48.1309 116.233 57.7568 116.233C67.3818 116.233 75.1162 113.204 80.96 107.168C86.8037 101.133 89.7256 93.6797 89.7256 84.8545C89.7256 76.0293 86.8037 68.5771 80.96 62.541C75.1162 56.5059 67.3818 53.4766 57.7568 53.4766C48.1309 53.4766 40.3965 56.5059 34.5527 62.541Z" transform="translate(0 446.002) rotate(-90)" fill="#0954CB"/>
</g>
</svg>
