<svg width="115" height="26" viewBox="0 0 115 26" fill="none" xmlns="http://www.w3.org/2000/svg">
<path d="M5.55839 1.19252C5.87826 0.467685 6.59586 0 7.38814 0H113C114.105 0 115 0.895431 115 2V24C115 25.1046 114.105 26 113 26H7.32267C6.56411 26 5.87084 25.5709 5.53256 24.8919L0.418723 14.6283C0.153463 14.0959 0.138934 13.4731 0.379082 12.9289L5.55839 1.19252Z" fill="#34A853"/>
<path d="M2.212 8.33C2.198 8.176 2.17 8.008 2.17 7.868C2.17 6.93 2.688 6.188 3.752 6.188C4.774 6.188 5.278 6.86 5.278 7.602C5.278 8.26 4.928 8.806 4.116 9.31L2.618 10.248C1.036 11.228 0.49 12.446 0.462 14H7.028V12.516H2.534C2.66 12.068 3.024 11.746 3.458 11.48L5.222 10.388C6.314 9.716 6.972 8.75 6.972 7.574C6.972 6.02 5.782 4.718 3.78 4.718C1.722 4.718 0.546 6.132 0.546 7.7C0.546 7.882 0.574 8.092 0.588 8.218L2.212 8.33ZM13.6522 14V9.954C13.6522 9.086 14.1982 8.442 15.0662 8.442C15.9902 8.442 16.3822 9.058 16.3822 9.842V14H17.9782V9.954C17.9782 9.114 18.5382 8.442 19.3922 8.442C20.3022 8.442 20.7082 9.044 20.7082 9.842V14H22.2762V9.576C22.2762 7.77 21.1002 6.986 19.8682 6.986C18.9862 6.986 18.1882 7.294 17.6562 8.19C17.2922 7.392 16.5082 6.986 15.6122 6.986C14.8422 6.986 13.9882 7.35 13.5962 8.05V7.182H12.0422V14H13.6522ZM27.2608 12.754C26.2668 12.754 25.3568 11.998 25.3568 10.584C25.3568 9.17 26.2668 8.442 27.2608 8.442C28.2688 8.442 29.1648 9.17 29.1648 10.584C29.1648 12.012 28.2688 12.754 27.2608 12.754ZM27.2608 6.972C25.2308 6.972 23.7328 8.498 23.7328 10.584C23.7328 12.684 25.2308 14.21 27.2608 14.21C29.3048 14.21 30.8028 12.684 30.8028 10.584C30.8028 8.498 29.3048 6.972 27.2608 6.972ZM33.9963 10.066C33.9963 9.17 34.4863 8.456 35.4103 8.456C36.4323 8.456 36.8103 9.128 36.8103 9.968V14H38.4343V9.688C38.4343 8.19 37.6363 6.986 35.9703 6.986C35.2143 6.986 34.4023 7.308 33.9543 8.092V7.182H32.3723V14H33.9963V10.066ZM42.4693 5.096H40.9993V6.118C40.9993 6.72 40.6773 7.182 39.9493 7.182H39.5993V8.624H40.8593V12.054C40.8593 13.328 41.6433 14.084 42.9033 14.084C43.4913 14.084 43.7993 13.972 43.8973 13.93V12.586C43.8273 12.6 43.5613 12.642 43.3373 12.642C42.7353 12.642 42.4693 12.39 42.4693 11.788V8.624H43.8833V7.182H42.4693V5.096ZM46.9845 9.996C47.0125 9.128 47.5025 8.456 48.3985 8.456C49.4205 8.456 49.7985 9.128 49.7985 9.968V14H51.4225V9.688C51.4225 8.19 50.6105 6.986 48.9305 6.986C48.2165 6.986 47.4465 7.238 46.9845 7.84V3.864H45.3605V14H46.9845V9.996ZM52.7976 12.152C52.8816 12.922 53.6376 14.21 55.6116 14.21C57.3476 14.21 58.1876 13.062 58.1876 12.026C58.1876 11.018 57.5156 10.234 56.2276 9.954L55.1916 9.744C54.7716 9.66 54.5056 9.394 54.5056 9.03C54.5056 8.61 54.9116 8.246 55.4856 8.246C56.3956 8.246 56.6896 8.876 56.7456 9.268L58.1176 8.876C58.0056 8.204 57.3896 6.972 55.4856 6.972C54.0716 6.972 52.9796 7.98 52.9796 9.17C52.9796 10.108 53.6096 10.892 54.8136 11.158L55.8216 11.382C56.3676 11.494 56.6196 11.774 56.6196 12.138C56.6196 12.558 56.2696 12.922 55.5976 12.922C54.7296 12.922 54.2676 12.376 54.2116 11.76L52.7976 12.152ZM66.2947 5.25C66.6027 5.25 66.7847 5.292 66.8827 5.32V3.934C66.7707 3.878 66.4347 3.794 66.0287 3.794C64.6287 3.794 63.6487 4.718 63.6487 6.244V7.182H62.4587V8.596H63.6487V14H65.2867V8.596H66.8687V7.182H65.2867V6.286C65.2867 5.446 65.8607 5.25 66.2947 5.25ZM72.1552 7.14C72.0852 7.126 71.9172 7.098 71.7212 7.098C70.8252 7.098 70.0692 7.532 69.7472 8.274V7.182H68.1652V14H69.7892V10.752C69.7892 9.478 70.3632 8.75 71.6232 8.75C71.7912 8.75 71.9732 8.764 72.1552 8.792V7.14ZM74.5766 9.842C74.6326 9.114 75.2206 8.33 76.2426 8.33C77.3626 8.33 77.8946 9.044 77.9226 9.842H74.5766ZM78.1046 11.62C77.8806 12.292 77.3766 12.81 76.3966 12.81C75.3886 12.81 74.5766 12.068 74.5346 11.032H79.5186C79.5326 11.004 79.5606 10.78 79.5606 10.514C79.5606 8.358 78.3286 6.972 76.2286 6.972C74.5066 6.972 72.9106 8.4 72.9106 10.556C72.9106 12.866 74.5486 14.21 76.3966 14.21C78.0346 14.21 79.1126 13.244 79.4766 12.054L78.1046 11.62ZM82.2465 9.842C82.3025 9.114 82.8905 8.33 83.9125 8.33C85.0325 8.33 85.5645 9.044 85.5925 9.842H82.2465ZM85.7745 11.62C85.5505 12.292 85.0465 12.81 84.0665 12.81C83.0585 12.81 82.2465 12.068 82.2045 11.032H87.1885C87.2025 11.004 87.2305 10.78 87.2305 10.514C87.2305 8.358 85.9985 6.972 83.8985 6.972C82.1765 6.972 80.5805 8.4 80.5805 10.556C80.5805 12.866 82.2185 14.21 84.0665 14.21C85.7045 14.21 86.7825 13.244 87.1465 12.054L85.7745 11.62ZM90.9804 4.074H89.0064L89.4124 11.06H90.5884L90.9804 4.074ZM88.9784 13.076C88.9784 13.636 89.4264 14.098 89.9864 14.098C90.5604 14.098 91.0224 13.636 91.0224 13.076C91.0224 12.516 90.5604 12.04 89.9864 12.04C89.4264 12.04 88.9784 12.516 88.9784 13.076Z" transform="translate(15 3)" fill="white"/>
</svg>
