<svg width="100" height="100" viewBox="0 0 100 100" fill="none" xmlns="http://www.w3.org/2000/svg">
<rect opacity="0.5" width="100" height="100" rx="30" fill="#E9F1FF"/>
<path d="M28 27.5C28 27.7761 27.7761 28 27.5 28H0.5C0.223858 28 0 27.7761 0 27.5V0.5C0 0.223858 0.223858 0 0.5 0H27.5C27.7761 0 28 0.223858 28 0.5V27.5ZM2 25.5C2 25.7761 2.22386 26 2.5 26H25.5C25.7761 26 26 25.7761 26 25.5V2.5C26 2.22386 25.7761 2 25.5 2H2.5C2.22386 2 2 2.22386 2 2.5V25.5Z" transform="translate(36 36)" fill="#2075FB"/>
<path d="M1.5 0H0.5C0.223858 0 0 0.223858 0 0.5V3.5C0 3.77614 0.223858 4 0.5 4H1.5C1.77614 4 2 3.77614 2 3.5V0.5C2 0.223858 1.77614 0 1.5 0Z" transform="translate(62 30)" fill="#2075FB"/>
<path d="M1.5 0H0.5C0.223858 0 0 0.223858 0 0.5V6.5C0 6.77614 0.223858 7 0.5 7H1.5C1.77614 7 2 6.77614 2 6.5V0.5C2 0.223858 1.77614 0 1.5 0Z" transform="translate(57 27)" fill="#2075FB"/>
<path d="M1.5 0H0.5C0.223858 0 0 0.223858 0 0.5V3.5C0 3.77614 0.223858 4 0.5 4H1.5C1.77614 4 2 3.77614 2 3.5V0.5C2 0.223858 1.77614 0 1.5 0Z" transform="translate(52 30)" fill="#2075FB"/>
<path d="M1.5 0H0.5C0.223858 0 0 0.223858 0 0.5V6.5C0 6.77614 0.223858 7 0.5 7H1.5C1.77614 7 2 6.77614 2 6.5V0.5C2 0.223858 1.77614 0 1.5 0Z" transform="translate(47 27)" fill="#2075FB"/>
<path d="M1.5 0H0.5C0.223858 0 0 0.223858 0 0.5V3.5C0 3.77614 0.223858 4 0.5 4H1.5C1.77614 4 2 3.77614 2 3.5V0.5C2 0.223858 1.77614 0 1.5 0Z" transform="translate(42 30)" fill="#2075FB"/>
<path d="M1.5 0H0.5C0.223858 0 0 0.223858 0 0.5V6.5C0 6.77614 0.223858 7 0.5 7H1.5C1.77614 7 2 6.77614 2 6.5V0.5C2 0.223858 1.77614 0 1.5 0Z" transform="translate(37 27)" fill="#2075FB"/>
<path d="M3.5 0H0.5C0.223858 0 0 0.223858 0 0.5V1.5C0 1.77614 0.223858 2 0.5 2H3.5C3.77614 2 4 1.77614 4 1.5V0.5C4 0.223858 3.77614 0 3.5 0Z" transform="translate(66 36)" fill="#2075FB"/>
<path d="M6.5 0H0.5C0.223858 0 0 0.223858 0 0.5V1.5C0 1.77614 0.223858 2 0.5 2H6.5C6.77614 2 7 1.77614 7 1.5V0.5C7 0.223858 6.77614 0 6.5 0Z" transform="translate(66 41)" fill="#2075FB"/>
<path d="M3.5 0H0.5C0.223858 0 0 0.223858 0 0.5V1.5C0 1.77614 0.223858 2 0.5 2H3.5C3.77614 2 4 1.77614 4 1.5V0.5C4 0.223858 3.77614 0 3.5 0Z" transform="translate(66 46)" fill="#2075FB"/>
<path d="M6.5 0H0.5C0.223858 0 0 0.223858 0 0.5V1.5C0 1.77614 0.223858 2 0.5 2H6.5C6.77614 2 7 1.77614 7 1.5V0.5C7 0.223858 6.77614 0 6.5 0Z" transform="translate(66 51)" fill="#2075FB"/>
<path d="M3.5 0H0.5C0.223858 0 0 0.223858 0 0.5V1.5C0 1.77614 0.223858 2 0.5 2H3.5C3.77614 2 4 1.77614 4 1.5V0.5C4 0.223858 3.77614 0 3.5 0Z" transform="translate(66 56)" fill="#2075FB"/>
<path d="M6.5 0H0.5C0.223858 0 0 0.223858 0 0.5V1.5C0 1.77614 0.223858 2 0.5 2H6.5C6.77614 2 7 1.77614 7 1.5V0.5C7 0.223858 6.77614 0 6.5 0Z" transform="translate(66 61)" fill="#2075FB"/>
<path d="M1.5 0H0.5C0.223858 0 0 0.223858 0 0.5V3.5C0 3.77614 0.223858 4 0.5 4H1.5C1.77614 4 2 3.77614 2 3.5V0.5C2 0.223858 1.77614 0 1.5 0Z" transform="translate(36 66)" fill="#2075FB"/>
<path d="M1.5 0H0.5C0.223858 0 0 0.223858 0 0.5V6.5C0 6.77614 0.223858 7 0.5 7H1.5C1.77614 7 2 6.77614 2 6.5V0.5C2 0.223858 1.77614 0 1.5 0Z" transform="translate(41 66)" fill="#2075FB"/>
<path d="M1.5 0H0.5C0.223858 0 0 0.223858 0 0.5V3.5C0 3.77614 0.223858 4 0.5 4H1.5C1.77614 4 2 3.77614 2 3.5V0.5C2 0.223858 1.77614 0 1.5 0Z" transform="translate(46 66)" fill="#2075FB"/>
<path d="M1.5 0H0.5C0.223858 0 0 0.223858 0 0.5V6.5C0 6.77614 0.223858 7 0.5 7H1.5C1.77614 7 2 6.77614 2 6.5V0.5C2 0.223858 1.77614 0 1.5 0Z" transform="translate(51 66)" fill="#2075FB"/>
<path d="M1.5 0H0.5C0.223858 0 0 0.223858 0 0.5V3.5C0 3.77614 0.223858 4 0.5 4H1.5C1.77614 4 2 3.77614 2 3.5V0.5C2 0.223858 1.77614 0 1.5 0Z" transform="translate(56 66)" fill="#2075FB"/>
<path d="M1.5 0H0.5C0.223858 0 0 0.223858 0 0.5V6.5C0 6.77614 0.223858 7 0.5 7H1.5C1.77614 7 2 6.77614 2 6.5V0.5C2 0.223858 1.77614 0 1.5 0Z" transform="translate(61 66)" fill="#2075FB"/>
<path d="M3.5 0H0.5C0.223858 0 0 0.223858 0 0.5V1.5C0 1.77614 0.223858 2 0.5 2H3.5C3.77614 2 4 1.77614 4 1.5V0.5C4 0.223858 3.77614 0 3.5 0Z" transform="translate(30 62)" fill="#2075FB"/>
<path d="M6.5 0H0.5C0.223858 0 0 0.223858 0 0.5V1.5C0 1.77614 0.223858 2 0.5 2H6.5C6.77614 2 7 1.77614 7 1.5V0.5C7 0.223858 6.77614 0 6.5 0Z" transform="translate(27 57)" fill="#2075FB"/>
<path d="M3.5 0H0.5C0.223858 0 0 0.223858 0 0.5V1.5C0 1.77614 0.223858 2 0.5 2H3.5C3.77614 2 4 1.77614 4 1.5V0.5C4 0.223858 3.77614 0 3.5 0Z" transform="translate(30 52)" fill="#2075FB"/>
<path d="M6.5 0H0.5C0.223858 0 0 0.223858 0 0.5V1.5C0 1.77614 0.223858 2 0.5 2H6.5C6.77614 2 7 1.77614 7 1.5V0.5C7 0.223858 6.77614 0 6.5 0Z" transform="translate(27 47)" fill="#2075FB"/>
<path d="M3.5 0H0.5C0.223858 0 0 0.223858 0 0.5V1.5C0 1.77614 0.223858 2 0.5 2H3.5C3.77614 2 4 1.77614 4 1.5V0.5C4 0.223858 3.77614 0 3.5 0Z" transform="translate(30 42)" fill="#2075FB"/>
<path d="M6.5 0H0.5C0.223858 0 0 0.223858 0 0.5V1.5C0 1.77614 0.223858 2 0.5 2H6.5C6.77614 2 7 1.77614 7 1.5V0.5C7 0.223858 6.77614 0 6.5 0Z" transform="translate(27 37)" fill="#2075FB"/>
</svg>
