<svg width="170" height="24" viewBox="0 0 170 24" fill="none" xmlns="http://www.w3.org/2000/svg">
<g id="blueLogo">
<path id="Shape" d="M5.85438 22.6879C5.60255 22.733 5.22805 22.7975 4.73516 22.877C4.24227 22.9565 3.74293 22.9973 3.23713 22.9973C2.73133 22.9973 2.27933 22.9629 1.87684 22.8942C1.47436 22.8254 1.13644 22.6879 0.860938 22.4817C0.585438 22.2754 0.372356 21.994 0.223844 21.6395C0.075332 21.285 0 20.8209 0 20.2473V0.309381C0.251824 0.264263 0.626332 0.199808 1.11922 0.120315C1.61211 0.0408211 2.11145 0 2.61725 0C3.12305 0 3.57504 0.0343756 3.97753 0.103127C4.38002 0.171878 4.71794 0.309381 4.99344 0.515635C5.26894 0.721889 5.48202 1.00334 5.63053 1.35784C5.77905 1.71234 5.85438 2.17641 5.85438 2.75005V22.6879Z" transform="translate(26.7256 0.165527)" fill="#1671FF"/>
<path id="Shape_2" fill-rule="evenodd" clip-rule="evenodd" d="M5.80273 17.2051C6.96289 17.583 8.21973 17.772 9.57324 17.772C10.376 17.772 11.2373 17.7036 12.1562 17.5659C13.0752 17.4282 13.9023 17.1641 14.6357 16.7754C15.6006 16.2705 16.082 15.5034 16.082 14.4722C16.082 14.0146 15.9551 13.5786 15.7031 13.166C15.4521 12.7534 15.1416 12.4331 14.7734 12.2031C14.2461 12.5234 13.5615 12.8047 12.7246 13.0454C11.8877 13.2861 10.9961 13.4067 10.0557 13.4067C9.0459 13.4067 8.15137 13.2173 7.36914 12.8394C6.58789 12.4609 6.07129 11.894 5.82031 11.1377L14.3262 9.86572C15.1074 9.75195 15.7139 9.48779 16.1514 9.0752C16.5879 8.6626 16.8057 8.06738 16.8057 7.2876C16.8057 6.23291 16.6055 5.25928 16.2031 4.36572C15.8008 3.47217 15.2383 2.70508 14.5156 2.0625C13.792 1.41992 12.9316 0.91748 11.9326 0.549805C10.9336 0.182617 9.8252 0 8.60938 0C7.53125 0 6.47461 0.165527 5.44141 0.498535C4.4082 0.831543 3.48926 1.34717 2.68652 2.04541C1.88379 2.74365 1.2334 3.63721 0.740234 4.72656C0.24707 5.81592 0 7.11572 0 8.62842C0 10.1646 0.24707 11.5049 0.740234 12.6504C1.2334 13.7954 1.91113 14.7471 2.77246 15.5034C3.63281 16.2598 4.64258 16.8267 5.80273 17.2051ZM7.17969 4.5376C7.58203 4.35498 8.05762 4.2627 8.60938 4.2627C9.45898 4.2627 10.1006 4.49268 10.5371 4.9502C10.9746 5.40771 11.2266 5.86768 11.2949 6.3252L5.40625 7.2876C5.42969 6.92041 5.50293 6.55957 5.62988 6.20508C5.75684 5.85059 5.94629 5.52832 6.19824 5.24219C6.4502 4.95654 6.77734 4.72021 7.17969 4.5376Z" transform="translate(34.541 5.66553)" fill="#1671FF"/>
<path id="Shape_3" fill-rule="evenodd" clip-rule="evenodd" d="M11.1064 0.37793C10.084 0.126953 8.9541 0 7.71387 0C6.91113 0 6.05469 0.0581055 5.14844 0.171875C4.24219 0.285645 3.4541 0.470703 2.78906 0.72168C2.19336 0.973145 1.75 1.27832 1.46387 1.63281C1.17773 1.9873 1.0332 2.46436 1.0332 3.05957C1.0332 3.51709 1.13672 3.95947 1.34277 4.38281C1.5498 4.80615 1.80176 5.12207 2.10059 5.32812C2.76562 5.05322 3.5127 4.82324 4.33887 4.64062C5.16602 4.45801 6.01562 4.36572 6.8877 4.36572C7.98926 4.36572 8.83301 4.50977 9.41895 4.79541C10.0039 5.08105 10.2969 5.55811 10.2969 6.22217V6.4624L5.78516 6.94385C3.81152 7.1499 2.35254 7.67627 1.41211 8.52539C0.47168 9.37402 0 10.5879 0 12.1689C0 13.1079 0.189453 13.9331 0.568359 14.644C0.947266 15.355 1.4873 15.9395 2.18652 16.397C2.88672 16.855 3.72559 17.1987 4.70117 17.4282C5.67578 17.6582 6.77344 17.772 7.98926 17.772C10.6992 17.772 12.7998 17.3252 14.292 16.4316C14.75 16.1567 15.1465 15.8301 15.4795 15.4517C15.8135 15.0737 15.9795 14.5859 15.9795 13.9907V6.29053C15.9795 5.21436 15.7832 4.27979 15.3936 3.48926C15.0039 2.69873 14.4463 2.04541 13.7236 1.52979C13 1.01416 12.1289 0.629395 11.1064 0.37793ZM9.28027 13.3892C8.80957 13.4688 8.37891 13.5093 7.98926 13.5093C7.13867 13.5093 6.53613 13.3657 6.18164 13.0796C5.82617 12.7939 5.64746 12.4199 5.64746 11.9624C5.64746 11.5049 5.85449 11.1611 6.26758 10.9312C6.68066 10.7012 7.20801 10.564 7.85156 10.5186L10.3311 10.3125V13.0625C10.1006 13.2002 9.75195 13.3096 9.28027 13.3892Z" transform="translate(53.0107 5.66553)" fill="#1671FF"/>
<path id="Shape_4" d="M10.6068 6.6345C10.6068 5.92335 10.4066 5.40342 10.0041 5.07041C9.60161 4.73739 9.05707 4.57196 8.36832 4.57196C7.90987 4.57196 7.45572 4.62997 7.00803 4.74384C6.56035 4.85771 6.17508 5.02959 5.85438 5.25947V17.1878C5.62408 17.2566 5.26248 17.3253 4.7696 17.3941C4.27671 17.4628 3.76445 17.4972 3.23713 17.4972C2.73133 17.4972 2.27933 17.4628 1.87684 17.3941C1.47436 17.3253 1.13644 17.1878 0.860938 16.9816C0.585438 16.7753 0.372356 16.4939 0.223844 16.1394C0.075332 15.7849 0 15.3208 0 14.7472V4.43446C0 3.8157 0.131293 3.3108 0.396031 2.92193C0.66077 2.53306 1.02236 2.17641 1.48081 1.85628C2.26211 1.30627 3.24358 0.859391 4.42522 0.515635C5.60686 0.171878 6.92194 0 8.36832 0C10.9619 0 12.9593 0.567198 14.3604 1.70159C15.7616 2.83599 16.4611 4.41083 16.4611 6.42825V17.1878C16.2308 17.2566 15.8692 17.3253 15.3764 17.3941C14.8835 17.4628 14.3712 17.4972 13.8439 17.4972C13.3381 17.4972 12.8861 17.4628 12.4836 17.3941C12.0811 17.3253 11.7432 17.1878 11.4677 16.9816C11.1922 16.7753 10.9791 16.4939 10.8306 16.1394C10.6821 15.7849 10.6068 15.3208 10.6068 14.7472V6.6345Z" transform="translate(70.9033 5.66553)" fill="#1671FF"/>
<path id="Shape_5" d="M14.5326 12.2721C14.5326 14.0145 13.8783 15.3767 12.5697 16.3628C11.2611 17.349 9.33257 17.841 6.78419 17.841C5.81994 17.841 4.92456 17.7722 4.09806 17.6347C3.27156 17.4972 2.56559 17.2845 1.98016 16.9988C1.39472 16.713 0.93627 16.3521 0.602656 15.9159C0.269043 15.4798 0.103312 14.9641 0.103312 14.369C0.103312 13.819 0.217387 13.3549 0.447688 12.9768C0.677988 12.5987 0.953489 12.2828 1.27419 12.0315C1.93926 12.3989 2.70335 12.7254 3.56428 13.0112C4.42522 13.2969 5.41745 13.4409 6.54313 13.4409C7.25555 13.4409 7.8001 13.3378 8.17891 13.1315C8.55772 12.9252 8.74713 12.6502 8.74713 12.3065C8.74713 11.9864 8.60938 11.7328 8.33388 11.5502C8.05838 11.3676 7.59993 11.2172 6.95638 11.1033L5.92325 10.8971C3.92588 10.5082 2.43861 9.89374 1.46359 9.05798C0.488582 8.22223 0 7.02337 0 5.46573C0 4.61708 0.182949 3.85007 0.551 3.16256C0.919051 2.47505 1.43561 1.9014 2.10069 1.44378C2.76576 0.986151 3.56428 0.629504 4.4941 0.378132C5.42391 0.12676 6.45058 0 7.57625 0C8.42643 0 9.2228 0.0623059 9.96966 0.189066C10.7165 0.315826 11.3644 0.504892 11.9154 0.756264C12.4664 1.00764 12.9033 1.3342 13.224 1.73597C13.5447 2.13774 13.7061 2.61255 13.7061 3.16256C13.7061 3.68894 13.6093 4.14227 13.4134 4.5204C13.2175 4.89853 12.9722 5.21436 12.673 5.46573C12.4901 5.35186 12.2146 5.23154 11.8465 5.10478C11.4785 4.97802 11.0781 4.86415 10.6412 4.76103C10.2043 4.6579 9.76304 4.57196 9.31535 4.50321C8.86766 4.43446 8.46087 4.40008 8.09282 4.40008C7.33519 4.40008 6.74975 4.48602 6.3365 4.6579C5.92325 4.82978 5.71663 5.09834 5.71663 5.46573C5.71663 5.7171 5.8307 5.92335 6.061 6.08449C6.2913 6.24563 6.72608 6.39387 7.36963 6.53137L8.43719 6.772C10.6412 7.27689 12.2081 7.96871 13.1379 8.85173C14.0677 9.73475 14.5326 10.8734 14.5326 12.2721Z" transform="translate(89.2324 5.63135)" fill="#1671FF"/>
<path id="Shape_6" d="M5.7855 14.644C5.7855 15.2392 5.97491 15.6646 6.35372 15.9159C6.73253 16.1673 7.26632 16.2941 7.95507 16.2941C8.29944 16.2941 8.65458 16.2661 9.02263 16.2081C9.39068 16.1501 9.71138 16.0771 9.98688 15.9847C10.1935 16.236 10.3722 16.5175 10.5207 16.8269C10.6692 17.1363 10.7445 17.5079 10.7445 17.9441C10.7445 18.8142 10.4173 19.5254 9.76304 20.0754C9.10872 20.6254 7.95507 20.9004 6.30207 20.9004C4.28101 20.9004 2.72702 20.4428 1.63578 19.5254C0.544544 18.608 0 17.1191 0 15.0565V0.343756C0.251825 0.275005 0.613419 0.199808 1.08478 0.120315C1.55615 0.0408211 2.05549 0 2.58281 0C3.59226 0 4.38002 0.178324 4.94178 0.532823C5.50355 0.887321 5.7855 1.63929 5.7855 2.78443V4.98447H10.2968C10.4346 5.23584 10.5659 5.55167 10.6928 5.9298C10.8198 6.30793 10.8823 6.72688 10.8823 7.18451C10.8823 7.98589 10.7036 8.56598 10.3485 8.92048C9.99334 9.27498 9.51552 9.4533 8.91932 9.4533H5.7855V14.644Z" transform="translate(105.657 2.50293)" fill="#1671FF"/>
<path id="Shape_7" fill-rule="evenodd" clip-rule="evenodd" d="M11.1064 0.37793C10.084 0.126953 8.9541 0 7.71387 0C6.91113 0 6.05469 0.0581055 5.14844 0.171875C4.24219 0.285645 3.4541 0.470703 2.78906 0.72168C2.19336 0.973145 1.75 1.27832 1.46387 1.63281C1.17773 1.9873 1.0332 2.46436 1.0332 3.05957C1.0332 3.51709 1.13672 3.95947 1.34277 4.38281C1.5498 4.80615 1.80176 5.12207 2.10059 5.32812C2.76562 5.05322 3.5127 4.82324 4.33887 4.64062C5.16602 4.45801 6.01562 4.36572 6.8877 4.36572C7.98926 4.36572 8.83301 4.50977 9.41895 4.79541C10.0039 5.08105 10.2969 5.55811 10.2969 6.22217V6.4624L5.78516 6.94385C3.81152 7.1499 2.35254 7.67627 1.41211 8.52539C0.47168 9.37402 0 10.5879 0 12.1689C0 13.1079 0.189453 13.9331 0.568359 14.644C0.947266 15.355 1.4873 15.9395 2.18652 16.397C2.88672 16.855 3.72559 17.1987 4.70117 17.4282C5.67578 17.6582 6.77344 17.772 7.98926 17.772C10.6992 17.772 12.7998 17.3252 14.292 16.4316C14.75 16.1567 15.1465 15.8301 15.4795 15.4517C15.8135 15.0737 15.9795 14.5859 15.9795 13.9907V6.29053C15.9795 5.21436 15.7832 4.27979 15.3936 3.48926C15.0039 2.69873 14.4463 2.04541 13.7236 1.52979C13 1.01416 12.1289 0.629395 11.1064 0.37793ZM9.28027 13.3892C8.80957 13.4688 8.37891 13.5093 7.98926 13.5093C7.13867 13.5093 6.53613 13.3657 6.18164 13.0796C5.82617 12.7939 5.64746 12.4199 5.64746 11.9624C5.64746 11.5049 5.85449 11.1611 6.26758 10.9312C6.68066 10.7012 7.20801 10.564 7.85156 10.5186L10.3311 10.3125V13.0625C10.1006 13.2002 9.75195 13.3096 9.28027 13.3892Z" transform="translate(118.537 5.66553)" fill="#1671FF"/>
<path id="Shape_8" d="M10.1591 4.60634C9.58439 4.60634 9.03985 4.69872 8.52328 4.88134C8.00672 5.06396 7.55903 5.33467 7.18022 5.68917C6.80141 6.04367 6.49793 6.48625 6.26763 7.01263C6.03733 7.53901 5.92325 8.15777 5.92325 8.86892C5.92325 10.2891 6.33005 11.3547 7.14578 12.0659C7.96152 12.777 8.95375 13.1315 10.1246 13.1315C10.8134 13.1315 11.4096 13.052 11.9154 12.8909C12.4212 12.7297 12.8689 12.5579 13.2584 12.3752C13.7169 12.6954 14.0613 13.0456 14.2916 13.4237C14.5219 13.8018 14.6359 14.2552 14.6359 14.7815C14.6359 15.7204 14.1883 16.4487 13.2929 16.9644C12.3975 17.48 11.1578 17.7378 9.57363 17.7378C8.12725 17.7378 6.81863 17.5251 5.64775 17.1019C4.47688 16.6786 3.47173 16.0814 2.63447 15.3144C1.79721 14.5473 1.1472 13.6235 0.68875 12.5471C0.230301 11.4707 0 10.2783 0 8.97204C0 7.45952 0.24752 6.13605 0.740407 5.00166C1.23329 3.86726 1.90483 2.93267 2.755 2.20004C3.60518 1.46741 4.58665 0.9174 5.69941 0.55001C6.81217 0.182621 7.9895 0 9.22925 0C10.8823 0 12.1564 0.298638 13.0518 0.893767C13.9472 1.4889 14.3949 2.25805 14.3949 3.19694C14.3949 3.63308 14.2916 4.03914 14.0849 4.41727C13.8783 4.7954 13.6373 5.12197 13.3618 5.39698C12.9722 5.21436 12.5008 5.03603 11.9498 4.86415C11.3988 4.69228 10.8026 4.60634 10.1591 4.60634Z" transform="translate(136.374 5.66553)" fill="#1671FF"/>
<path id="Shape_9" d="M16.2889 19.6972C16.1749 20.7736 15.8585 21.5986 15.3419 22.1723C14.8254 22.7459 14.0742 23.0317 13.0863 23.0317C12.3523 23.0317 11.698 22.8534 11.1233 22.4989C10.5486 22.1444 9.92877 21.5428 9.26369 20.6941L5.85438 16.4316V22.6879C5.60255 22.733 5.22804 22.7975 4.73516 22.877C4.24227 22.9565 3.74293 22.9973 3.23713 22.9973C2.73133 22.9973 2.27933 22.9629 1.87685 22.8942C1.47436 22.8254 1.13644 22.6879 0.860938 22.4817C0.585438 22.2754 0.372356 21.994 0.223844 21.6395C0.075332 21.285 0 20.8209 0 20.2473V0.343756C0.251825 0.275005 0.626332 0.199808 1.11922 0.120315C1.61211 0.0408211 2.11145 0 2.61725 0C3.12305 0 3.57505 0.0343756 3.97753 0.103127C4.38002 0.171878 4.71794 0.309381 4.99344 0.515635C5.26894 0.721889 5.48202 1.00334 5.63053 1.35784C5.77905 1.71234 5.85438 2.17641 5.85438 2.75005V11.8252L11.7776 5.77511C12.9722 5.77511 13.93 6.03937 14.6532 6.56575C15.3764 7.09213 15.7379 7.75815 15.7379 8.55954C15.7379 8.90329 15.6798 9.21912 15.5658 9.50487C15.4517 9.79061 15.273 10.0828 15.032 10.3814C14.7909 10.6801 14.481 10.9938 14.1022 11.3268C13.7234 11.6598 13.2821 12.0422 12.7763 12.4784L10.7789 14.1971L16.2889 19.6972Z" transform="translate(153.005 0.165527)" fill="#1671FF"/>
<g id="Group">
<path id="Shape_10" d="M6.20977 22.1259C5.94266 22.176 5.54542 22.2421 5.02261 22.3264C4.4998 22.413 3.97014 22.454 3.43364 22.454C2.89713 22.454 2.4177 22.4176 1.99078 22.3446C1.56386 22.2717 1.20543 22.1259 0.913202 21.9071C0.620977 21.6883 0.39496 21.3921 0.237432 21.0138C0.0799051 20.6377 0 20.1455 0 19.537V0.328162C0.267111 0.280305 0.664354 0.211938 1.18716 0.127619C1.70997 0.0432991 2.23963 0 2.77613 0C3.31264 0 3.79207 0.0364624 4.21899 0.109387C4.64591 0.182312 5.00434 0.328162 5.29657 0.546937C5.58879 0.765711 5.81481 1.06425 5.97234 1.44027C6.12986 1.81629 6.20977 2.30853 6.20977 2.91699V22.1259Z" transform="translate(0.169922 6.20996) rotate(-90)" fill="#1671FF"/>
<path id="Shape_11" d="M0 1.63853C0 1.1777 0.155029 0.788544 0.465086 0.473354C0.775144 0.158164 1.18551 0 1.6962 0C2.20688 0 2.61725 0.158164 2.92731 0.473354C3.23737 0.788544 3.39239 1.1777 3.39239 1.63853C3.39239 2.09937 3.23737 2.48852 2.92731 2.80371C2.61725 3.1189 2.20688 3.27706 1.6962 3.27706C1.18551 3.27706 0.775144 3.1189 0.465086 2.80371C0.155029 2.48852 0 2.09937 0 1.63853Z" transform="translate(2.96289 4.8418) rotate(-90)" fill="white"/>
<path id="Shape_12" d="M6.20977 22.1259C5.94266 22.176 5.54542 22.2421 5.02261 22.3264C4.4998 22.413 3.97014 22.454 3.43364 22.454C2.89713 22.454 2.4177 22.4176 1.99078 22.3446C1.56386 22.2717 1.20543 22.1259 0.913202 21.9071C0.620977 21.6883 0.39496 21.3921 0.237432 21.0138C0.0799051 20.6377 0 20.1455 0 19.537V0.328162C0.267111 0.280305 0.664354 0.211938 1.18716 0.127619C1.70997 0.0432991 2.23963 0 2.77613 0C3.31264 0 3.79207 0.0364624 4.21899 0.109387C4.64591 0.182312 5.00434 0.328162 5.29657 0.546937C5.58879 0.765711 5.81481 1.06425 5.97234 1.44027C6.12987 1.81629 6.20977 2.30853 6.20977 2.91699V22.1259Z" transform="translate(0.169922 14.9644) rotate(-90)" fill="#1671FF"/>
<path id="Shape_13" d="M0 1.63853C0 1.1777 0.155029 0.788544 0.465086 0.473354C0.775144 0.158164 1.18551 0 1.6962 0C2.20688 0 2.61725 0.158164 2.92731 0.473354C3.23737 0.788544 3.39239 1.1777 3.39239 1.63853C3.39239 2.09937 3.23737 2.48852 2.92731 2.80371C2.61725 3.1189 2.20688 3.27706 1.6962 3.27706C1.18551 3.27706 0.775144 3.1189 0.465086 2.80371C0.155029 2.48852 0 2.09937 0 1.63853Z" transform="translate(2.96289 13.5967) rotate(-90)" fill="white"/>
<path id="Shape_14" d="M6.20977 22.1259C5.94266 22.176 5.54542 22.2421 5.02261 22.3264C4.4998 22.413 3.97014 22.454 3.43364 22.454C2.89713 22.454 2.4177 22.4176 1.99078 22.3446C1.56386 22.2717 1.20543 22.1259 0.913202 21.9071C0.620977 21.6883 0.39496 21.3921 0.237432 21.0138C0.0799051 20.6377 0 20.1455 0 19.537V0.328162C0.267111 0.280305 0.664354 0.211938 1.18716 0.127619C1.70997 0.0432991 2.23963 0 2.77613 0C3.31264 0 3.79207 0.0364624 4.21899 0.109387C4.64591 0.182312 5.00434 0.328162 5.29657 0.546937C5.58879 0.765711 5.81481 1.06425 5.97234 1.44027C6.12987 1.81629 6.20977 2.30853 6.20977 2.91699V22.1259Z" transform="translate(0.169922 23.6377) rotate(-90)" fill="#1671FF"/>
<path id="Shape_15" d="M0 1.63853C0 1.1777 0.155029 0.788544 0.465086 0.473354C0.775144 0.158164 1.18551 0 1.6962 0C2.20688 0 2.61725 0.158164 2.92731 0.473354C3.23737 0.788544 3.39239 1.1777 3.39239 1.63853C3.39239 2.09937 3.23737 2.48852 2.92731 2.80371C2.61725 3.1189 2.20688 3.27706 1.6962 3.27706C1.18551 3.27706 0.775144 3.1189 0.465086 2.80371C0.155029 2.48852 0 2.09937 0 1.63853Z" transform="translate(2.96289 22.2695) rotate(-90)" fill="white"/>
</g>
</g>
</svg>
