<svg width="355" height="302" viewBox="0 0 355 302" fill="none" xmlns="http://www.w3.org/2000/svg">
<path opacity="0.4" d="M358.397 187.912C362.257 235.025 142.573 209.889 75.9777 189.412C9.38239 168.935 -21.1104 84.6127 16.0055 56.0495C53.1215 27.4862 338.824 0 338.824 0C338.824 0 354.538 140.799 358.397 187.912Z" transform="matrix(0.964332 0.264695 -0.263983 0.964527 -11.3125 0)" fill="#C2CCE2"/>
<path d="M286.556 220.122H11.851L0 12.1092L295.088 0L286.556 220.122Z" transform="translate(36.2832 18.4014)" fill="#E9F1FF"/>
<path d="M224.96 0H0V116.199H224.96V0Z" transform="translate(79.9033 5.93555)" fill="#E4ECFB"/>
<path d="M87.7558 -2.21549e-06H-5.30885e-06V63.9001H87.7558V-2.21549e-06Z" transform="translate(199.395 32.6875)" fill="#F4F7FD"/>
<path d="M55.2397 0H2.65442e-06V2.4683H55.2397V0Z" transform="translate(133.418 43.5322)" fill="#D0D8EC"/>
<path d="M55.2397 -3.54479e-06H2.65442e-06V2.46104H55.2397V-3.54479e-06Z" transform="translate(133.418 48.9629)" fill="#D0D8EC"/>
<path d="M55.2397 -2.65859e-06H2.65442e-06V2.46104H55.2397V-2.65859e-06Z" transform="translate(133.418 54.3877)" fill="#D0D8EC"/>
<path d="M162.138 5.31718e-06H2.65442e-06V7.40493H162.138V5.31718e-06Z" transform="translate(110.042 13.1738)" fill="#F4F7FD"/>
<path d="M2.59491 5.19797C4.02804 5.19797 5.18982 4.03436 5.18982 2.59898C5.18982 1.1636 4.02804 -2.65859e-06 2.59491 -2.65859e-06C1.16178 -2.65859e-06 0 1.1636 0 2.59898C0 4.03436 1.16178 5.19797 2.59491 5.19797Z" transform="translate(101.272 14.2764)" fill="#160760"/>
<path d="M2.5949 5.19797C4.02803 5.19797 5.18981 4.03436 5.18981 2.59898C5.18981 1.1636 4.02803 -2.65859e-06 2.5949 -2.65859e-06C1.16178 -2.65859e-06 5.30885e-06 1.1636 5.30885e-06 2.59898C5.30885e-06 4.03436 1.16178 5.19797 2.5949 5.19797Z" transform="translate(93.8496 14.2764)" fill="#160760"/>
<path d="M2.59491 5.19797C4.02804 5.19797 5.18982 4.03436 5.18982 2.59898C5.18982 1.1636 4.02804 -2.65859e-06 2.59491 -2.65859e-06C1.16178 -2.65859e-06 0 1.1636 0 2.59898C0 4.03436 1.16178 5.19797 2.59491 5.19797Z" transform="translate(86.4258 14.2764)" fill="#160760"/>
<g style="mix-blend-mode:multiply" opacity="0.1" transform="translate(165.519 129.917)">
<path d="M1.67034 2.06176C1.23544 2.32311 0.945508 2.6498 0.742554 2.58446C0.162686 2.43927 -0.0692607 1.73509 0.0177194 0.914736C0.102597 0.587275 0.244939 0.277536 0.438114 3.54479e-06L1.67034 2.06176Z" fill="black"/>
</g>
<g style="mix-blend-mode:multiply" opacity="0.1" transform="translate(120.777 112.627)">
<path d="M1.36269 0.768041C1.00752 1.05117 0.768329 1.38513 0.637859 1.29801C0.387479 1.024 0.173118 0.719033 8.84808e-07 0.390543C0.188458 0.252608 0.391415 -0.0450399 0.558127 0.00577819C0.724839 0.0565963 1.00028 0.397795 1.36269 0.768041Z" fill="black"/>
</g>
<g style="mix-blend-mode:multiply" opacity="0.1" transform="translate(162.52 130.952)">
<path d="M1.2612 0.611792C0.956773 0.967518 0.71758 1.33776 0.652345 1.33776C0.404694 1.05825 0.18612 0.754188 -1.76962e-06 0.430298C0.173959 0.270584 0.362417 -0.0270619 0.52188 0.00197701C0.681344 0.0310159 0.935028 0.306883 1.2612 0.611792Z" fill="black"/>
</g>
<g style="mix-blend-mode:multiply" opacity="0.1" transform="translate(139.816 139.537)">
<path d="M0.241589 3.54479e-06L1.04615 1.8004C0.908427 1.89478 0.67648 2.10533 0.661984 2.06903C0.422788 1.56811 0.205346 1.03815 0.00239248 0.500927C-0.0193526 0.442849 0.111119 0.261354 0.241589 3.54479e-06Z" fill="black"/>
</g>
<g style="mix-blend-mode:multiply" opacity="0.1" transform="translate(128.12 129.292)">
<path d="M0.44282 1.61892C0.210873 1.32853 -0.0138267 1.13252 0.000669966 1.05266C0.0936687 0.695431 0.207421 0.343937 0.341343 -7.97578e-06C0.457317 0.116148 0.689254 0.25409 0.682005 0.348467C0.625363 0.775987 0.545522 1.2001 0.44282 1.61892Z" fill="black"/>
</g>
<g style="mix-blend-mode:multiply" opacity="0.1" transform="translate(131.94 133.252)">
<path d="M0.63061 0.643961C0.41316 0.716559 0.181214 0.861769 0.144972 0.796432C0.0690332 0.560804 0.0203827 0.317214 -3.53923e-06 0.0704587C0.144963 0.0704587 0.318932 -0.0529549 0.427657 0.0269021C0.536383 0.106759 0.550879 0.382611 0.63061 0.643961Z" fill="black"/>
</g>
<g style="mix-blend-mode:multiply" opacity="0.1" transform="translate(181.953 128.812)">
<path d="M0.775575 0.464623C0.601615 0.646116 0.478395 0.885678 0.369669 0.863899C0.260944 0.84212 0.123218 0.60255 -3.53923e-06 0.457356C0.101473 0.297642 0.210208 -1.06344e-05 0.304437 -1.06344e-05C0.398665 -1.06344e-05 0.565373 0.25409 0.775575 0.464623Z" fill="black"/>
</g>
<g style="mix-blend-mode:multiply" opacity="0.1" transform="translate(194.958 127.268)">
<path d="M0.674089 0.451322L0.275439 0.988535C0.181211 0.821561 -1.76962e-06 0.647341 -1.76962e-06 0.480367C0.00880084 0.383687 0.0394794 0.290287 0.0897178 0.207263C0.139956 0.12424 0.208429 0.0537745 0.289928 0.00122234C0.384156 -0.0205568 0.500129 0.255309 0.674089 0.451322Z" fill="black"/>
</g>
<g style="mix-blend-mode:multiply" opacity="0.1" transform="translate(176.312 105.321)">
<path d="M0.299011 0L0.567197 0.725973C0.443975 0.813089 0.320761 0.951015 0.190291 0.965534C0.0598204 0.980053 -0.0126701 0.704198 0.00182657 0.617081C0.0729463 0.399027 0.172898 0.191486 0.299011 0Z" fill="black"/>
</g>
<g style="mix-blend-mode:multiply" opacity="0.1" transform="translate(177.872 144.741)">
<path d="M0.514813 0.312176C0.433413 0.475438 0.333707 0.628863 0.217628 0.769521C0.217628 0.769521 -0.00708376 0.558998 0.000164588 0.529959C0.0623269 0.348156 0.137417 0.171041 0.224862 -8.86197e-06L0.514813 0.312176Z" fill="black"/>
</g>
<g style="mix-blend-mode:multiply" opacity="0.1" transform="translate(129.62 115.775)">
<path d="M0.224696 -4.43099e-06C0.297179 0.0871123 0.413156 0.174233 0.420404 0.275869C0.427653 0.377505 0.333426 0.508173 0.275439 0.631588L-1.32721e-06 0.261357L0.224696 -4.43099e-06Z" fill="black"/>
</g>
<g style="mix-blend-mode:multiply" opacity="0.1" transform="translate(135.137 137.867)">
<path d="M0.231952 0.225062C0.181213 0.225062 0.130466 0.319428 0.0869758 0.304909C0.0434857 0.290389 0.0289925 0.188753 -8.84808e-07 0.123415L0.224696 -9.74817e-06C0.231945 0.0725875 0.231952 0.123426 0.231952 0.225062Z" fill="black"/>
</g>
<g style="mix-blend-mode:multiply" opacity="0.1" transform="translate(212.164 114.301)">
<path d="M0.0869899 -3.54479e-06C0.17397 0.065334 0.311686 0.101632 0.333431 0.203268C0.355176 0.304904 0.275448 0.471876 0.246454 0.609811C0.159474 0.544473 0.0217362 0.508176 -8.84808e-06 0.406539C0.00246393 0.266666 0.0320215 0.128603 0.0869899 -3.54479e-06Z" fill="black"/>
</g>
<g style="mix-blend-mode:multiply" opacity="0.1" transform="translate(203.708 108.068)">
<path d="M0.449398 0.346058L0.224701 0.629176L3.53923e-06 0.13552C0.10148 0.0847019 0.202953 -0.0241887 0.289933 0.00485023C0.376913 0.0338891 0.369666 0.222643 0.449398 0.346058Z" fill="black"/>
</g>
<g style="mix-blend-mode:multiply" opacity="0.1" transform="translate(207.112 97.5596)">
<path d="M0.152222 -1.77239e-06L0.268198 0.130679C0.217459 0.225056 0.16672 0.326684 0.108733 0.406541C0.0507464 0.486398 0.036232 0.326686 -9.73289e-06 0.283127L0.152222 -1.77239e-06Z" fill="black"/>
</g>
<g style="mix-blend-mode:multiply" opacity="0.1" transform="translate(153.736 137.01)">
<path d="M0.195699 -4.43099e-06L0.398652 0.29038L0.195699 0.588032L1.76962e-06 0.275869L0.195699 -4.43099e-06Z" fill="black"/>
</g>
<g style="mix-blend-mode:multiply" opacity="0.1" transform="translate(165.552 135.152)">
<path d="M0.0997063 -2.65859e-06C0.179438 0.0653349 0.309899 0.101626 0.338892 0.196002C0.332799 0.329179 0.300787 0.459903 0.24466 0.580789C0.15768 0.515451 0.0344677 0.479131 0.00547426 0.377495C-0.0235191 0.275859 0.0707129 0.130672 0.0997063 -2.65859e-06Z" fill="black"/>
</g>
<g style="mix-blend-mode:multiply" opacity="0.1" transform="translate(182.587 129.054)">
<path d="M0.264043 0.268608L0.00311286 0.21054C-0.00103762 0.140424 -0.00103762 0.0701176 0.00311286 1.77239e-06C0.0937455 0.00543931 0.183594 0.0200311 0.271298 0.0435584L0.264043 0.268608Z" fill="black"/>
</g>
<g style="mix-blend-mode:multiply" opacity="0.1" transform="translate(145.523 109.285)">
<path d="M0.645365 0.609808C0.510965 0.704584 0.361461 0.775783 0.203226 0.820347C0.137991 0.820347 -0.00699688 0.580788 0.000251471 0.51545C0.0589409 0.335824 0.136707 0.163005 0.232204 -6.20338e-06L0.645365 0.609808Z" fill="black"/>
</g>
<g style="mix-blend-mode:multiply" opacity="0.1" transform="translate(210.917 139.64)">
<path d="M0.152222 -7.97578e-06L0.268198 0.123417C0.220244 0.218293 0.167005 0.310398 0.108733 0.39929C0.108733 0.39929 0.036232 0.326683 -9.73289e-06 0.275865L0.152222 -7.97578e-06Z" fill="black"/>
</g>
<g style="mix-blend-mode:multiply" opacity="0.1" transform="translate(139.29 102.411)">
<path d="M0.391413 0.399291L0.159461 0.704187C0.0865548 0.551762 0.032983 0.390795 -3.98164e-06 0.225043C-3.98164e-06 0.166965 0.166712 0.0798499 0.253693 -7.08958e-06L0.391413 0.399291Z" fill="black"/>
</g>
<g style="mix-blend-mode:multiply" opacity="0.1" transform="translate(154.017 129.248)">
<path d="M0.449406 0.298383L0.289942 0.71946L-9.73289e-06 0.30565C0.0724737 0.196754 0.152211 0.0152512 0.231943 0.000731766C0.311675 -0.0137877 0.376923 0.189487 0.449406 0.298383Z" fill="black"/>
</g>
<g style="mix-blend-mode:multiply" opacity="0.1" transform="translate(147.422 98.1553)">
<path d="M0.144962 0.407052L7.96327e-06 0.109401C0.0362497 0.0658424 0.10148 -0.00675047 0.108729 0.00050926C0.16258 0.0919419 0.210973 0.186483 0.253682 0.283638L0.144962 0.407052Z" fill="black"/>
</g>
<g style="mix-blend-mode:multiply" opacity="0.1" transform="translate(127.978 97.8359)">
<path d="M0.257642 0.268608L0.00395634 0.210529C-0.00131524 0.140451 -0.00131524 0.0700798 0.00395634 1.77239e-06C0.0902674 0.00655745 0.175453 0.0236168 0.257642 0.0508141C0.279387 0.123411 0.26489 0.22505 0.257642 0.268608Z" fill="black"/>
</g>
<g style="mix-blend-mode:multiply" opacity="0.1" transform="translate(166.95 117.591)">
<path d="M0.275428 0.25409L0.188452 0.435584C0.119396 0.353153 0.0564262 0.265817 9.73289e-06 0.174244C0.0187821 0.112892 0.0455824 0.0542889 0.0797309 -4.43099e-06L0.275428 0.25409Z" fill="black"/>
</g>
<g style="mix-blend-mode:multiply" opacity="0.1" transform="translate(156.009 114.896)">
<path d="M0.0982006 1.77239e-06C0.185181 0.0580796 0.322912 0.0943782 0.337408 0.181495C0.331334 0.317005 0.299343 0.450094 0.243176 0.573527C0.156196 0.515449 0.0257135 0.479143 0.00396849 0.384766C-0.0177766 0.29039 0.0547105 0.137937 0.0982006 1.77239e-06Z" fill="black"/>
</g>
<g style="mix-blend-mode:multiply" opacity="0.1" transform="translate(190.839 100.235)">
<path d="M0.210212 0.207035L0.101469 0.359494L3.53923e-06 0.0618426C0.050742 0.0618426 0.108723 -0.0180157 0.152213 0.00376344C0.195703 0.0255426 0.188467 0.134438 0.210212 0.207035Z" fill="black"/>
</g>
<g style="mix-blend-mode:multiply" opacity="0.1" transform="translate(136.306 104.668)">
<path d="M0.244803 0.254099L0.00560589 0.203276C-0.00187453 0.135726 -0.00187453 0.0675548 0.00560589 4.43099e-06C0.0865568 0.00183975 0.166942 0.0140294 0.244803 0.0362942C0.266548 0.108891 0.252051 0.181502 0.244803 0.254099Z" fill="black"/>
</g>
<g style="mix-blend-mode:multiply" opacity="0.1" transform="translate(139.702 100.965)">
<path d="M0.15221 0.393637L1.32721e-06 0.110508C0.0434914 0.0742091 0.108729 -0.0129032 0.115978 0.00161623C0.17859 0.0916519 0.234316 0.186297 0.282686 0.284745L0.15221 0.393637Z" fill="black"/>
</g>
<g style="mix-blend-mode:multiply" opacity="0.1" transform="translate(121.997 97.9697)">
<path d="M0.252623 0.352912L0.00618179 0.410991C-0.00205706 0.290136 -0.00205706 0.16886 0.00618179 0.0480049C0.00618179 0.0480049 0.122154 -0.0173309 0.129402 0.00444828C0.177824 0.117865 0.21898 0.234253 0.252623 0.352912Z" fill="black"/>
</g>
<g style="mix-blend-mode:multiply" opacity="0.1" transform="translate(137.007 96.209)">
<path d="M4.42404e-07 0.181491L0.0797327 -2.21549e-06C0.142878 0.0785035 0.200986 0.160944 0.253697 0.246826C0.253697 0.246826 0.210199 0.362985 0.188453 0.421063L4.42404e-07 0.181491Z" fill="black"/>
</g>
<g style="mix-blend-mode:multiply" opacity="0.1" transform="translate(151.478 133.402)">
<path d="M0.242586 0.230802L0.00337854 0.194512C-0.00113916 0.131676 -0.00113916 0.0685882 0.00337854 0.00575191C0.0805048 -0.00191494 0.158205 -0.00191494 0.235331 0.00575191C0.257076 0.136427 0.249835 0.230802 0.242586 0.230802Z" fill="black"/>
</g>
<g style="mix-blend-mode:multiply" opacity="0.1" transform="translate(162.725 121.524)">
<path d="M0.152206 0.429832L-2.65442e-06 0.117669C0.0434874 0.0813706 0.115981 -0.0130085 0.123229 0.00151097C0.188699 0.103724 0.246825 0.210471 0.297182 0.320941L0.152206 0.429832Z" fill="black"/>
</g>
<g style="mix-blend-mode:multiply" opacity="0.1" transform="translate(179.967 142.549)">
<path d="M0.116489 -8.86197e-07L0.246954 0.0871123L0.0657455 0.319429C0.0657455 0.261351 -0.00673529 0.188747 0.00051306 0.130669C0.00776141 0.0725911 0.0802476 0.0435575 0.116489 -8.86197e-07Z" fill="black"/>
</g>
<g style="mix-blend-mode:multiply" opacity="0.1" transform="translate(152.249 125.396)">
<path d="M0.19376 0.0286362C0.19376 0.0286362 0.121988 0.121695 0.0932828 0.114536C0.064578 0.107378 0.0287153 0.0429474 1.0512e-05 -4.36928e-06L0.19376 0.0286362Z" fill="black"/>
</g>
<g style="mix-blend-mode:multiply" opacity="0.1" transform="translate(160.527 129.452)">
<path d="M0.101486 -7.08958e-06V0.152463L-1.76962e-06 0.0725946L0.101486 -7.08958e-06Z" fill="black"/>
</g>
<g style="mix-blend-mode:multiply" opacity="0.1" transform="translate(175.126 120)">
<path d="M0.101474 0.159716L8.84808e-06 0.0653358L0.115963 8.86197e-07L0.101474 0.159716Z" fill="black"/>
</g>
<g style="mix-blend-mode:multiply" opacity="0.1" transform="translate(147.248 133.286)">
<path d="M-7.07847e-06 0.101639L0.13048 -7.97578e-06C0.13048 0.108888 0.166712 0.225044 0.188457 0.3412C0.137719 0.3412 0.079738 0.341202 0.0362479 0.297644C-0.00724215 0.254085 0.0144896 0.166976 -7.07847e-06 0.101639Z" fill="black"/>
</g>
<g style="mix-blend-mode:multiply" opacity="0.1" transform="translate(183.781 133.823)">
<path d="M1.06177e-05 0.203279V7.08958e-06C0.0507491 7.08958e-06 0.115964 -1.06339e-05 0.137709 0.0725866C0.159454 0.145184 0.137709 0.203283 0.137709 0.27588L1.06177e-05 0.203279Z" fill="black"/>
</g>
<g style="mix-blend-mode:multiply" opacity="0.1" transform="translate(134.867 142.761)">
<path d="M2.65442e-06 0.172988C2.65442e-06 0.12217 4.8658e-06 0.0713582 0.0362466 0.0205401C0.0724883 -0.030278 0.123226 0.0205445 0.137723 0.0931418C0.15222 0.165739 0.137723 0.194772 0.137723 0.24559L2.65442e-06 0.172988Z" fill="black"/>
</g>
<g style="mix-blend-mode:multiply" opacity="0.1" transform="translate(169.108 136.609)">
<path d="M0.130461 0.166964L-4.42404e-06 0.225054C-4.42404e-06 0.166976 -4.42404e-06 0.072592 -4.42404e-06 0.0580725C-4.42404e-06 0.043553 0.0797371 0.0217836 0.123227 4.43099e-06L0.130461 0.166964Z" fill="black"/>
</g>
<g style="mix-blend-mode:multiply" opacity="0.1" transform="translate(139.579 137.075)">
<path d="M2.65442e-06 0.188753L0.0507354 -7.08958e-06C0.0942254 -7.08958e-06 0.159466 0.036288 0.181211 0.0871061C0.202956 0.137924 0.181213 0.210529 0.137723 0.275866L2.65442e-06 0.188753Z" fill="black"/>
</g>
<g style="mix-blend-mode:multiply" opacity="0.1" transform="translate(67.3418 129.026)">
<path d="M0.500138 1.85848C0.288707 1.51782 0.120687 1.15199 0 0.769525C0 0.558993 0.152221 0.254086 0.231952 -4.43099e-06C0.475035 0.267662 0.68662 0.562395 0.862555 0.878416C0.920542 0.980053 0.695843 1.37208 0.500138 1.85848Z" fill="black"/>
</g>
<g style="mix-blend-mode:multiply" opacity="0.1" transform="translate(77.2207 114.159)">
<path d="M3.53923e-06 0.512847C0.123225 0.338613 0.231947 0.0409629 0.369665 0.011924C0.619026 -0.0240215 0.873306 0.0218153 1.0945 0.142594C1.15249 0.142594 1.0945 0.592706 1.0945 0.832277C0.853804 0.858547 0.611778 0.870659 0.369665 0.868567C0.26094 0.868567 0.159469 0.745159 0.0579917 0.672562L3.53923e-06 0.512847Z" fill="black"/>
</g>
<g style="mix-blend-mode:multiply" opacity="0.1" transform="translate(102.179 140.273)">
<path d="M0.804565 2.07318L-1.76962e-06 0.272763C0.137717 0.178387 0.369663 -0.0321421 0.38416 0.00415655C0.623355 0.505078 0.840812 1.03505 1.03652 1.57953C1.06551 1.63035 0.942284 1.81183 0.804565 2.07318Z" fill="black"/>
</g>
<g style="mix-blend-mode:multiply" opacity="0.1" transform="translate(110.479 147.816)">
<path d="M-3.98164e-06 0.168924C0.217447 0.0963265 0.449392 -0.0488619 0.485634 0.0164757C0.560614 0.252352 0.609243 0.495833 0.63061 0.742448C0.485643 0.742448 0.311674 0.865862 0.202949 0.786005C0.0942237 0.706148 0.0797279 0.444793 -3.98164e-06 0.168924Z" fill="black"/>
</g>
<g style="mix-blend-mode:multiply" opacity="0.1" transform="translate(40.7559 124.592)">
<path d="M1.1027 0.796327C0.733036 1.05042 0.530084 1.3045 0.334379 1.28998C0.138674 1.27546 -0.0135411 0.883441 0.000955595 0.680168C0.0272911 0.417454 0.154668 0.175299 0.356123 0.00499694C0.443103 -0.0458212 0.638808 0.295406 1.1027 0.796327Z" fill="black"/>
</g>
<g style="mix-blend-mode:multiply" opacity="0.1" transform="translate(42.6543 104.524)">
<path d="M1.76962e-06 0.580787C0.0352546 0.381914 0.0911246 0.187254 0.166711 -4.43099e-06C0.409988 0.0206454 0.651959 0.0545852 0.891545 0.101642C0.840807 0.261356 0.804566 0.544489 0.739331 0.559009C0.494273 0.591503 0.246542 0.5988 1.76962e-06 0.580787Z" fill="black"/>
</g>
<g style="mix-blend-mode:multiply" opacity="0.1" transform="translate(87.6523 126.896)">
<path d="M0.449397 8.86197e-07L0.855303 0.486412C0.666435 0.696847 0.460355 0.891106 0.2392 1.06718C0.125404 0.926935 0.0437474 0.763365 3.09683e-06 0.588037C0.127573 0.375944 0.278295 0.178721 0.449397 8.86197e-07Z" fill="black"/>
</g>
<g style="mix-blend-mode:multiply" opacity="0.1" transform="translate(79.1357 112.342)">
<path d="M0.289933 9.74817e-06L0.558118 0.537223L0.202956 0.856652C0.121396 0.665736 0.0535729 0.469224 3.09683e-06 0.268616C3.09683e-06 0.268616 0.159462 0.116165 0.289933 9.74817e-06Z" fill="black"/>
</g>
<g style="mix-blend-mode:multiply" opacity="0.1" transform="translate(64.6602 136.371)">
<path d="M2.21202e-06 0.457358C0.0816716 0.294251 0.181359 0.140834 0.297187 -7.97577e-06C0.297187 -7.97577e-06 0.521877 0.203277 0.514629 0.239575C0.453075 0.421611 0.377966 0.598748 0.289932 0.769521L2.21202e-06 0.457358Z" fill="black"/>
</g>
<g style="mix-blend-mode:multiply" opacity="0.1" transform="translate(56.1006 130.367)">
<path d="M0.384166 0.900199L3.98164e-06 0.435588C0.0810759 0.278869 0.18086 0.132597 0.297178 0C0.340668 0 0.536379 0.145186 0.52913 0.217783C0.503484 0.4495 0.454926 0.678096 0.384166 0.900199Z" fill="black"/>
</g>
<g style="mix-blend-mode:multiply" opacity="0.1" transform="translate(47.1621 108.767)">
<path d="M2.65442e-06 0.351318C2.65442e-06 0.227902 0.0579866 0.0246221 0.115973 0.00284288C0.17396 -0.0189363 0.282686 0.0899614 0.376914 0.140779C0.340673 0.264195 0.311681 0.460215 0.253694 0.489254C0.195707 0.518293 0.0797345 0.402136 2.65442e-06 0.351318Z" fill="black"/>
</g>
<g style="mix-blend-mode:multiply" opacity="0.1" transform="translate(107.672 143.724)">
<path d="M-4.42404e-07 0.0742296C0.0434896 0.0742296 0.101474 -0.0128915 0.144964 0.00162793C0.188454 0.0161474 0.202959 0.125043 0.231952 0.183121L0.0144994 0.306546C0.007251 0.21943 0.00724791 0.139567 -4.42404e-07 0.0742296Z" fill="black"/>
</g>
<g style="mix-blend-mode:multiply" opacity="0.1" transform="translate(83.7451 106.376)">
<path d="M0.362421 0.34695C0.282689 0.412288 0.181214 0.550238 0.137724 0.521199C0.0942338 0.49216 0.0434936 0.296139 3.53923e-06 0.172724C0.072487 0.114646 0.181203 -0.0305563 0.217445 0.00574238C0.285545 0.10999 0.334638 0.225519 0.362421 0.34695Z" fill="black"/>
</g>
<g style="mix-blend-mode:multiply" opacity="0.1" transform="translate(88.9141 144.285)">
<path d="M0.202949 0.588046L-3.98164e-06 0.297639L0.202949 9.74817e-06L0.398657 0.312173L0.202949 0.588046Z" fill="black"/>
</g>
<g style="mix-blend-mode:multiply" opacity="0.1" transform="translate(77.1436 146.128)">
<path d="M0.245418 0.573519C0.165686 0.508181 0.0352147 0.479135 0.00622126 0.384759C-0.0227721 0.290382 0.0569562 0.130669 0.0931979 -6.20338e-06C0.180178 0.0653313 0.303401 0.101629 0.332395 0.203265C0.361388 0.304901 0.28166 0.471882 0.245418 0.573519Z" fill="black"/>
</g>
<g style="mix-blend-mode:multiply" opacity="0.1" transform="translate(31.8613 141.853)">
<path d="M0.115973 0.392015L2.21202e-06 0.268612C0.0463682 0.175203 0.099668 0.0854176 0.159461 5.31718e-06C0.159461 5.31718e-06 0.231946 0.0726053 0.268188 0.116164L0.115973 0.392015Z" fill="black"/>
</g>
<g style="mix-blend-mode:multiply" opacity="0.1" transform="translate(36.0957 97.2637)">
<path d="M0.253691 -4.43099e-06L0.478393 0.290391C0.391413 0.377508 0.304428 0.529957 0.224697 0.522697C0.144965 0.515437 0.072483 0.348471 -4.42404e-07 0.246835L0.253691 -4.43099e-06Z" fill="black"/>
</g>
<g style="mix-blend-mode:multiply" opacity="0.1" transform="translate(98.2861 132.517)">
<path d="M0.115978 0.392025L1.76962e-06 0.275867C0.0452146 0.180959 0.0960373 0.088835 0.152211 -6.20338e-06C0.152211 -6.20338e-06 0.224701 0.0725866 0.260943 0.108885L0.115978 0.392025Z" fill="black"/>
</g>
<g style="mix-blend-mode:multiply" opacity="0.1" transform="translate(91.3193 148.213)">
<path d="M0.00836702 -9.74817e-06L0.247564 0.043569C0.247564 0.101647 0.247564 0.225047 0.247564 0.232307C0.167998 0.239602 0.0879325 0.239602 0.00836702 0.232307C-0.00612968 0.130671 0.00111867 0.0653278 0.00836702 -9.74817e-06Z" fill="black"/>
</g>
<g style="mix-blend-mode:multiply" opacity="0.1" transform="translate(101.156 100.393)">
<path d="M-4.42404e-06 0.246833C0.0797274 0.159716 0.166709 4.87408e-06 0.239192 4.87408e-06C0.311676 4.87408e-06 0.398661 0.166975 0.471145 0.268611C0.384165 0.355728 0.304436 0.515439 0.224704 0.515439C0.144972 0.515439 0.0724791 0.33395 -4.42404e-06 0.246833Z" fill="black"/>
</g>
<g style="mix-blend-mode:multiply" opacity="0.1" transform="translate(101.228 118.824)">
<path d="M0.15222 0.384769L0 0.290389C0.0477553 0.190715 0.100992 0.0937747 0.159465 4.43099e-06C0.197702 0.0367998 0.233988 0.0755739 0.268185 0.116163L0.15222 0.384769Z" fill="black"/>
</g>
<g style="mix-blend-mode:multiply" opacity="0.1" transform="translate(62.8271 139.007)">
<path d="M0.130468 0.326692L3.09683e-06 0.239579L0.181212 -4.43099e-06C0.181212 0.0653331 0.253697 0.137937 0.2392 0.188756C0.224703 0.239574 0.173958 0.283134 0.130468 0.326692Z" fill="black"/>
</g>
<g style="mix-blend-mode:multiply" opacity="0.1" transform="translate(95.6025 148.264)">
<path d="M0.188457 0.232312L0.0579921 0.333937L3.98164e-06 -4.43099e-06C0.0507424 -4.43099e-06 0.108723 -6.20133e-06 0.152213 0.0435522C0.195703 0.0871105 0.181209 0.166975 0.188457 0.232312Z" fill="black"/>
</g>
<g style="mix-blend-mode:multiply" opacity="0.1" transform="translate(59.1211 147.784)">
<path d="M0.147384 0.0725946C0.147384 0.137932 0.147384 0.210529 0.147384 0.275866C0.147384 0.341204 0.0314082 0.275862 0.00966314 0.203264C-0.0120819 0.130667 0.00966314 0.0725902 0.00966314 -7.08958e-06L0.147384 0.0725946Z" fill="black"/>
</g>
<g style="mix-blend-mode:multiply" opacity="0.1" transform="translate(85.7832 112.342)">
<path d="M1.76962e-06 0.0871229L0.173955 9.74817e-06L0.210199 0.196014L1.76962e-06 0.0871229Z" fill="black"/>
</g>
<g style="mix-blend-mode:multiply" opacity="0.1" transform="translate(91.5303 124.646)">
<path d="M-3.53923e-06 0.116155L0.108728 -3.54479e-06L0.195705 0.254091C0.152215 0.254091 0.101475 0.29765 0.0579846 0.254091C0.0144945 0.210533 0.0217415 0.166973 -3.53923e-06 0.116155Z" fill="black"/>
</g>
<g style="mix-blend-mode:multiply" opacity="0.1" transform="translate(76.9961 114.68)">
<path d="M0.311679 0.159703L5.30885e-06 0.406554L0.217447 1.06344e-05L0.311679 0.159703Z" fill="black"/>
</g>
<g style="mix-blend-mode:multiply" opacity="0.1" transform="translate(108.035 138.876)">
<path d="M0.144159 0.0726026C0.144159 0.123421 0.144157 0.174233 0.107915 0.225051C0.0716732 0.275869 0.0209352 0.225046 0.00643855 0.152449C-0.00805814 0.0798517 0.00643855 0.0580787 0.00643855 8.86197e-07L0.144159 0.0726026Z" fill="black"/>
</g>
<g style="mix-blend-mode:multiply" opacity="0.1" transform="translate(73.7959 145.046)">
<path d="M0.0107832 0.058069L0.141259 8.86197e-07C0.148903 0.0553955 0.148903 0.111588 0.141259 0.166983C0.141259 0.210541 0.0615177 0.210531 0.0180276 0.225051C-0.0254625 0.23957 0.0252799 0.116147 0.0107832 0.058069Z" fill="black"/>
</g>
<g style="mix-blend-mode:multiply" opacity="0.1" transform="translate(103.285 144.502)">
<path d="M0.182488 0.0798473L0.139 0.275874C0.09551 0.275874 0.0302802 0.239579 0.00853511 0.188761C-0.0132099 0.137943 0.00853334 0.0653384 0.0520234 8.86197e-07L0.182488 0.0798473Z" fill="black"/>
</g>
<g style="mix-blend-mode:multiply" opacity="0.1" transform="translate(40.21 77.6074)">
<path d="M1.64662 1.06402L0.385408 3.1766C0.247689 2.98785 -0.020499 2.74828 0.00124606 2.63212C0.129267 1.89521 0.306036 1.16764 0.530378 0.454202C0.602861 0.229151 0.929037 -0.0612389 1.02327 0.0113584C1.27794 0.332183 1.48765 0.68634 1.64662 1.06402Z" fill="black"/>
</g>
<g style="mix-blend-mode:multiply" opacity="0.1" transform="translate(46.0322 109.401)">
<path d="M0.587119 1.72782C0.362243 1.34858 0.165987 0.953025 -1.10601e-06 0.544476C0.0862569 0.338591 0.21466 0.153107 0.376916 -3.54479e-06C0.637122 0.330123 0.879096 0.674275 1.10175 1.03089L0.587119 1.72782Z" fill="black"/>
</g>
<g style="mix-blend-mode:multiply" opacity="0.1" transform="translate(41.6543 59.2803)">
<path d="M0.797321 0.00725707C0.959081 0.337274 1.05977 0.693924 1.0945 1.05992C1.0945 1.33579 0.73933 1.70603 0.543624 1.70603C0.347919 1.70603 0.03624 1.32853 -1.76962e-06 1.05266C0.0324534 0.687129 0.130682 0.330499 0.289933 1.3293e-06L0.797321 0.00725707Z" fill="black"/>
</g>
<g style="mix-blend-mode:multiply" opacity="0.1" transform="translate(30.1543 38.9014)">
<path d="M0.20072 2.13436C0.0919945 1.48098 -0.0529725 1.11074 0.019511 0.936507C0.190414 0.601231 0.399601 0.286953 0.642869 -3.98789e-06C0.722601 0.268606 0.918305 0.602555 0.867566 0.784048C0.687948 1.25405 0.464688 1.70614 0.20072 2.13436Z" fill="black"/>
</g>
<g style="mix-blend-mode:multiply" opacity="0.1" transform="translate(48.2422 95.3916)">
<path d="M0.333424 1.94561C0.171388 1.52717 0.0594658 1.09096 1.10601e-06 0.646121C1.10601e-06 0.428329 0.26819 0.210537 0.413157 5.31718e-06C0.586793 0.301729 0.716173 0.6269 0.797318 0.965539C0.797318 1.21963 0.579868 1.46646 0.333424 1.94561Z" fill="black"/>
</g>
<g style="mix-blend-mode:multiply" opacity="0.1" transform="translate(29.5059 69.6387)">
<path d="M1.34095 0.464973C0.985777 0.886037 0.804568 1.29258 0.616111 1.31436C0.427654 1.33614 0.210204 0.95863 2.21202e-06 0.755357C0.202956 0.508527 0.384162 0.16006 0.608861 0.0293846C0.83356 -0.101291 0.964032 0.232661 1.34095 0.464973Z" fill="black"/>
</g>
<g style="mix-blend-mode:multiply" opacity="0.1" transform="translate(52.46 39.8457)">
<path d="M0.973451 0.544478L0.379092 1.57536C0.241373 1.36483 -0.0268186 1.0817 0.00217481 0.943765C0.0904582 0.601982 0.245684 0.281178 0.458824 -1.77239e-06C0.458824 -1.77239e-06 0.741504 0.297647 0.973451 0.544478Z" fill="black"/>
</g>
<g style="mix-blend-mode:multiply" opacity="0.1" transform="translate(89.3779 42.2246)">
<path d="M1.47866 0.808118C0.964032 1.00413 0.703094 1.22918 0.507389 1.1348C0.311683 1.04043 0.166708 0.633884 -4.42404e-06 0.365275C0.224694 0.22734 0.456651 -0.0267508 0.666853 0.0022881C0.877055 0.031327 1.05826 0.372535 1.47866 0.808118Z" fill="black"/>
</g>
<g style="mix-blend-mode:multiply" opacity="0.1" transform="translate(47.1162 31.8174)">
<path d="M0.415621 0C0.531308 0.281607 0.621079 0.573205 0.683812 0.871165C0.683812 0.958282 0.393879 1.24867 0.350389 1.19785C0.183451 1.00859 0.0641531 0.782084 0.00246581 0.537224C-0.0265276 0.486406 0.205419 0.26135 0.415621 0Z" fill="black"/>
</g>
<g style="mix-blend-mode:multiply" opacity="0.1" transform="translate(50.1719 84.6641)">
<path d="M0.630601 0.765121L0.144963 0.946615L-1.76962e-06 0.0827052C0.144965 0.0827052 0.340668 -0.0624947 0.427648 0.0318817C0.534582 0.263641 0.60313 0.511298 0.630601 0.765121Z" fill="black"/>
</g>
<g style="mix-blend-mode:multiply" opacity="0.1" transform="translate(30.9131 65.0371)">
<path d="M0.333422 0.776792C0.173958 0.696935 -1.54841e-06 0.631598 -1.54841e-06 0.595299C0.0215814 0.39446 0.0579228 0.195482 0.108725 -3.98789e-06C0.202953 0.0508141 0.369667 0.0726022 0.376916 0.145199C0.381385 0.356612 0.366825 0.567995 0.333422 0.776792Z" fill="black"/>
</g>
<g style="mix-blend-mode:multiply" opacity="0.1" transform="translate(85.5068 76.1084)">
<path d="M0.753833 0.472037C0.550879 0.65353 0.413161 0.871314 0.289939 0.849535C0.166717 0.827756 0.101475 0.559149 -1.76962e-06 0.399435C0.115972 0.254241 0.239194 0.00740777 0.362416 0.000148044C0.485638 -0.00711168 0.579872 0.246985 0.753833 0.472037Z" fill="black"/>
</g>
<g style="mix-blend-mode:multiply" opacity="0.1" transform="translate(69.1553 26.0879)">
<path d="M0.906044 0.428474C0.6596 0.704344 0.507385 0.980211 0.44215 0.936653C0.268472 0.775523 0.119484 0.589612 0 0.384917C0.108725 0.246983 0.231952 -0.00710701 0.333429 0.000152714C0.434906 0.00741244 0.623358 0.217942 0.906044 0.428474Z" fill="black"/>
</g>
<g style="mix-blend-mode:multiply" opacity="0.1" transform="translate(45.7354 37.9639)">
<path d="M0.898795 0.415354C0.6596 0.676704 0.521881 0.916278 0.355169 0.974356C0.188457 1.03243 0.123224 0.749312 1.76962e-06 0.618636C0.100961 0.397814 0.23275 0.19248 0.391413 0.00881081C0.463897 -0.049267 0.637855 0.190302 0.898795 0.415354Z" fill="black"/>
</g>
<g style="mix-blend-mode:multiply" opacity="0.1" transform="translate(82.0049 43.2139)">
<path d="M-3.09683e-06 0.297649L0.427658 -2.21549e-06C0.518719 0.213127 0.579708 0.437915 0.608867 0.667891C0.608867 0.791307 0.398663 0.90747 0.289937 1.01637L-3.09683e-06 0.297649Z" fill="black"/>
</g>
<g style="mix-blend-mode:multiply" opacity="0.1" transform="translate(69.5664 40.1064)">
<path d="M0.253691 1.04575C0.130756 0.818968 0.0451019 0.573838 5.30885e-06 0.319774C5.30885e-06 0.203618 0.188457 0.0656776 0.311679 0.0075998C0.434901 -0.050478 0.492892 0.239916 0.485643 0.341552C0.435632 0.584439 0.357797 0.820734 0.253691 1.04575Z" fill="black"/>
</g>
<g style="mix-blend-mode:multiply" opacity="0.1" transform="translate(57.6523 61.8291)">
<path d="M0.304433 0.813094L3.53923e-06 0.508176C0.0732931 0.332074 0.160553 0.162139 0.260945 -2.65859e-06C0.260945 -2.65859e-06 0.492883 0.181488 0.478386 0.246825C0.43837 0.440653 0.38013 0.630262 0.304433 0.813094Z" fill="black"/>
</g>
<g style="mix-blend-mode:multiply" opacity="0.1" transform="translate(53.6592 26.9805)">
<path d="M-3.53923e-06 0.284594C0.239192 0.139399 0.384165 -0.0420866 0.49289 0.00873153C0.601615 0.0595496 0.637852 0.342673 0.703087 0.524166C0.608859 0.596763 0.500137 0.771003 0.434902 0.734704C0.369667 0.698406 0.20295 0.509645 -3.53923e-06 0.284594Z" fill="black"/>
</g>
<g style="mix-blend-mode:multiply" opacity="0.1" transform="translate(50.4297 89.4082)">
<path d="M0.28461 1.02363C0.146891 0.747756 -0.0198206 0.558994 0.00192445 0.435578C0.052768 0.262687 0.156765 0.110269 0.299109 1.3293e-06C0.299109 1.3293e-06 0.509311 0.203269 0.502062 0.290386C0.451632 0.540822 0.378854 0.786224 0.28461 1.02363Z" fill="black"/>
</g>
<g style="mix-blend-mode:multiply" opacity="0.1" transform="translate(42.6543 93.9922)">
<path d="M0.695843 0.439072C0.463895 0.606046 0.304429 0.80932 0.217449 0.758502C0.130469 0.707684 0.0652369 0.402768 1.76962e-06 0.206755C0.0942303 0.134158 0.202954 -0.0255552 0.275437 0.00348374C0.347921 0.0325226 0.500137 0.199501 0.695843 0.439072Z" fill="black"/>
</g>
<g style="mix-blend-mode:multiply" opacity="0.1" transform="translate(48.6064 45.9443)">
<path d="M1.10601e-06 0.392025L0.16671 4.87408e-06L0.463889 0.32669C0.384158 0.435586 0.31893 0.602559 0.239198 0.631598C0.159466 0.660637 0.0797329 0.471882 1.10601e-06 0.392025Z" fill="black"/>
</g>
<g style="mix-blend-mode:multiply" opacity="0.1" transform="translate(73.916 109.712)">
<path d="M0.239191 0.217796C0.188453 0.217796 0.137716 0.297658 0.0942263 0.290398C0.0507362 0.283138 0.0362471 0.181494 5.30885e-06 0.123416L0.217447 -8.86197e-06C0.231944 0.0725884 0.231943 0.145199 0.239191 0.217796Z" fill="black"/>
</g>
<g style="mix-blend-mode:multiply" opacity="0.1" transform="translate(59.167 96.6104)">
<path d="M0.377773 0C0.472553 0.256443 0.528735 0.52558 0.544482 0.798575C0.485226 0.960471 0.365746 1.09314 0.211053 1.16882C0.160315 1.16882 -0.0136408 0.980066 0.00085587 0.943767C0.105389 0.62113 0.23131 0.305839 0.377773 0Z" fill="black"/>
</g>
<g style="mix-blend-mode:multiply" opacity="0.1" transform="translate(27.9336 82.6924)">
<path d="M0.53638 0.0727797C0.513328 0.228015 0.469441 0.379426 0.405909 0.52289C0.263486 0.49362 0.126519 0.442173 -1.99082e-06 0.370431C-1.99082e-06 0.239756 0.0652343 0.00744877 0.108724 0.000189042C0.25454 -0.00242053 0.399567 0.0221919 0.53638 0.0727797Z" fill="black"/>
</g>
<g style="mix-blend-mode:multiply" opacity="0.1" transform="translate(66.415 77.208)">
<path d="M0.405907 0.425048L0.144966 0.650097L8.84808e-07 0.0983621C0.0942294 0.0983621 0.217451 -0.0395803 0.282686 0.0112378C0.347921 0.0620559 0.362417 0.279853 0.405907 0.425048Z" fill="black"/>
</g>
<g style="mix-blend-mode:multiply" opacity="0.1" transform="translate(71.4668 74.6641)">
<path d="M0.355164 0.166974C0.318922 0.297649 0.297178 0.486405 0.231943 0.544483C0.166708 0.602561 0.00725012 0.471888 1.76962e-06 0.39929C0.00810535 0.261737 0.0399917 0.126634 0.0942338 3.10169e-06L0.355164 0.166974Z" fill="black"/>
</g>
<g style="mix-blend-mode:multiply" opacity="0.1" transform="translate(48.4668 73.0303)">
<path d="M0.486379 0.39929C0.402963 0.541154 0.303223 0.672723 0.189199 0.791311C0.189199 0.791311 -0.0137562 0.559004 0.000740547 0.500926C0.0550111 0.325417 0.130467 0.157198 0.225438 3.10169e-06L0.486379 0.39929Z" fill="black"/>
</g>
<g style="mix-blend-mode:multiply" opacity="0.1" transform="translate(44.04 65.6016)">
<path d="M0.420404 0.335889C0.340673 0.415746 0.246441 0.568202 0.173958 0.553683C0.101474 0.539163 0.0579857 0.343153 -1.10601e-06 0.226997C0.0797307 0.14714 0.173961 -0.0198427 0.239196 0.0019365C0.304431 0.0237157 0.362418 0.219733 0.420404 0.335889Z" fill="black"/>
</g>
<g style="mix-blend-mode:multiply" opacity="0.1" transform="translate(89.6113 55.585)">
<path d="M0.084645 0.58804C0.084645 0.450105 -0.0240807 0.27587 0.00491274 0.188753C0.0339061 0.101636 0.171629 0.0580818 0.258609 3.98789e-06C0.258609 0.130679 0.367335 0.312167 0.338342 0.392024C0.309348 0.471881 0.171625 0.522703 0.084645 0.58804Z" fill="black"/>
</g>
<g style="mix-blend-mode:multiply" opacity="0.1" transform="translate(56.2598 49.6025)">
<path d="M0.260946 0.174237L0.0724817 0.39202C0.0431998 0.338736 0.0189406 0.28284 4.86644e-06 0.22505C0.0579917 0.137933 0.123223 0.0725973 0.188458 0L0.260946 0.174237Z" fill="black"/>
</g>
<g style="mix-blend-mode:multiply" opacity="0.1" transform="translate(70.7764 19.7793)">
<path d="M0.152213 0.421527L3.98164e-06 0.11662C0.0434941 0.0730617 0.108721 -0.00679798 0.115969 0.000461752C0.174587 0.0966431 0.227825 0.196015 0.275434 0.298113L0.152213 0.421527Z" fill="black"/>
</g>
<g style="mix-blend-mode:multiply" opacity="0.1" transform="translate(32.9199 13.123)">
<path d="M0.17396 0L0.289937 0.137937C0.238312 0.236089 0.180191 0.330676 0.115972 0.421066C0.115972 0.421066 0.0362433 0.34121 1.54841e-06 0.297651L0.17396 0Z" fill="black"/>
</g>
<g style="mix-blend-mode:multiply" opacity="0.1" transform="translate(59.2109 25.8926)">
<path d="M0.173963 -2.65859e-06C0.217454 0.0508154 0.289933 0.130677 0.282684 0.152456C0.275436 0.174236 0.173962 0.36299 0.115975 0.471886C0.074711 0.425636 0.035993 0.377157 -8.84808e-07 0.326683C0.0579859 0.210527 0.115977 0.108893 0.173963 -2.65859e-06Z" fill="black"/>
</g>
<g style="mix-blend-mode:multiply" opacity="0.1" transform="translate(63.5889 32.3301)">
<path d="M0.275241 0.343075C0.188489 0.352009 0.101051 0.352009 0.0142999 0.343075C-0.00477018 0.271735 -0.00477018 0.196634 0.0142999 0.125293C0.0142999 0.059955 0.123028 -0.012641 0.130276 0.00187849C0.186516 0.112074 0.234956 0.22608 0.275241 0.343075Z" fill="black"/>
</g>
<g style="mix-blend-mode:multiply" opacity="0.1" transform="translate(81.499 72.3242)">
<path d="M0.159464 0.400906L-8.84808e-07 0.11051C0.0434892 0.0742113 0.108723 -0.012901 0.12322 0.00161844C0.184584 0.0936592 0.237936 0.190809 0.282684 0.292003L0.159464 0.400906Z" fill="black"/>
</g>
<g style="mix-blend-mode:multiply" opacity="0.1" transform="translate(67.7119 69.4082)">
<path d="M0.304425 0.232316L0.210204 0.413809L-3.98164e-06 0.16697C0.0249191 0.109278 0.0539963 0.0534767 0.0869837 -8.86197e-07C0.164592 0.0724589 0.237231 0.150077 0.304425 0.232316Z" fill="black"/>
</g>
<g style="mix-blend-mode:multiply" opacity="0.1" transform="translate(63.5449 68.2959)">
<path d="M0.0579841 0L0.311681 0.166971C0.258536 0.275087 0.197988 0.379397 0.130472 0.479145C0.130472 0.479145 -3.98164e-06 0.413808 -3.98164e-06 0.377509C0.0108188 0.25051 0.0301932 0.124385 0.0579841 0Z" fill="black"/>
</g>
<g style="mix-blend-mode:multiply" opacity="0.1" transform="translate(65.5664 65.2695)">
<path d="M0.318931 0.123415C0.318931 0.196013 0.318926 0.268612 0.268188 0.341209L2.21202e-06 0.210529L0.0434905 1.3293e-06C0.138461 0.033671 0.230574 0.0749414 0.318931 0.123415Z" fill="black"/>
</g>
<g style="mix-blend-mode:multiply" opacity="0.1" transform="translate(88.0576 61.0078)">
<path d="M0.289931 0.254089L0.202954 0.450104C0.130471 0.362988 0.0579881 0.28313 1.32721e-06 0.188754C0.0192575 0.12298 0.0460114 0.059649 0.0797336 4.87408e-06L0.289931 0.254089Z" fill="black"/>
</g>
<g style="mix-blend-mode:multiply" opacity="0.1" transform="translate(56.9199 109.895)">
<path d="M0.46389 0.26887C0.384158 0.355987 0.304425 0.508424 0.224693 0.501164C0.144962 0.493905 0.0724799 0.334194 -3.53923e-06 0.232558C0.0797283 0.145441 0.16671 -0.00701839 0.239193 0.000241336C0.311677 0.00750106 0.391407 0.167234 0.46389 0.26887Z" fill="black"/>
</g>
<g style="mix-blend-mode:multiply" opacity="0.1" transform="translate(72.7061 107.963)">
<path d="M0.289936 0.26135L0.195704 0.45011C0.125384 0.36188 0.0600439 0.269776 -4.42404e-06 0.174237C0.025942 0.113358 0.057491 0.0550358 0.0942276 1.06344e-05L0.289936 0.26135Z" fill="black"/>
</g>
<g style="mix-blend-mode:multiply" opacity="0.1" transform="translate(81.542 102.76)">
<path d="M0.115974 0.384766L-2.65442e-06 0.225051C0.0627602 0.14351 0.133153 0.0681528 0.210206 8.86197e-07C0.210206 8.86197e-07 0.282685 0.0943862 0.318926 0.145204L0.115974 0.384766Z" fill="black"/>
</g>
<g style="mix-blend-mode:multiply" opacity="0.1" transform="translate(34.1523 18.6689)">
<path d="M-6.63606e-07 0.152459L0.0507376 -4.43099e-07C0.0507376 -4.43099e-07 0.137717 0.0435544 0.152214 0.0871127C0.166711 0.130671 0.152216 0.188754 0.108726 0.239572L-6.63606e-07 0.152459Z" fill="black"/>
</g>
<g style="mix-blend-mode:multiply" opacity="0.1" transform="translate(49.9756 43.0186)">
<path d="M0.152215 -5.31718e-06L0.268192 0.116153C0.221802 0.209548 0.168497 0.299343 0.108727 0.38477C0.108727 0.38477 0.0362369 0.319433 -4.86645e-06 0.283135L0.152215 -5.31718e-06Z" fill="black"/>
</g>
<g style="mix-blend-mode:multiply" opacity="0.1" transform="translate(38.4219 78.7002)">
<path d="M0.0797312 1.3293e-06C0.13047 1.3293e-06 0.195707 0.0435593 0.217452 0.101637C0.239197 0.159715 0.217452 0.239567 0.217452 0.312164L-1.10601e-06 0.159716L0.0797312 1.3293e-06Z" fill="black"/>
</g>
<g style="mix-blend-mode:multiply" opacity="0.1" transform="translate(69.4727 17.8486)">
<path d="M0.268187 0.181489L0.0724786 0.384761C0.0450333 0.330591 0.020836 0.274838 1.76962e-06 0.21779C0.0591453 0.139925 0.124606 0.0670788 0.19571 -3.98789e-06L0.268187 0.181489Z" fill="black"/>
</g>
<g style="mix-blend-mode:multiply" opacity="0.1" transform="translate(43.2207 68.4922)">
<path d="M0.021745 3.10169e-06C0.0580264 0.065389 0.0825591 0.136644 0.0942274 0.21053C0.0942274 0.268608 0.0289943 0.326683 8.84808e-07 0.377501C0.0217459 0.254086 0.021745 0.130678 0.021745 3.10169e-06Z" fill="black"/>
</g>
<g style="mix-blend-mode:multiply" opacity="0.1" transform="translate(47.3594 65.8145)">
<path d="M0.108727 0.232307L2.21202e-07 0.101637C0.0434903 0.101637 0.0869791 1.3293e-06 0.123221 1.3293e-06C0.159463 1.3293e-06 0.195705 0.0871127 0.231947 0.130671L0.108727 0.232307Z" fill="black"/>
</g>
<g style="mix-blend-mode:multiply" opacity="0.1" transform="translate(75.5625 72.7832)">
<path d="M0.0724853 -5.31718e-06L0.115974 0.188755L-2.65442e-06 0.15971L0.0724853 -5.31718e-06Z" fill="black"/>
</g>
<g style="mix-blend-mode:multiply" opacity="0.1" transform="translate(60.7959 40.6221)">
<path d="M0.000236481 0.0871167L0.108957 3.54479e-06L0.152446 0.290388C0.108956 0.290388 0.0582224 0.290386 0.0219806 0.254087C0.00589376 0.199946 -0.00144635 0.14358 0.000236481 0.0871167Z" fill="black"/>
</g>
<g style="mix-blend-mode:multiply" opacity="0.1" transform="translate(36.9932 39.2422)">
<path d="M0.0507362 0.312171L-1.99082e-06 0.0508203L0.115974 -3.10169e-06L0.0507362 0.312171Z" fill="black"/>
</g>
<g style="mix-blend-mode:multiply" opacity="0.1" transform="translate(36.8633 62.7002)">
<path d="M0.130468 0.290391L-2.21202e-06 0.225056C0.0507362 0.152459 0.0942281 0.0725924 0.137718 -4.87408e-06L0.231945 0.15971L0.130468 0.290391Z" fill="black"/>
</g>
<g style="mix-blend-mode:multiply" opacity="0.1" transform="translate(67.002 106.688)">
<path d="M0.115975 0.196008L-8.84808e-07 0.13794L0.166708 3.54479e-06L0.115975 0.196008Z" fill="black"/>
</g>
<g style="mix-blend-mode:multiply" opacity="0.1" transform="translate(64.958 109.243)">
<path d="M0.166714 0.203267L0.0652373 0.377516C0.0299484 0.314893 0.00775562 0.245733 4.86644e-06 0.174244C4.86644e-06 0.116166 0.0579841 0.0580734 0.0942259 -4.43099e-06L0.166714 0.203267Z" fill="black"/>
</g>
<g style="mix-blend-mode:multiply" opacity="0.1" transform="translate(46.8682 41.6973)">
<path d="M0.157048 4.43099e-07C0.157048 0.065338 0.200539 0.159714 0.157048 0.181494C0.118191 0.215811 0.0704557 0.238455 0.019328 0.246829C0.019328 0.181491 -0.024162 0.0871145 0.019328 0.0653353C0.0592885 0.0327302 0.106545 0.0103138 0.157048 4.43099e-07Z" fill="black"/>
</g>
<g style="mix-blend-mode:multiply" opacity="0.1" transform="translate(66.1699 38.3174)">
<path d="M0.181212 0.214608C0.137722 0.214608 0.0652329 0.287211 0.0507362 0.265431C0.0244418 0.19786 0.00738059 0.127037 3.53923e-06 0.0548931C0.0434936 0.0548931 0.115972 -0.0176984 0.130469 0.00408075C0.156132 0.0718485 0.173184 0.142577 0.181212 0.214608Z" fill="black"/>
</g>
<g style="mix-blend-mode:multiply" opacity="0.1" transform="translate(62.7607 18.9404)">
<path d="M0.182385 0.223225C0.138895 0.223225 0.0736655 0.29582 0.0519204 0.266781C0.0301754 0.237742 0.0156734 0.136107 0.00117668 0.0635098C-0.01332 -0.00908749 0.109908 -0.0090928 0.131653 0.0126864C0.160272 0.0795046 0.17742 0.150688 0.182385 0.223225Z" fill="black"/>
</g>
<g style="mix-blend-mode:multiply" opacity="0.1" transform="translate(58.4844 13.4941)">
<path d="M0.166708 0.188756L0.072487 0.355727C0.0381265 0.297229 0.0136321 0.23346 -8.84808e-07 0.166978C-8.84808e-07 0.1089 0.0579824 0.0580738 0.0869758 -3.98789e-06L0.166708 0.188756Z" fill="black"/>
</g>
<g style="mix-blend-mode:multiply" opacity="0.1" transform="translate(122.133 52.6943)">
<path d="M-2.65442e-06 2.10532L1.26846 -3.98789e-06C1.39893 0.181489 1.67437 0.42106 1.65262 0.544476C1.52752 1.28133 1.35317 2.00894 1.13074 2.72239C1.05825 2.94745 0.732084 3.23058 0.637856 3.15798C0.377639 2.83834 0.162969 2.48408 -2.65442e-06 2.10532Z" fill="black"/>
</g>
<g style="mix-blend-mode:multiply" opacity="0.1" transform="translate(86.3564 21.2754)">
<path d="M0.752503 -3.10169e-06C0.904719 0.326685 1.06418 0.508178 1.05693 0.72597C1.05431 1.1428 0.998287 1.55758 0.890224 1.96012C0.72059 2.45427 0.524593 2.93895 0.303098 3.41207C0.216118 3.31043 0.0566609 3.22332 0.0494126 3.11443C-0.0164679 2.49183 -0.0164679 1.86401 0.0494126 1.24142C0.205658 0.787871 0.444001 0.367037 0.752503 -3.10169e-06Z" fill="black"/>
</g>
<g style="mix-blend-mode:multiply" opacity="0.1" transform="translate(206.119 75.1719)">
<path d="M-6.19366e-06 0.529612C0.434895 0.268262 0.724835 -0.0511669 0.935037 0.00691096C1.5149 0.152106 1.74685 0.856301 1.65987 1.67665C1.57399 2.00375 1.43173 2.31331 1.23948 2.59137L-6.19366e-06 0.529612Z" fill="black"/>
</g>
<g style="mix-blend-mode:multiply" opacity="0.1" transform="translate(73.084 12.4531)">
<path d="M-1.32721e-06 0.799502C0.268188 0.436516 0.442151 0.022718 0.637857 0.000938822C0.833562 -0.0208404 1.05826 0.34215 1.26846 0.538163L0.753833 1.61986L-1.32721e-06 0.799502Z" fill="black"/>
</g>
<g style="mix-blend-mode:multiply" opacity="0.1" transform="translate(116.864 22.3291)">
<path d="M0.514632 -5.31718e-06C0.740364 0.378767 0.936647 0.774384 1.10175 1.18333C1.01748 1.39031 0.888811 1.57619 0.72484 1.72781C0.465849 1.39678 0.223922 1.05271 5.30885e-06 0.696934L0.514632 -5.31718e-06Z" fill="black"/>
</g>
<g style="mix-blend-mode:multiply" opacity="0.1" transform="translate(121.228 72.4854)">
<path d="M0.297182 1.69888C0.136017 1.36864 0.0353566 1.01209 -2.65442e-06 0.646222C-2.65442e-06 0.370352 0.355174 -0.00715348 0.550879 0.000106246C0.746584 0.00736597 1.05826 0.377608 1.09451 0.653477C1.06051 1.01873 0.962352 1.37509 0.804564 1.70614L0.297182 1.69888Z" fill="black"/>
</g>
<g style="mix-blend-mode:multiply" opacity="0.1" transform="translate(89.9141 20.1982)">
<path d="M-4.42404e-07 0.359949C0.26094 0.229274 0.550875 -0.0611227 0.782822 0.0114746C1.01477 0.0840718 1.18873 0.526921 1.25396 0.868128C1.2902 1.04236 1.01476 1.5941 0.913287 1.5941C0.695837 1.5941 0.492883 1.26741 0.289929 1.07866L-4.42404e-07 0.359949Z" fill="black"/>
</g>
<g style="mix-blend-mode:multiply" opacity="0.1" transform="translate(197.596 54.8232)">
<path d="M0.492891 1.85849C0.283299 1.51783 0.117687 1.15192 8.84808e-06 0.769531C8.84808e-06 0.558999 0.152207 0.261352 0.231939 1.77239e-06C0.475172 0.267546 0.686791 0.562298 0.862564 0.878423C0.906054 0.980059 0.681348 1.36483 0.492891 1.85849Z" fill="black"/>
</g>
<g style="mix-blend-mode:multiply" opacity="0.1" transform="translate(132.958 92.4492)">
<path d="M0.677122 3.10169e-06C0.795873 0.388222 0.85693 0.791827 0.858331 1.19785C0.68777 1.53333 0.478558 1.84765 0.234972 2.13436C0.155241 1.86575 -0.0477224 1.53181 0.0102644 1.35031C0.188342 0.879634 0.411685 0.427404 0.677122 3.10169e-06Z" fill="black"/>
</g>
<g style="mix-blend-mode:multiply" opacity="0.1" transform="translate(114.949 36.1279)">
<path d="M0.465278 1.77239e-06C0.62784 0.418273 0.739773 0.854541 0.798696 1.29949C0.798696 1.51728 0.530512 1.73507 0.385545 1.9456C0.211909 1.64388 0.0825185 1.3187 0.00137269 0.980058C-0.0203724 0.769526 0.218834 0.493663 0.465278 1.77239e-06Z" fill="black"/>
</g>
<g style="mix-blend-mode:multiply" opacity="0.1" transform="translate(133.121 62.5244)">
<path d="M0 0.850292C0.347921 0.429228 0.536378 0.0226845 0.724835 0.000905329C0.913292 -0.0208739 1.13074 0.356628 1.33369 0.552641C1.13074 0.799471 0.956782 1.14794 0.724835 1.27861C0.492888 1.40929 0.398659 1.0826 0 0.850292Z" fill="black"/>
</g>
<g style="mix-blend-mode:multiply" opacity="0.1" transform="translate(209.506 75.3906)">
<path d="M3.53923e-06 0.725976C0.297186 0.370249 0.543627 3.10169e-06 0.608862 3.10169e-06C0.856514 0.279521 1.07509 0.58358 1.26121 0.907469C1.08725 1.06718 0.898791 1.36483 0.739327 1.33579C0.579864 1.30675 0.333428 1.03088 3.53923e-06 0.725976Z" fill="black"/>
</g>
<g style="mix-blend-mode:multiply" opacity="0.1" transform="translate(110.558 92.0586)">
<path d="M-3.53923e-06 1.03088L0.601611 -3.10169e-06C0.732081 0.217789 1.00752 0.493662 0.978528 0.638856C0.890244 0.980639 0.735019 1.30144 0.521878 1.58262C0.521878 1.58262 0.231944 1.27771 -3.53923e-06 1.03088Z" fill="black"/>
</g>
<g style="mix-blend-mode:multiply" opacity="0.1" transform="translate(207.461 39.957)">
<path d="M-1.76962e-06 0.513964C0.12322 0.339731 0.231952 0.0420803 0.369671 0.0130414C0.619065 -0.0250749 0.874036 0.0208976 1.09451 0.143722C1.15249 0.143722 1.0945 0.593827 1.13074 0.826138C0.890121 0.853384 0.648035 0.865499 0.405904 0.862428C0.297179 0.862428 0.195707 0.739017 0.0942303 0.673679L-1.76962e-06 0.513964Z" fill="black"/>
</g>
<g style="mix-blend-mode:multiply" opacity="0.1" transform="translate(73.5908 9.31641)">
<path d="M-3.53923e-06 0.351295C0.442146 0.155282 0.666843 -0.0479909 0.848052 0.0100869C0.957859 0.0718273 1.05257 0.15728 1.12528 0.260249C1.198 0.363219 1.24691 0.481115 1.26846 0.605379C1.24972 0.884023 1.18097 1.157 1.0655 1.41121L-3.53923e-06 0.351295Z" fill="black"/>
</g>
<g style="mix-blend-mode:multiply" opacity="0.1" transform="translate(73.1406 90.0898)">
<path d="M0 0.348417C0.507384 0.159664 0.775571 -0.0726453 0.971276 0.0217311C1.16698 0.116108 1.31195 0.52991 1.47866 0.791261C1.25396 0.921936 1.02201 1.18329 0.811811 1.15425C0.601609 1.12521 0.420404 0.79126 0 0.348417Z" fill="black"/>
</g>
<g style="mix-blend-mode:multiply" opacity="0.1" transform="translate(77.1631 21.3047)">
<path d="M0.623556 0.428324L0.297383 1.35757C0.188658 1.20511 -0.0070503 1.03814 0.000198048 0.914725C0.0516174 0.603086 0.131691 0.296878 0.239395 3.10169e-06L0.623556 0.428324Z" fill="black"/>
</g>
<g style="mix-blend-mode:multiply" opacity="0.1" transform="translate(222.624 17.0576)">
<path d="M7.96327e-06 0.572204C0.29719 0.289075 0.45665 0.0640132 0.630611 0.00593538C0.804571 -0.0521424 0.949541 0.332628 0.927796 0.419745C0.869809 0.688355 0.746571 1.03682 0.594356 1.10942C0.44214 1.18201 0.289942 0.848074 7.96327e-06 0.572204Z" fill="black"/>
</g>
<g style="mix-blend-mode:multiply" opacity="0.1" transform="translate(116.183 100.489)">
<path d="M0.268189 1.20238C0.149679 0.921795 0.0598288 0.629921 3.53923e-06 0.331215C3.53923e-06 0.244098 0.289931 -0.0390293 0.333421 0.00452904C0.50155 0.192958 0.621017 0.419778 0.68135 0.665156C0.717592 0.694195 0.485639 0.911991 0.268189 1.20238Z" fill="black"/>
</g>
<g style="mix-blend-mode:multiply" opacity="0.1" transform="translate(171 50.3896)">
<path d="M1.1027 0.796401C0.733038 1.05049 0.530086 1.30459 0.334381 1.29007C0.138675 1.27555 -0.0135338 0.883526 0.000962895 0.680254C0.028762 0.417983 0.155863 0.176354 0.356125 0.00509355C0.435857 -0.0457245 0.63881 0.28822 1.1027 0.796401Z" fill="black"/>
</g>
<g style="mix-blend-mode:multiply" opacity="0.1" transform="translate(161.144 12.6953)">
<path d="M2.65442e-06 0.522844C0.159466 0.268754 0.260951 -0.00711681 0.347931 0.000142918C0.434912 0.00740265 0.579864 0.23971 0.695838 0.370385C0.630603 0.4938 0.572609 0.711589 0.507374 0.718849C0.442139 0.726109 0.246447 0.62448 2.65442e-06 0.522844Z" fill="black"/>
</g>
<g style="mix-blend-mode:multiply" opacity="0.1" transform="translate(113.196 47.8604)">
<path d="M-3.98164e-06 0.181498L0.485634 4.43099e-06C0.529124 0.290394 0.579864 0.573521 0.623354 0.87117C0.478387 0.87117 0.282685 1.0091 0.195705 0.914726C0.0902744 0.682894 0.0241311 0.435096 -3.98164e-06 0.181498Z" fill="black"/>
</g>
<g style="mix-blend-mode:multiply" opacity="0.1" transform="translate(193.818 16.4023)">
<path d="M-7.07846e-06 0.307042C0.18845 0.176366 0.391408 -0.0486878 0.434898 0.00939006C0.558554 0.238827 0.653509 0.482657 0.717594 0.735363C0.579876 0.80796 0.420407 0.967674 0.304433 0.916856C0.18846 0.866038 0.123215 0.561132 -7.07846e-06 0.307042Z" fill="black"/>
</g>
<g style="mix-blend-mode:multiply" opacity="0.1" transform="translate(77.7373 56.5205)">
<path d="M-2.65442e-06 0.37902C0.202951 0.197527 0.340673 -0.0202681 0.456647 0.00151104C0.57262 0.0232902 0.652348 0.291897 0.746576 0.451611C0.630603 0.596805 0.507381 0.836378 0.384159 0.850898C0.260937 0.865417 0.166709 0.596812 -2.65442e-06 0.37902Z" fill="black"/>
</g>
<g style="mix-blend-mode:multiply" opacity="0.1" transform="translate(190.556 78.002)">
<path d="M-7.07846e-06 0.400669C0.173953 0.219176 0.297173 -0.0203975 0.405899 0.00138169C0.514624 0.0231609 0.65235 0.26273 0.775571 0.407925C0.674095 0.567639 0.565382 0.865291 0.471153 0.865291C0.376925 0.865291 0.210195 0.611201 -7.07846e-06 0.400669Z" fill="black"/>
</g>
<g style="mix-blend-mode:multiply" opacity="0.1" transform="translate(172.9 30.3223)">
<path d="M3.53923e-06 0.580782C0.0329137 0.382177 0.0863566 0.187535 0.159468 1.77239e-06C0.415183 0.0203398 0.669364 0.0567053 0.920536 0.108893C0.869797 0.268607 0.833562 0.544481 0.768327 0.56626C0.513513 0.599147 0.255874 0.604019 3.53923e-06 0.580782Z" fill="black"/>
</g>
<g style="mix-blend-mode:multiply" opacity="0.1" transform="translate(177.663 79.4258)">
<path d="M8.84808e-06 0.537225L0.398659 1.3293e-06C0.492888 0.166975 0.6741 0.348466 0.6741 0.50818C0.665297 0.60486 0.634619 0.69826 0.584381 0.781284C0.534142 0.864307 0.46567 0.934773 0.384171 0.987325C0.282694 1.0091 0.152224 0.733238 8.84808e-06 0.537225Z" fill="black"/>
</g>
<g style="mix-blend-mode:multiply" opacity="0.1" transform="translate(147.17 88.8701)">
<path d="M0.2537 -2.65859e-06C0.471151 0.413802 0.659607 0.631594 0.637862 0.72597C0.616117 0.820347 0.42041 1.14704 0.297189 1.16156C0.173967 1.17608 3.53923e-06 0.892944 3.53923e-06 0.72597C0.0466302 0.47231 0.132213 0.227415 0.2537 -2.65859e-06Z" fill="black"/>
</g>
<g style="mix-blend-mode:multiply" opacity="0.1" transform="translate(93.9795 106.449)">
<path d="M0 0.51275C0.246444 0.23688 0.398659 -0.0389985 0.463894 0.00455987C0.638537 0.164785 0.787649 0.350863 0.906044 0.556306C0.79007 0.694241 0.674092 0.948331 0.572615 0.941071C0.471138 0.933811 0.239195 0.723282 0 0.51275Z" fill="black"/>
</g>
<g style="mix-blend-mode:multiply" opacity="0.1" transform="translate(117.363 94.5322)">
<path d="M-3.98164e-06 0.566748C0.239192 0.305398 0.37691 0.065824 0.543622 0.00774622C0.710334 -0.0503316 0.775573 0.232802 0.898795 0.363477C0.797836 0.584299 0.666052 0.789623 0.507389 0.973291C0.434906 1.03137 0.253688 0.7918 -3.98164e-06 0.566748Z" fill="black"/>
</g>
<g style="mix-blend-mode:multiply" opacity="0.1" transform="translate(217.891 52.6943)">
<path d="M0.449403 -3.98789e-06L0.855309 0.486396C0.668148 0.69372 0.464531 0.885526 0.24645 1.05992C0.129572 0.923424 0.0452925 0.762048 8.84808e-06 0.588043C0.126594 0.37528 0.277398 0.177939 0.449403 -3.98789e-06Z" fill="black"/>
</g>
<g style="mix-blend-mode:multiply" opacity="0.1" transform="translate(81.3906 89.249)">
<path d="M0.601618 0.718718L0.181212 1.01636C0.08885 0.803685 0.0278103 0.578707 3.53923e-06 0.348464C3.53923e-06 0.225049 0.210207 0.108896 0.318933 4.43099e-07L0.601618 0.718718Z" fill="black"/>
</g>
<g style="mix-blend-mode:multiply" opacity="0.1" transform="translate(85.9502 8.84375)">
<path d="M0.194405 0.982487C0.107425 0.706618 -0.0303006 0.459787 0.00594117 0.336372C0.0421829 0.212957 0.252385 -0.0266194 0.368359 0.00241955C0.484332 0.0314585 0.614808 0.358151 0.600311 0.517865C0.585814 0.677579 0.375614 0.786475 0.194405 0.982487Z" fill="black"/>
</g>
<g style="mix-blend-mode:multiply" opacity="0.1" transform="translate(93.9482 92.3262)">
<path d="M0.226701 4.43099e-06C0.349405 0.226885 0.435047 0.471977 0.480387 0.725977C0.480387 0.849393 0.284687 0.980062 0.168713 1.03814C0.0527394 1.09622 -0.0124927 0.805835 0.00200403 0.704199C0.0493119 0.461516 0.124719 0.225187 0.226701 4.43099e-06Z" fill="black"/>
</g>
<g style="mix-blend-mode:multiply" opacity="0.1" transform="translate(105.859 70.8379)">
<path d="M0.174136 0L0.478565 0.304907C0.402996 0.479939 0.315821 0.64971 0.217624 0.813086C0.217624 0.813086 -0.00707712 0.631595 0.000171224 0.566258C0.0387314 0.372059 0.0970255 0.182319 0.174136 0Z" fill="black"/>
</g>
<g style="mix-blend-mode:multiply" opacity="0.1" transform="translate(196.43 101.451)">
<path d="M0.268183 0.966096L-2.65442e-06 0.240123C0.123219 0.153006 0.246433 0.0150702 0.376904 0.000550758C0.507374 -0.0139687 0.579864 0.261905 0.565368 0.356281C0.493342 0.571688 0.393427 0.776705 0.268183 0.966096Z" fill="black"/>
</g>
<g style="mix-blend-mode:multiply" opacity="0.1" transform="translate(209.373 38.1396)">
<path d="M0.297172 4.87408e-06L0.565379 0.544484L0.202962 0.856647C0.122207 0.66542 0.0544032 0.468965 8.84808e-06 0.268611C8.84808e-06 0.268611 0.159453 0.116161 0.297172 4.87408e-06Z" fill="black"/>
</g>
<g style="mix-blend-mode:multiply" opacity="0.1" transform="translate(109.637 105.756)">
<path d="M0.69584 0.459391C0.456644 0.604586 0.30443 0.786061 0.210202 0.735242C0.115973 0.684424 0.0652396 0.401301 4.42404e-06 0.219808C0.094233 0.139951 0.202951 -0.0197542 0.275434 0.00202502C0.347918 0.0238042 0.492886 0.23434 0.69584 0.459391Z" fill="black"/>
</g>
<g style="mix-blend-mode:multiply" opacity="0.1" transform="translate(194.906 62.1689)">
<path d="M-7.07847e-06 0.457365C0.0807115 0.293713 0.180467 0.14019 0.297178 -1.77239e-06C0.297178 -1.77239e-06 0.52189 0.210532 0.514642 0.239571C0.45262 0.421428 0.377526 0.598542 0.289945 0.769528L-7.07847e-06 0.457365Z" fill="black"/>
</g>
<g style="mix-blend-mode:multiply" opacity="0.1" transform="translate(113.065 43.0391)">
<path d="M0.217637 4.87408e-06C0.355356 0.283134 0.514819 0.471881 0.500322 0.595297C0.449935 0.768404 0.345849 0.920964 0.203137 1.03088C0.203137 1.03088 -0.00706378 0.827613 0.000184566 0.747756C0.0488242 0.492162 0.121638 0.241783 0.217637 4.87408e-06Z" fill="black"/>
</g>
<g style="mix-blend-mode:multiply" opacity="0.1" transform="translate(186.374 56.1729)">
<path d="M0.384162 0.892946L8.84808e-07 0.435579C0.0790873 0.27768 0.179049 0.131175 0.297186 2.21549e-06C0.340676 2.21549e-06 0.536387 0.145199 0.529138 0.217796C0.502838 0.447032 0.454277 0.673148 0.384162 0.892946Z" fill="black"/>
</g>
<g style="mix-blend-mode:multiply" opacity="0.1" transform="translate(120.647 38.7422)">
<path d="M-4.86645e-06 0.327373C0.224694 0.1604 0.38416 -0.0428746 0.478389 0.0079435C0.572617 0.0587616 0.623358 0.36367 0.695841 0.552423C0.601613 0.62502 0.492884 0.784733 0.420401 0.755695C0.347917 0.726656 0.188452 0.516126 -4.86645e-06 0.327373Z" fill="black"/>
</g>
<g style="mix-blend-mode:multiply" opacity="0.1" transform="translate(114.92 86.9443)">
<path d="M0.463893 0.227343L0.297185 0.62663L-4.42404e-07 0.299944C0.072483 0.191049 0.144965 0.0240721 0.224697 0.00229295C0.304428 -0.0194862 0.384162 0.118447 0.463893 0.227343Z" fill="black"/>
</g>
<g style="mix-blend-mode:multiply" opacity="0.1" transform="translate(106.259 18.2764)">
<path d="M0.20326 0.653376C0.11628 0.5227 -0.00694089 0.406544 0.000307456 0.312167C0.00755581 0.217791 0.123532 0.101641 0.196016 4.43099e-06C0.261251 0.1089 0.377225 0.210534 0.377225 0.32669C0.377225 0.442846 0.261247 0.566259 0.20326 0.653376Z" fill="black"/>
</g>
<g style="mix-blend-mode:multiply" opacity="0.1" transform="translate(89.834 23.4736)">
<path d="M-8.84808e-07 0.0742301C0.0507376 0.0742301 0.101474 -0.0128911 0.144964 0.00162838C0.188454 0.0161478 0.210203 0.110532 0.239196 0.16861L0.0144989 0.292024C0.0144989 0.219427 0.00724746 0.146827 -8.84808e-07 0.0742301Z" fill="black"/>
</g>
<g style="mix-blend-mode:multiply" opacity="0.1" transform="translate(142.397 32.6875)">
<path d="M0.146741 0.326683C0.0960028 0.326683 0.0380142 0.27587 0.00902081 0.217792C-0.0030093 0.145695 -0.0030093 0.0720951 0.00902081 -2.21549e-06L0.226462 0.14519L0.146741 0.326683Z" fill="black"/>
</g>
<g style="mix-blend-mode:multiply" opacity="0.1" transform="translate(149.4 34.0059)">
<path d="M-6.19366e-06 0.358407C0.0362356 0.234992 0.0579833 0.024467 0.11597 0.00268783C0.173957 -0.0190914 0.289927 0.0970581 0.384155 0.155136C0.347914 0.278551 0.318918 0.496343 0.268179 0.518122C0.217441 0.539901 0.086974 0.416485 -6.19366e-06 0.358407Z" fill="black"/>
</g>
<g style="mix-blend-mode:multiply" opacity="0.1" transform="translate(177.402 34.5518)">
<path d="M-2.65442e-06 0.351315C-2.65442e-06 0.2279 0.0579868 0.0246303 0.115974 0.00285113C0.17396 -0.0189281 0.28269 0.0899626 0.36967 0.133521C0.333428 0.256936 0.304425 0.452953 0.246439 0.489252C0.188452 0.52555 0.0869775 0.416653 -2.65442e-06 0.351315Z" fill="black"/>
</g>
<g style="mix-blend-mode:multiply" opacity="0.1" transform="translate(104.288 35.7305)">
<path d="M0.16671 1.16882C0.0709757 0.912649 0.0147633 0.643366 8.84808e-07 0.370242C0.0585913 0.207945 0.178259 0.0750582 0.333419 -4.43099e-07C0.384157 -4.43099e-07 0.55812 0.188751 0.550871 0.225049C0.443012 0.547509 0.314697 0.862742 0.16671 1.16882Z" fill="black"/>
</g>
<g style="mix-blend-mode:multiply" opacity="0.1" transform="translate(213.983 32.1738)">
<path d="M0.362416 0.346957C0.289932 0.412294 0.181216 0.550233 0.144974 0.521194C0.108732 0.492155 0.0507367 0.296135 -1.76962e-06 0.172719C0.0724817 0.114641 0.173965 -0.0305501 0.210207 0.00574858C0.280456 0.109705 0.331968 0.225188 0.362416 0.346957Z" fill="black"/>
</g>
<g style="mix-blend-mode:multiply" opacity="0.1" transform="translate(160.784 92.7695)">
<path d="M0.250148 0.609819C0.163168 0.544482 0.0254521 0.508184 0.00370708 0.406548C-0.018038 0.304912 0.0616753 0.13794 0.097917 4.87408e-06C0.184897 0.0653424 0.315387 0.10164 0.34438 0.203276C0.339618 0.343633 0.30761 0.481716 0.250148 0.609819Z" fill="black"/>
</g>
<g style="mix-blend-mode:multiply" opacity="0.1" transform="translate(142.972 94.6074)">
<path d="M0.297182 3.98789e-06L0.405903 0.39928C0.311675 0.457358 0.202961 0.580782 0.123229 0.544484C0.0434972 0.508185 0.0362391 0.290394 -2.65442e-06 0.159719L0.297182 3.98789e-06Z" fill="black"/>
</g>
<g style="mix-blend-mode:multiply" opacity="0.1" transform="translate(169.16 98.9824)">
<path d="M8.84808e-07 0.283132L0.224698 3.10169e-06L0.449395 0.486404C0.355166 0.537222 0.246446 0.653372 0.159465 0.617073C0.0724853 0.580775 0.0579877 0.406547 8.84808e-07 0.283132Z" fill="black"/>
</g>
<g style="mix-blend-mode:multiply" opacity="0.1" transform="translate(165.912 109.69)">
<path d="M0.115969 0.428559L-7.07847e-06 0.297889C0.0507314 0.203513 0.101471 0.101873 0.159457 0.0220161C0.217444 -0.0578409 0.231937 0.101883 0.268178 0.145441L0.115969 0.428559Z" fill="black"/>
</g>
<g style="mix-blend-mode:multiply" opacity="0.1" transform="translate(219.173 70.083)">
<path d="M0.202954 0.588041L8.84808e-07 0.297645L0.202954 4.87408e-06L0.398651 0.312168L0.202954 0.588041Z" fill="black"/>
</g>
<g style="mix-blend-mode:multiply" opacity="0.1" transform="translate(207.391 71.9482)">
<path d="M0.242884 0.58078C0.155904 0.515442 0.0254433 0.47914 0.00369823 0.384764C-0.0180468 0.290387 0.0616886 0.130674 0.0979303 -8.86197e-07C0.18491 0.0653367 0.308123 0.101634 0.337116 0.203271C0.366109 0.304907 0.279126 0.450104 0.242884 0.58078Z" fill="black"/>
</g>
<g style="mix-blend-mode:multiply" opacity="0.1" transform="translate(190.426 78.3594)">
<path d="M0.00725366 4.43099e-07L0.268184 0.0580796C0.272284 0.128197 0.272284 0.19849 0.268184 0.268607C0.177556 0.26312 0.0877123 0.248529 -1.76962e-06 0.22505L0.00725366 4.43099e-07Z" fill="black"/>
</g>
<g style="mix-blend-mode:multiply" opacity="0.1" transform="translate(135.521 50.2627)">
<path d="M-1.76962e-06 0.450102C0.0258232 0.295487 0.0696164 0.144431 0.130474 2.65859e-06C0.272641 0.0301568 0.409472 0.0815431 0.53638 0.152451C0.53638 0.283126 0.478387 0.515444 0.427648 0.522704C0.281993 0.523276 0.13733 0.498714 -1.76962e-06 0.450102Z" fill="black"/>
</g>
<g style="mix-blend-mode:multiply" opacity="0.1" transform="translate(97.1758 55.6289)">
<path d="M2.65442e-06 0.217796L0.260944 2.21549e-06L0.405908 0.551738C0.31168 0.551738 0.18121 0.689669 0.123223 0.638851C0.0652365 0.588033 0.0362444 0.326692 2.65442e-06 0.217796Z" fill="black"/>
</g>
<g style="mix-blend-mode:multiply" opacity="0.1" transform="translate(92.168 58.2715)">
<path d="M0 0.391976C0.0362417 0.254041 0.0579855 0.0725557 0.123221 0.0144779C0.188456 -0.0436 0.347925 0.0870729 0.355173 0.15967C0.346782 0.297181 0.314907 0.432235 0.260941 0.558957L0 0.391976Z" fill="black"/>
</g>
<g style="mix-blend-mode:multiply" opacity="0.1" transform="translate(115.044 59.6582)">
<path d="M-1.76962e-06 0.392025C0.0820892 0.249276 0.181952 0.117552 0.297183 4.43099e-06C0.297183 4.43099e-06 0.500133 0.225052 0.485636 0.290389C0.430774 0.465673 0.355349 0.633823 0.260939 0.791312L-1.76962e-06 0.392025Z" fill="black"/>
</g>
<g style="mix-blend-mode:multiply" opacity="0.1" transform="translate(119.531 67.3516)">
<path d="M0 0.218759C0.0797318 0.138902 0.173958 -0.0135541 0.246441 0.000965379C0.318925 0.0154848 0.362419 0.211495 0.420406 0.327651C0.340674 0.407508 0.246444 0.574491 0.181209 0.552712C0.115974 0.530933 0.0652351 0.305876 0 0.218759Z" fill="black"/>
</g>
<g style="mix-blend-mode:multiply" opacity="0.1" transform="translate(162.1 67.6436)">
<path d="M0.115984 0.399281L7.96327e-06 0.275867C0.0476929 0.180846 0.100941 0.0887361 0.159473 4.43099e-06C0.159473 4.43099e-06 0.231952 0.0726004 0.268193 0.123418L0.115984 0.399281Z" fill="black"/>
</g>
<g style="mix-blend-mode:multiply" opacity="0.1" transform="translate(74.043 77.3057)">
<path d="M0.258612 2.65859e-06C0.258612 0.137937 0.374586 0.312166 0.338345 0.392023C0.302103 0.47188 0.171628 0.522705 0.0846481 0.580783C0.0846481 0.442848 -0.0240776 0.268609 0.00491583 0.188752C0.0339092 0.108895 0.164384 0.0580805 0.258612 2.65859e-06Z" fill="black"/>
</g>
<g style="mix-blend-mode:multiply" opacity="0.1" transform="translate(218.827 77.7119)">
<path d="M-7.07846e-06 0.421066L0.159457 8.86197e-07L0.449387 0.4138C0.369655 0.522696 0.297188 0.704198 0.217457 0.718718C0.137725 0.733237 0.0652281 0.529962 -7.07846e-06 0.421066Z" fill="black"/>
</g>
<g style="mix-blend-mode:multiply" opacity="0.1" transform="translate(107.47 83.4834)">
<path d="M4.42404e-07 0.217793L0.195709 -1.3293e-06C0.226147 0.0527069 0.250459 0.108726 0.268186 0.166969C0.210061 0.248111 0.147133 0.325692 0.0797327 0.399286L4.42404e-07 0.217793Z" fill="black"/>
</g>
<g style="mix-blend-mode:multiply" opacity="0.1" transform="translate(206.062 89.6553)">
<path d="M3.53923e-06 0.181492L0.0869802 -1.3293e-06C0.155451 0.0828836 0.218413 0.170189 0.275444 0.261349C0.256672 0.322701 0.22985 0.381293 0.195701 0.435587L3.53923e-06 0.181492Z" fill="black"/>
</g>
<g style="mix-blend-mode:multiply" opacity="0.1" transform="translate(216.963 92.2031)">
<path d="M0.239196 0.573519C0.152215 0.515442 0.0145064 0.479143 9.73289e-06 0.392026C0.00694699 0.25664 0.0388783 0.12371 0.0942197 -5.31718e-06C0.1812 0.0580725 0.311683 0.0943782 0.333428 0.188755C0.355173 0.283131 0.239196 0.442844 0.239196 0.573519Z" fill="black"/>
</g>
<g style="mix-blend-mode:multiply" opacity="0.1" transform="translate(104.505 107.106)">
<path d="M0.108724 0.471872C0.0666352 0.425502 0.0301468 0.374338 3.09683e-06 0.319424C0.0507415 0.203268 0.108725 0.10889 0.166712 -6.20338e-06C0.206234 0.0458388 0.242557 0.0943603 0.275433 0.145197C0.217446 0.261353 0.166711 0.392015 0.108724 0.471872Z" fill="black"/>
</g>
<g style="mix-blend-mode:multiply" opacity="0.1" transform="translate(125.031 12.4697)">
<path d="M0.00725277 4.43099e-06L0.275438 0.043561C0.282335 0.115994 0.282335 0.188922 0.275438 0.261355C0.188706 0.27066 0.101229 0.27066 0.0144971 0.261355C-0.00724791 0.145199 4.42431e-06 0.0726017 0.00725277 4.43099e-06Z" fill="black"/>
</g>
<g style="mix-blend-mode:multiply" opacity="0.1" transform="translate(100.127 100.799)">
<path d="M-3.09683e-06 0.00728553C0.0891301 -0.00242969 0.17906 -0.00242969 0.268193 0.00728553C0.287263 0.0786265 0.287263 0.153739 0.268193 0.22508C0.268193 0.283157 0.159465 0.363013 0.152217 0.348494C0.0936098 0.238446 0.0427428 0.124432 -3.09683e-06 0.00728553Z" fill="black"/>
</g>
<g style="mix-blend-mode:multiply" opacity="0.1" transform="translate(119.35 13.4941)">
<path d="M0 -3.96148e-06L0.122638 0.0576906L0.0288515 0.144238L0 -3.96148e-06Z" fill="black"/>
</g>
<g style="mix-blend-mode:multiply" opacity="0.1" transform="translate(137.572 13.9434)">
<path d="M-4.42404e-07 0.210531C0.0677269 0.135587 0.140374 0.0652585 0.217452 3.54479e-06C0.250938 0.0531956 0.280025 0.109036 0.304429 0.166974C0.237508 0.244937 0.164817 0.317743 0.0869762 0.384768C0.0531329 0.329249 0.0240395 0.27096 -4.42404e-07 0.210531Z" fill="black"/>
</g>
<g style="mix-blend-mode:multiply" opacity="0.1" transform="translate(124.321 16.9131)">
<path d="M4.42404e-07 0.232306C0.0724839 0.152449 0.152214 8.86197e-07 0.224697 8.86197e-07C0.297181 8.86197e-07 0.369671 0.166975 0.434906 0.261352C0.355174 0.348468 0.275437 0.500917 0.202953 0.493657C0.13047 0.486397 0.0652356 0.333943 4.42404e-07 0.232306Z" fill="black"/>
</g>
<g style="mix-blend-mode:multiply" opacity="0.1" transform="translate(169.718 18.0742)">
<path d="M0.10148 5.31718e-06L0.289945 0.239567C0.233152 0.321719 0.170141 0.399389 0.10148 0.471883C0.10148 0.471883 -7.07847e-06 0.377508 -7.07847e-06 0.348469C0.0262043 0.230224 0.0601127 0.113823 0.10148 5.31718e-06Z" fill="black"/>
</g>
<g style="mix-blend-mode:multiply" opacity="0.1" transform="translate(182.243 107.085)">
<path d="M-7.96327e-06 0.152465L0.108735 -5.31718e-06L0.2102 0.297646C0.159462 0.297646 0.101481 0.377516 0.0579912 0.355736C0.0145011 0.333957 0.0144887 0.225062 -7.96327e-06 0.152465Z" fill="black"/>
</g>
<g style="mix-blend-mode:multiply" opacity="0.1" transform="translate(82.165 60.7529)">
<path d="M0.137718 4.43099e-07L0.289938 0.290385C0.246448 0.333943 0.181203 0.413807 0.166707 0.399288C0.104993 0.306161 0.0493115 0.209159 -2.21202e-06 0.108892L0.137718 4.43099e-07Z" fill="black"/>
</g>
<g style="mix-blend-mode:multiply" opacity="0.1" transform="translate(95.9805 63.6582)">
<path d="M-3.98164e-06 0.181494L0.0942281 4.43099e-07L0.297181 0.246829C0.271949 0.302036 0.242887 0.355406 0.210204 0.406543C0.135814 0.335697 0.0656202 0.260553 -3.98164e-06 0.181494Z" fill="black"/>
</g>
<g style="mix-blend-mode:multiply" opacity="0.1" transform="translate(100.133 64.7178)">
<path d="M0.25369 0.479139L3.98164e-06 0.304913C0.053537 0.199335 0.114076 0.0974722 0.181213 5.31718e-06C0.181213 5.31718e-06 0.311678 0.0653353 0.311678 0.0943743C0.30021 0.223695 0.280843 0.35219 0.25369 0.479139Z" fill="black"/>
</g>
<g style="mix-blend-mode:multiply" opacity="0.1" transform="translate(145.161 66.6064)">
<path d="M0.224709 0.239571C0.181218 0.239571 0.12323 0.326685 0.0869881 0.304906C0.0507464 0.283127 0.0289828 0.18875 -1.06177e-05 0.123413L0.217453 -1.3293e-06C0.224701 0.0653362 0.224709 0.145195 0.224709 0.239571Z" fill="black"/>
</g>
<g style="mix-blend-mode:multiply" opacity="0.1" transform="translate(98.1035 67.8828)">
<path d="M1.76962e-06 0.217789L0.0507345 -5.31718e-06L0.326175 0.130676C0.326175 0.203273 0.282687 0.34847 0.282687 0.34847C0.185462 0.311732 0.0909918 0.268056 1.76962e-06 0.217789Z" fill="black"/>
</g>
<g style="mix-blend-mode:multiply" opacity="0.1" transform="translate(75.6484 72.0205)">
<path d="M4.86645e-06 0.196008L0.0869815 3.54479e-06C0.160133 0.0852349 0.227914 0.174942 0.289934 0.26861C0.270332 0.33426 0.243594 0.397552 0.210202 0.457359L4.86645e-06 0.196008Z" fill="black"/>
</g>
<g style="mix-blend-mode:multiply" opacity="0.1" transform="translate(106.607 23.0479)">
<path d="M-1.32721e-06 0.239571C0.0797305 0.152454 0.159464 -1.3293e-06 0.239196 -1.3293e-06C0.318927 -1.3293e-06 0.384165 0.166969 0.456648 0.268605C0.376916 0.355722 0.297183 0.508181 0.217451 0.500922C0.13772 0.493662 0.0724822 0.370246 -1.32721e-06 0.239571Z" fill="black"/>
</g>
<g style="mix-blend-mode:multiply" opacity="0.1" transform="translate(166.348 23.0615)">
<path d="M0.246439 1.77239e-06L0.478391 0.297653C0.391411 0.38477 0.304426 0.537219 0.224694 0.529959C0.144963 0.522699 0.0724808 0.355722 -2.65442e-06 0.254086L0.246439 1.77239e-06Z" fill="black"/>
</g>
<g style="mix-blend-mode:multiply" opacity="0.1" transform="translate(90.9951 25.0938)">
<path d="M3.53923e-06 0.188753L0.0942246 3.98789e-06C0.165184 0.0877492 0.230552 0.179881 0.289933 0.275866C0.266231 0.336446 0.237123 0.394764 0.202956 0.450104L3.53923e-06 0.188753Z" fill="black"/>
</g>
<g style="mix-blend-mode:multiply" opacity="0.1" transform="translate(82.1152 30.3135)">
<path d="M0.210201 -5.31718e-06L0.318933 0.15971C0.255362 0.24056 0.185035 0.315858 0.108724 0.38477C0.108724 0.38477 0.0362453 0.290389 3.53923e-06 0.232311L0.210201 -5.31718e-06Z" fill="black"/>
</g>
<g style="mix-blend-mode:multiply" opacity="0.1" transform="translate(146.64 34.4424)">
<path d="M0.253692 0.518285L-4.42404e-06 0.35857C-4.42404e-06 0.235155 0.057985 0.0246185 0.115972 0.00283933C0.173959 -0.0189399 0.289944 0.0899578 0.376924 0.140776L0.253692 0.518285Z" fill="black"/>
</g>
<g style="mix-blend-mode:multiply" opacity="0.1" transform="translate(138.817 37.1309)">
<path d="M0.0434888 5.31718e-06L0.326174 0.0580734C0.326174 0.130671 0.32618 0.268612 0.275441 0.268612C0.181991 0.262275 0.0895711 0.245219 4.42404e-07 0.217788C0.0217455 0.145191 0.0362404 0.0798623 0.0434888 5.31718e-06Z" fill="black"/>
</g>
<g style="mix-blend-mode:multiply" opacity="0.1" transform="translate(144.719 42.7432)">
<path d="M0 0.145195C0.027135 0.0941445 0.0586675 0.0455644 0.0942321 2.21549e-06C0.16533 0.0722881 0.230751 0.149949 0.28993 0.232308C0.21511 0.273716 0.137618 0.310102 0.0579771 0.34121C0.0349421 0.27703 0.0155915 0.211583 0 0.145195Z" fill="black"/>
</g>
<g style="mix-blend-mode:multiply" opacity="0.1" transform="translate(221.551 74.0107)">
<path d="M0 -3.54479e-06L0.239186 0.0435531C0.243489 0.106397 0.243489 0.169469 0.239186 0.232313C0.162055 0.239886 0.0843863 0.239886 0.00725543 0.232313C7.07863e-06 0.130677 0 0.0943729 0 -3.54479e-06Z" fill="black"/>
</g>
<g style="mix-blend-mode:multiply" opacity="0.1" transform="translate(113.747 90.0752)">
<path d="M0.115968 0.384765L3.09683e-06 0.268606C0.0440602 0.175434 0.0949312 0.0856556 0.152212 0C0.152212 0 0.224702 0.0725968 0.260944 0.101636L0.115968 0.384765Z" fill="black"/>
</g>
<g style="mix-blend-mode:multiply" opacity="0.1" transform="translate(125.34 54.4756)">
<path d="M0.150605 0.304912C0.107115 0.304912 0.0418785 0.254094 0.0128851 0.203276C-0.0161083 0.152458 0.0128851 0.0726022 0.0128851 4.87408e-06L0.230338 0.152453L0.150605 0.304912Z" fill="black"/>
</g>
<g style="mix-blend-mode:multiply" opacity="0.1" transform="translate(210.272 85.7207)">
<path d="M0.137722 0L0.297187 0.312163C0.253697 0.348462 0.181203 0.442841 0.173955 0.428321C0.108788 0.325929 0.0506734 0.219203 1.76962e-06 0.108891L0.137722 0Z" fill="black"/>
</g>
<g style="mix-blend-mode:multiply" opacity="0.1" transform="translate(120.728 64.6084)">
<path d="M0.0724835 0.370241C0.0346555 0.308181 0.00997821 0.23899 -4.42404e-06 0.166969C-4.42404e-06 0.108891 0.0579859 0.0508168 0.0942276 -1.3293e-06C0.0724826 0.123414 0.0724835 0.246825 0.0724835 0.370241Z" fill="black"/>
</g>
<g style="mix-blend-mode:multiply" opacity="0.1" transform="translate(193.072 64.8125)">
<path d="M0.130481 0.319428L-6.19366e-06 0.232314L0.181203 -2.21549e-06C0.181203 0.0580756 0.253683 0.13068 0.246435 0.188758C0.239187 0.246836 0.166723 0.275869 0.130481 0.319428Z" fill="black"/>
</g>
<g style="mix-blend-mode:multiply" opacity="0.1" transform="translate(220.826 82.1699)">
<path d="M0 0.0862932C0 0.0862932 0.0717726 -0.00676539 0.100477 0.000393228C0.129182 0.00755185 0.165045 0.0719821 0.19375 0.114934L0 0.0862932Z" fill="black"/>
</g>
<g style="mix-blend-mode:multiply" opacity="0.1" transform="translate(116.399 67.4336)">
<path d="M0.123226 -1.77239e-06L0.231947 0.130679C0.188457 0.166978 0.152217 0.232308 0.108727 0.225048C0.0652365 0.217788 0.0362364 0.145196 -5.30885e-06 0.0943782L0.123226 -1.77239e-06Z" fill="black"/>
</g>
<g style="mix-blend-mode:multiply" opacity="0.1" transform="translate(88.3193 60.5068)">
<path d="M0.0434901 0.188752L1.76962e-06 3.10169e-06L0.115978 0.0217814L0.0434901 0.188752Z" fill="black"/>
</g>
<g style="mix-blend-mode:multiply" opacity="0.1" transform="translate(212.663 78.0762)">
<path d="M-7.07847e-06 0.152449V8.86197e-07L0.10148 0.0798583L-7.07847e-06 0.152449Z" fill="black"/>
</g>
<g style="mix-blend-mode:multiply" opacity="0.1" transform="translate(103.04 92.5947)">
<path d="M0.15222 0.203272L0.0434883 0.290386L0 8.86197e-07C0.0434901 8.86197e-07 0.0942272 -8.84358e-07 0.123221 0.0435575C0.152214 0.0871158 0.144972 0.145195 0.15222 0.203272Z" fill="black"/>
</g>
<g style="mix-blend-mode:multiply" opacity="0.1" transform="translate(198.052 87.5205)">
<path d="M0.0145011 -3.10169e-06L0.108733 0.0943769L-9.73289e-06 0.159712L0.0145011 -3.10169e-06Z" fill="black"/>
</g>
<g style="mix-blend-mode:multiply" opacity="0.1" transform="translate(144.271 105.969)">
<path d="M0.0265227 0.079857L0.156988 1.06344e-05C0.156988 0.101647 0.156988 0.210522 0.156988 0.319418C0.106249 0.319418 0.0482536 0.319435 0.0120119 0.268617C-0.0242299 0.217799 0.0337711 0.137935 0.0265227 0.079857Z" fill="black"/>
</g>
<g style="mix-blend-mode:multiply" opacity="0.1" transform="translate(126.88 93.9229)">
<path d="M0.065232 2.21549e-06C0.065232 0.130677 0.0652374 0.196008 0.115976 0.254086L-4.42404e-07 0.304909L0.065232 2.21549e-06Z" fill="black"/>
</g>
<g style="mix-blend-mode:multiply" opacity="0.1" transform="translate(189.358 73.582)">
<path d="M0.147389 0.0726008V0.275872C0.0966508 0.275872 0.0314139 0.275868 0.00966889 0.203271C-0.0120762 0.130673 0.00966889 0.0725964 0.00966889 -8.86197e-07L0.147389 0.0726008Z" fill="black"/>
</g>
<g style="mix-blend-mode:multiply" opacity="0.1" transform="translate(126.896 70.4746)">
<path d="M0.101479 0L0.231944 0.0653349L0.0942237 0.290385L2.65442e-06 0.137937L0.101479 0Z" fill="black"/>
</g>
<g style="mix-blend-mode:multiply" opacity="0.1" transform="translate(216.021 38.1396)">
<path d="M-3.53923e-06 0.0871181L0.17395 4.87408e-06V0.19601L-3.53923e-06 0.0871181Z" fill="black"/>
</g>
<g style="mix-blend-mode:multiply" opacity="0.1" transform="translate(221.775 50.4434)">
<path d="M-1.76962e-06 0.116161L0.108719 2.65859e-06L0.195696 0.254087C0.152206 0.254087 0.101472 0.297645 0.0652307 0.254087C0.028989 0.210528 0.0217433 0.174239 -1.76962e-06 0.116161Z" fill="black"/>
</g>
<g style="mix-blend-mode:multiply" opacity="0.1" transform="translate(207.243 40.4766)">
<path d="M0.311681 0.15971L7.07846e-06 0.406549L0.217449 -5.31718e-06L0.311681 0.15971Z" fill="black"/>
</g>
<g style="mix-blend-mode:multiply" opacity="0.1" transform="translate(96.8291 26.5967)">
<path d="M0.0507384 -1.77239e-06L0.166715 0.0580774L-5.30885e-06 0.196014C0.0144914 0.130676 0.0507384 0.0653358 0.0507384 -1.77239e-06Z" fill="black"/>
</g>
<g style="mix-blend-mode:multiply" opacity="0.1" transform="translate(204.055 70.8457)">
<path d="M-1.06177e-05 0.0580752L0.130476 -3.98789e-06C0.130476 0.0580738 0.130476 0.152458 0.130476 0.166978C0.130476 0.181497 0.0507349 0.210537 0.00724481 0.225057L-1.06177e-05 0.0580752Z" fill="black"/>
</g>
<g style="mix-blend-mode:multiply" opacity="0.1" transform="translate(102.406 19.0898)">
<path d="M0.161884 0.0653358C0.161884 0.123414 0.161882 0.174229 0.12564 0.232306C0.0893985 0.290384 0.0314091 0.232313 0.00966402 0.159716C-0.012081 0.0871185 0.00966402 0.0580787 0.00966402 8.86197e-07L0.161884 0.0653358Z" fill="black"/>
</g>
<g style="mix-blend-mode:multiply" opacity="0.1" transform="translate(98.8643 23.8389)">
<path d="M3.98164e-06 0.174233L0.10148 -3.98789e-06C0.13766 0.0628315 0.162209 0.131693 0.173957 0.203267C0.173957 0.268605 0.10873 0.319427 0.0797363 0.377505L3.98164e-06 0.174233Z" fill="black"/>
</g>
<g style="mix-blend-mode:multiply" opacity="0.1" transform="translate(168.696 21.1084)">
<path d="M-9.73289e-06 0.232317C-9.73289e-06 0.166979 -9.73289e-06 0.0871181 -9.73289e-06 0.0580792C-9.73289e-06 0.0290402 0.0797389 0.0217792 0.130477 0C0.130477 0.101636 0.130477 0.196015 0.130477 0.297651L-9.73289e-06 0.232317Z" fill="black"/>
</g>
<g style="mix-blend-mode:multiply" opacity="0.1" transform="translate(116.953 91.542)">
<path d="M0.0193298 0.240434C0.0193298 0.182356 -0.0241603 0.0807156 0.0193298 0.0661962C0.0628199 0.0516767 0.106312 0.0153807 0.15705 0.000861265C0.207789 -0.0136582 0.20054 0.160575 0.15705 0.182354C0.116384 0.212364 0.0691803 0.232271 0.0193298 0.240434Z" fill="black"/>
</g>
<g style="mix-blend-mode:multiply" opacity="0.1" transform="translate(97.6396 94.877)">
<path d="M2.21202e-06 0.0548957C0.0434923 0.0548957 0.11597 -0.0177069 0.130467 0.00407233C0.154122 0.072035 0.168743 0.142826 0.173956 0.214611C0.130465 0.214611 0.0579833 0.287202 0.0507349 0.265423C0.0257498 0.197447 0.00872887 0.126802 2.21202e-06 0.0548957Z" fill="black"/>
</g>
<g style="mix-blend-mode:multiply" opacity="0.1" transform="translate(147.473 78.3447)">
<path d="M0.0579903 0.312171C0.0298263 0.259997 0.0102337 0.203607 -8.84808e-06 0.14519C-8.84808e-06 0.0943716 0.0507411 0.0508154 0.0797345 -2.65859e-06C0.0724861 0.116153 0.072487 0.210535 0.0579903 0.312171Z" fill="black"/>
</g>
<g style="mix-blend-mode:multiply" opacity="0.1" transform="translate(141.959 108.581)">
<path d="M0.0196563 0.0580831L0.150121 -7.08958e-06C0.150121 0.0580707 0.193611 0.152462 0.150121 0.174241C0.106631 0.196021 0.0703948 0.217797 0.0196563 0.239576C-0.0310821 0.261356 0.034153 0.116161 0.0196563 0.0580831Z" fill="black"/>
</g>
<path d="M0.714656 16.5919C0.275933 14.4408 -0.16279 12.2437 0.0598453 10.0336C0.393799 7.22001 1.86057 4.67536 3.4976 2.36681C4.49291 0.969872 6.11685 -0.538556 7.68839 0.189425C8.27749 0.523408 8.74875 1.03207 9.0373 1.64539C11.3815 5.82308 10.7595 10.9517 10.4648 15.7328C10.2618 19.012 10.2487 22.383 9.15516 25.4851C8.82958 26.542 8.25459 27.5049 7.47885 28.2921C7.08688 28.6816 6.60557 28.969 6.07704 29.129C5.54851 29.2891 4.98886 29.317 4.44708 29.2103C2.09631 28.6331 1.47424 25.3474 1.4415 23.2815C1.40737 21.0339 1.16403 18.7943 0.714656 16.5919Z" transform="translate(31.6953 175.511)" fill="#92BC6A"/>
<path d="M16.4825 1.25366C17.7921 1.62749 19.1541 2.17184 19.7566 3.313C18.9436 4.52258 18.0065 5.64361 16.9605 6.65777C15.4021 8.1662 13.3656 9.51723 11.1589 9.28113C8.9522 9.04502 7.23005 7.31361 5.57993 5.92324C4.12625 4.69026 1.96537 3.89669 0.649202 2.64404C-1.17772 0.873279 1.25818 0.558475 2.94759 0.322374C7.47461 -0.318654 12.0856 -0.00139289 16.4825 1.25366Z" transform="translate(23.0068 214.592)" fill="#3535A5"/>
<path d="M21.504 63.5551C19.4413 60.9974 8.86614 56.9574 6.50227 54.6489C4.45269 52.6261 2.82299 50.2171 1.70703 47.5607C0.59107 44.9043 0.0109205 42.053 0 39.1711C0 32.2454 3.31989 25.6608 3.41811 18.7351C3.46395 15.5543 2.82223 12.3866 2.97939 9.20581C3.13654 6.02499 4.28901 2.64742 6.99993 0.961917C10.896 -1.44501 16.3441 0.961917 18.6817 4.89695C21.0194 8.83198 21.0063 13.718 20.5938 18.2826C20.1813 22.8472 19.4282 27.5496 20.5218 31.97C22.2963 39.1842 28.5825 44.5817 30.5535 51.7369C31.313 54.4849 24.1363 60.2628 24.0577 63.1026C23.9661 66.3359 23.822 70.5857 22.4011 73.4911C20.4366 77.5704 25.5573 79.2559 21.648 74.6978C18.9895 71.622 24.4637 67.2672 21.504 63.5551Z" transform="translate(11.5283 156.815)" fill="#9AC670"/>
<path d="M11.6491 62.5604L11.3282 62.5014C12.6474 54.8398 11.1667 46.9586 7.15708 40.3013C6.71181 39.5733 6.22725 38.8388 5.75579 38.1304C4.44616 36.1629 3.06451 34.0839 2.4097 31.7491C1.42749 28.2732 2.11504 24.6136 2.7764 21.0786C2.94665 20.1539 3.12999 19.1964 3.27405 18.2651C4.38723 11.0902 3.23476 4.66957 -5.99497e-07 0.190193L0.268473 -1.25091e-07C3.54253 4.55152 4.70154 11.0509 3.54253 18.3176C3.39847 19.2554 3.21512 20.2129 3.04487 21.1442C2.39006 24.6399 1.73525 28.2601 2.67163 31.6376C3.32644 33.9265 4.63606 35.9596 5.94568 37.9271C6.41714 38.6354 6.9017 39.37 7.35352 40.1045C11.4395 46.8272 12.9648 54.8013 11.6491 62.5604Z" transform="translate(22.1426 161.541)" fill="white"/>
<path d="M6.12903 6.24358C4.30657 4.0252 2.25181 2.00899 -2.74769e-07 0.229544L0.202991 0C2.47165 1.79309 4.54178 3.82469 6.37785 6.05995L6.12903 6.24358Z" transform="translate(19.5107 171.904)" fill="white"/>
<path d="M0.281568 5.98781L-3.99665e-07 5.81729C0.5173 4.97781 1.13282 3.94815 1.7418 2.91192C2.35077 1.8757 2.97284 0.839474 3.49014 5.00365e-07L3.77171 0.170517C3.25441 1.00999 2.63889 2.03966 2.02991 3.07588C1.42094 4.11211 0.798869 5.14833 0.281568 5.98781Z" transform="translate(26.0254 190.562)" fill="white"/>
<path d="M12.6182 5.96813C11.6818 4.49249 9.82216 4.03996 8.03453 3.60055L7.54997 3.4825C4.88121 2.81593 2.33352 1.73373 2.24811e-07 0.275452L0.170251 1.00073e-06C2.47554 1.44026 4.99227 2.50917 7.62854 3.1677L8.1131 3.28575C9.88764 3.71861 11.8979 4.21048 12.9063 5.79761L12.6182 5.96813Z" transform="translate(20.46 205.285)" fill="white"/>
<path d="M5.06169 5.77138C3.25223 4.03062 1.56122 2.17043 0 0.203309L0.255376 4.00292e-07C1.8097 1.94439 3.49194 3.78265 5.29087 5.50248L5.06169 5.77138Z" transform="translate(19.2217 180.828)" fill="white"/>
<path d="M5.87456 0H0V0.327503H5.87456V0Z" transform="matrix(0.436561 -0.899674 0.899135 0.437671 25.5811 171.013)" fill="white"/>
<path d="M0.301212 5.45658L9.99162e-08 5.33197C0.737135 3.50859 1.57663 1.72843 2.51447 0L2.80259 0.1574C1.86983 1.87521 1.03471 3.64442 0.301212 5.45658Z" transform="translate(30.7432 198.794)" fill="white"/>
<path d="M19.867 1.69206C13.2592 3.56296 6.19747 2.96151 0 -1.20088e-06L3.50978 21.9706H14.3665L19.867 1.69206Z" transform="translate(22.9873 216.284)" fill="#1671FF"/>
<path d="M14.9231 3.09556L15.3815 1.39694C15.1065 1.4822 14.8315 1.56746 14.5499 1.63304C12.8762 2.00195 11.1601 2.14095 9.44892 2.04622C6.68581 1.99828 3.9485 1.50443 1.34236 0.583694C0.877446 0.413176 0.432175 0.209867 -4.99581e-08 -1.60117e-06L0.288117 1.82323L0.798868 2.03966C5.29087 3.83665 10.4246 4.7745 14.9231 3.09556Z" transform="translate(24.6777 226.868)" fill="white"/>
<path d="M21.504 63.5551C19.4413 60.9974 8.86614 56.9574 6.50227 54.6489C4.45269 52.6261 2.82299 50.2171 1.70703 47.5607C0.59107 44.9043 0.0109205 42.053 0 39.1711C0 32.2454 3.31989 25.6608 3.41811 18.7351C3.46395 15.5543 2.82223 12.3866 2.97939 9.20581C3.13654 6.02499 4.28901 2.64742 6.99993 0.961917C10.896 -1.44501 16.3441 0.961917 18.6817 4.89695C21.0194 8.83198 21.0063 13.718 20.5938 18.2826C20.1813 22.8472 19.4282 27.5496 20.5218 31.97C22.2963 39.1842 28.5825 44.5817 30.5535 51.7369C31.313 54.4849 24.1363 60.2628 24.0577 63.1026C23.9661 66.3359 23.822 70.5857 22.4011 73.4911C20.4366 77.5704 25.5573 79.2559 21.648 74.6978C18.9895 71.622 24.4637 67.2672 21.504 63.5551Z" transform="translate(223.585 156.815)" fill="#C0CAE0"/>
<path d="M3.43967 6.64991C3.43967 6.64991 -0.539677 5.58273 0.0619359 -2.65859e-06C1.22368 0.643768 2.16631 1.62127 2.76833 2.8065C3.37035 3.99173 3.60418 5.33037 3.43967 6.64991Z" transform="translate(112.817 194.153)" fill="#C0CAE0"/>
<path d="M0.0403643 6.59909C0.0403643 6.59909 4.0342 5.58999 3.50507 2.65859e-06C2.33597 0.628047 1.38126 1.59212 0.7638 2.76817C0.146342 3.94422 -0.105611 5.27842 0.0403643 6.59909Z" transform="translate(116.217 194.204)" fill="#C0CAE0"/>
<path d="M1.20258 7.45573C1.20258 7.45573 4.21789 4.65349 1.07936 0C0.354549 1.11312 -0.0210499 2.41804 0.000910285 3.74678C0.0228705 5.07551 0.441383 6.36725 1.20258 7.45573Z" transform="translate(115.054 190.821)" fill="#C0CAE0"/>
<path d="M2.76825 5.35769C2.76825 5.35769 -0.435524 4.50104 0.0501149 4.43099e-06C0.98538 0.519279 1.74406 1.30703 2.22848 2.26187C2.7129 3.21671 2.90089 4.29492 2.76825 5.35769Z" transform="translate(150.207 236.455)" fill="#9AC670"/>
<path d="M0.0329542 5.32139C0.0329542 5.32139 3.25123 4.50829 2.82357 -4.43099e-06C1.88114 0.506565 1.11169 1.28413 0.61434 2.23253C0.116987 3.18092 -0.0855023 4.25672 0.0329542 5.32139Z" transform="translate(152.964 236.49)" fill="#9AC670"/>
<path d="M0.971134 6.01105C0.971134 6.01105 3.40657 3.75328 0.869652 -3.54479e-06C0.285304 0.897531 -0.0173211 1.94977 0.000765005 3.02111C0.0188511 4.09245 0.356825 5.13382 0.971134 6.01105Z" transform="translate(151.998 233.746)" fill="#9AC670"/>
<path d="M2.61667 3.54476e-06H59.8065C60.5044 3.54476e-06 61.1736 0.277646 61.6671 0.771854C62.1605 1.26606 62.4377 1.93634 62.4377 2.63526V20.3634C62.4377 21.0604 62.1613 21.7288 61.6692 22.2217C61.1771 22.7145 60.5097 22.9914 59.8138 22.9914H2.62391C1.92801 22.9914 1.26061 22.7145 0.768526 22.2217C0.276445 21.7288 -1.76963e-06 21.0604 -1.76963e-06 20.3634V2.63526C-1.76963e-06 1.93634 0.277209 1.26606 0.770649 0.771854C1.26409 0.277646 1.93334 3.54476e-06 2.63117 3.54476e-06H2.61667Z" transform="matrix(0.997841 -0.0656798 0.0654749 0.997854 128.666 67.9316)" fill="#CAD3E6"/>
<path d="M49.5863 4.43096e-06H3.98166e-06V4.25418H49.5863V4.43096e-06Z" transform="matrix(0.997841 -0.0656798 0.0654749 0.997854 135.375 72.1875)" fill="#E4ECFB"/>
<path d="M31.3131 0H0V4.25417H31.3131V0Z" transform="matrix(0.997841 -0.0656798 0.0654749 0.997854 135.896 80.0762)" fill="#E4ECFB"/>
<path d="M6.97291 65.4029L3.92136 34.0118L0 0.435589L3.05156 4.43099e-07L10.0172 31.8266L20.897 32.7051L32.2189 0.435589L35.2632 0.871166L26.9928 35.3186L27.4277 64.5317L6.97291 65.4029Z" transform="translate(138.363 88.3555)" fill="#C0CAE0"/>
<path d="M2.6094 5.22701C4.05054 5.22701 5.2188 4.0569 5.2188 2.6135C5.2188 1.1701 4.05054 4.87408e-06 2.6094 4.87408e-06C1.16827 4.87408e-06 2.65442e-06 1.1701 2.65442e-06 2.6135C2.65442e-06 4.0569 1.16827 5.22701 2.6094 5.22701Z" transform="translate(137.936 84.4355)" fill="#FFCFD3"/>
<path d="M2.6094 5.227C4.05053 5.227 5.21881 4.0569 5.21881 2.6135C5.21881 1.1701 4.05053 2.65859e-06 2.6094 2.65859e-06C1.16826 2.65859e-06 8.84808e-06 1.1701 8.84808e-06 2.6135C8.84808e-06 4.0569 1.16826 5.227 2.6094 5.227Z" transform="translate(168.408 85.3066)" fill="#FFCFD3"/>
<path d="M9.84488 9.61197L9.91734 9.51033C10.0841 9.27076 10.2435 9.02393 10.3812 8.78436L10.432 8.68998C10.548 8.47945 10.6494 8.26891 10.7437 8.05112L10.8234 7.86237C10.9222 7.62562 11.0069 7.3832 11.0771 7.1364C11.4373 5.96437 11.388 4.70439 10.9374 3.56417C10.4868 2.42395 9.6617 1.47156 8.59816 0.863993C8.46044 0.776876 8.33722 0.67524 8.19225 0.602642C7.85191 0.429108 7.49493 0.290463 7.12674 0.188832C6.7266 0.0809706 6.31578 0.0176738 5.90177 8.35598e-05H5.66982C5.34435 -0.00171293 5.01936 0.0250084 4.69854 0.079941L4.51008 0.123498C4.16001 0.197056 3.81777 0.304022 3.48806 0.442927H3.42283C2.65605 0.772482 1.97244 1.2694 1.42192 1.8974C0.871402 2.5254 0.46788 3.26862 0.240813 4.07279C-0.57825 7.07832 0.719195 11.906 3.72001 12.7337C5.11169 13.1184 6.61936 12.5594 7.93856 11.5648C8.4405 11.1797 8.90194 10.7442 9.31574 10.2653L9.35923 10.2073C9.52352 10.033 9.68541 9.8346 9.84488 9.61197Z" transform="translate(149.003 106.73)" fill="#A5B1CB"/>
<path d="M21.0347 5.08907L18.0194 53.2428H14.6924L11.8655 5.4811L8.89372 5.6045L7.08163 54.4189L4.51571 54.3608L0.579864 5.96025L5.30885e-06 3.98789e-06L20.9622 0.268599L21.0347 5.08907Z" transform="translate(144.757 147.799)" fill="#D0D9ED"/>
<path d="M3.66041 -9.74817e-06L10.9668 0.805832L10.7058 1.93835H3.53923e-06L0.333421 -9.74817e-06H3.66041Z" transform="translate(159.116 201.04)" fill="#D0D9ED"/>
<path d="M10.0462 0.0580867V1.4229L7.96327e-06 1.80766V0.551743L7.48029 -3.54479e-06L10.0462 0.0580867Z" transform="translate(141.792 202.159)" fill="#D0D9ED"/>
<path d="M5.58123 0H1.37719L5.53005e-07 39.7833L2.02954 39.8559L5.58123 0Z" transform="translate(173.77 165.209)" fill="#DDE5F6"/>
<path d="M-1.38251e-07 1.10775e-06L1.23222 3.62987H37.9089V1.81493L-1.38251e-07 1.10775e-06Z" transform="translate(137.891 202.965)" fill="#DDE5F6"/>
<path d="M3.11679 1.10775e-06L15.9464 45.3733H14.4242L-1.10601e-06 1.10775e-06H3.11679Z" transform="translate(171.883 206.88)" fill="#DDE5F6"/>
<path d="M12.8296 1.10775e-06L0 45.3733H1.52215L15.9464 1.10775e-06H12.8296Z" transform="translate(128.685 206.597)" fill="#DDE5F6"/>
<path d="M0 20.4081V25.6861L211.717 28.501L257.589 5.27796V-2.68451e-06L0 20.4081Z" transform="translate(354.999 237.654) scale(-1 1)" fill="#CFC5FF"/>
<path d="M211.717 26.038L0 23.223L45.872 0L257.589 2.81491L211.717 26.038Z" transform="translate(354.999 240.117) scale(-1 1)" fill="#CFC5FF"/>
<path d="M211.717 26.038L0 23.223L45.872 0L257.589 2.81491L211.717 26.038Z" transform="translate(354.999 234.838) scale(-1 1)" fill="#1671FF"/>
<path d="M116.444 3.16678L1.34606e-06 1.75932L3.52861 2.68451e-06L119.796 1.40746L116.444 3.16678Z" transform="translate(308.773 237.303) scale(-1 1)" fill="white"/>
<path d="M116.268 3.16678L-1.34606e-06 1.58339L3.52861 2.68451e-06L119.796 1.40746L116.268 3.16678Z" transform="translate(317.42 241.699) scale(-1 1)" fill="white"/>
<path d="M116.268 3.34271L6.7303e-07 1.75932L3.52861 1.34226e-06L119.796 1.58339L116.268 3.34271Z" transform="translate(325.712 245.748) scale(-1 1)" fill="white"/>
<path d="M116.268 3.34271L6.7303e-07 1.75932L3.35218 0L119.796 1.58339L116.268 3.34271Z" transform="translate(333.65 249.793) scale(-1 1)" fill="white"/>
<path d="M75.1595 18.6488L5.38424e-06 17.5932L34.9333 -1.34226e-06L110.269 1.0556L75.1595 18.6488Z" transform="translate(218.618 238.885) scale(-1 1)" fill="white"/>
<path d="M4.58719 4.19455e-08L10.7623 9.50034L16.7609 27.6213L34.5804 56.2983L31.9339 57.1779L10.5859 33.2512L1.07685e-05 13.1949L4.58719 4.19455e-08Z" transform="translate(56.6553 180.475) scale(-1 1)" fill="#62BDDD"/>
<path d="M22.7596 1.67782e-07L-1.07685e-05 37.8254L2.99933 38.881L30.5225 3.87051L22.7596 1.67782e-07Z" transform="translate(111.702 193.318) scale(-1 1)" fill="#2B159B"/>
<path d="M1.07685e-05 13.3708L6.17508 25.3342L9.35082 7.74102L8.99796 6.33356L5.11649 0.175932L4.41078 1.67782e-07C4.41078 1.67782e-07 2.82288 5.80576 2.29359 6.86135C2.11716 7.56508 1.05859 10.38 1.07685e-05 13.3708Z" transform="translate(54.8916 183.643) scale(-1 1)" fill="url(#paint0_linear)"/>
<path d="M8.53589 0.0669206C12.5938 0.770649 17.7103 4.99302 17.0046 9.03946C16.2988 13.0859 10.1238 15.373 6.24229 14.8452C2.18438 14.1415 -0.462078 10.4469 0.0672143 6.40048C0.596506 2.17811 4.47799 -0.460876 8.53589 0.0669206Z" transform="translate(106.83 184.807) scale(-1 1)" fill="#FFCFD3"/>
<path d="M0.80374 2.11119C0.450878 2.81491 0.274458 3.69458 0.0980278 4.3983C-0.0784029 4.9261 -0.0784244 5.80576 0.627298 5.80576C0.98016 5.80576 1.15661 5.62983 1.33304 5.4539C2.03876 4.9261 2.9209 4.22237 3.27376 3.34271C3.62662 2.63898 3.45021 1.75932 3.09734 1.05559C2.74448 0.527797 2.03876 -3.35564e-07 1.33304 -3.35564e-07C1.15661 0.87966 1.1566 1.58339 0.80374 2.11119Z" transform="translate(104.392 195.604) scale(-1 1)" fill="#FFCFD3"/>
<path d="M16.9374 8.20084C16.7609 4.50627 12.1737 0.811694 8.46867 0.107966C4.41077 -0.595763 0.529287 2.21915 -5.38424e-06 6.26559C-5.38424e-06 6.44152 -5.38424e-06 6.79339 -5.38424e-06 6.96932C0.529287 7.32118 1.23501 7.49712 1.7643 7.49712C3.88147 7.67305 5.99863 6.61746 7.41008 4.85813C7.05722 5.03407 15.8788 7.14525 16.9374 8.20084Z" transform="translate(106.765 184.766) scale(-1 1)" fill="#2B159B"/>
<path d="M0.0272218 2.02322C0.203652 1.49542 0.556498 0.967627 1.08579 0.43983C2.67367 -0.791695 4.79086 0.791695 4.96729 2.37508C4.96729 2.90288 4.96728 3.43068 4.79084 3.95847C4.61441 4.48627 4.43799 4.83813 4.08513 5.19C3.73227 5.54186 3.20297 5.54186 2.67368 5.54186C2.14439 5.54186 1.79153 5.19 1.43867 5.01407C0.556519 4.48627 -0.149209 3.07881 0.0272218 2.02322Z" transform="translate(98.6738 186.897) scale(-1 1)" fill="#FFCFD3"/>
<path d="M14.2909 23.9544L-5.38424e-06 48.5849L3.17575 48.7608L21.3481 30.2879L23.8181 6.71304C23.8181 6.71304 23.8181 -0.500183 20.6424 0.0276138C17.4666 0.55541 15.8788 4.42592 15.8788 4.42592L14.2909 23.9544Z" transform="translate(104.999 188.717) scale(-1 1)" fill="#2688C4"/>
<path d="M1.07685e-05 9.50034C14.6438 2.28712 31.4046 0 31.4046 0L39.344 15.658L3.35218 21.4637L1.07685e-05 9.50034Z" transform="translate(90.1777 179.421) scale(-1 1)" fill="#2688C4"/>
<path d="M6.70437 0.0047327H8.99798C14.9966 -0.171199 20.1131 4.57897 20.1131 10.7366L8.11582 32.2003L10.233 63.1644H7.05723L0 33.9596L6.70437 0.0047327Z" transform="translate(65.6523 179.415) scale(-1 1)" fill="#62BDDD"/>
<path d="M3.70504 7.74102C5.75128 7.74102 7.41009 6.00813 7.41009 3.87051C7.41009 1.73289 5.75128 0 3.70504 0C1.6588 0 1.07685e-05 1.73289 1.07685e-05 3.87051C1.07685e-05 6.00813 1.6588 7.74102 3.70504 7.74102Z" transform="translate(114.878 230.089) scale(-1 1)" fill="#FFCFD3"/>
<path d="M3.70503 7.74102C5.75127 7.74102 7.41009 6.00813 7.41009 3.87051C7.41009 1.73289 5.75127 0 3.70503 0C1.65879 0 5.38424e-06 1.73289 5.38424e-06 3.87051C5.38424e-06 6.00813 1.65879 7.74102 3.70503 7.74102Z" transform="translate(106.585 233.959) scale(-1 1)" fill="#FFCFD3"/>
<path d="M14.9966 0.175931L15.5259 3.16678L-1.07685e-05 3.51864C-1.07685e-05 3.51864 0.882148 1.23153 1.41144 1.40746C1.94073 1.58339 11.8209 1.34226e-06 11.8209 1.34226e-06H14.9966V0.175931Z" transform="translate(70.2412 242.228) scale(-1 1)" fill="#2688C4"/>
<path d="M12.5266 -2.68451e-06L14.1145 3.51864L1.07685e-05 3.87051L0.352867 2.11118L9.88011 0.879658L12.5266 -2.68451e-06Z" transform="translate(34.6025 236.773) scale(-1 1)" fill="#2688C4"/>
<defs>
<linearGradient id="paint0_linear" x2="1" gradientUnits="userSpaceOnUse" gradientTransform="translate(0.0809817 8.05523) scale(9.41011 9.38352)">
<stop stop-color="#2688C4" stop-opacity="0.8"/>
<stop offset="0.9896" stop-color="#2688C4" stop-opacity="0"/>
</linearGradient>
</defs>
</svg>
