<svg width="567" height="404" viewBox="0 0 567 404" fill="none" xmlns="http://www.w3.org/2000/svg">
<path opacity="0.4" d="M479.941 251.325C485.11 314.337 190.924 280.718 101.744 253.331C12.5642 225.944 -28.2696 113.166 21.4335 74.9641C71.1366 36.7618 453.73 0 453.73 0C453.73 0 474.773 188.313 479.941 251.325Z" transform="translate(76.4092 0.0615234) rotate(15.3277)" fill="#C2CCE2"/>
<path d="M383.775 294.376H15.8717L0 16.194L395.201 0L383.775 294.376Z" transform="translate(140.153 24.6709)" fill="#E9F1FF"/>
<path d="M301.281 0H0V155.396H301.281V0Z" transform="translate(198.572 8)" fill="#E4ECFB"/>
<path d="M117.528 -2.96284e-06H-7.10997e-06V85.4554H117.528V-2.96284e-06Z" transform="translate(358.603 43.7764)" fill="#F4F7FD"/>
<path d="M73.9807 0H3.55498e-06V3.30093H73.9807V0Z" transform="translate(270.242 58.2808)" fill="#D0D8EC"/>
<path d="M73.9807 -4.74055e-06H3.55498e-06V3.29122H73.9807V-4.74055e-06Z" transform="translate(270.242 65.5425)" fill="#D0D8EC"/>
<path d="M73.9807 -3.55541e-06H3.55498e-06V3.29122H73.9807V-3.55541e-06Z" transform="translate(270.242 72.7959)" fill="#D0D8EC"/>
<path d="M217.146 7.11082e-06H3.55498e-06V9.90282H217.146V7.11082e-06Z" transform="translate(238.937 17.6797)" fill="#F4F7FD"/>
<path d="M3.47528 6.95139C5.39462 6.95139 6.95055 5.39526 6.95055 3.47569C6.95055 1.55612 5.39462 -3.55541e-06 3.47528 -3.55541e-06C1.55593 -3.55541e-06 -2.36999e-06 1.55612 -2.36999e-06 3.47569C-2.36999e-06 5.39526 1.55593 6.95139 3.47528 6.95139Z" transform="translate(227.19 19.1553)" fill="#160760"/>
<path d="M3.47527 6.95139C5.39461 6.95139 6.95055 5.39526 6.95055 3.47569C6.95055 1.55612 5.39461 -3.55541e-06 3.47527 -3.55541e-06C1.55593 -3.55541e-06 7.10997e-06 1.55612 7.10997e-06 3.47569C7.10997e-06 5.39526 1.55593 6.95139 3.47527 6.95139Z" transform="translate(217.25 19.1553)" fill="#160760"/>
<path d="M3.47528 6.95139C5.39462 6.95139 6.95056 5.39526 6.95056 3.47569C6.95056 1.55612 5.39462 -3.55541e-06 3.47528 -3.55541e-06C1.55594 -3.55541e-06 0 1.55612 0 3.47569C0 5.39526 1.55594 6.95139 3.47528 6.95139Z" transform="translate(207.309 19.1553)" fill="#160760"/>
<g style="mix-blend-mode:multiply" opacity="0.1" transform="translate(313.234 173.805)">
<path d="M2.23703 2.75725C1.65459 3.10677 1.26629 3.54366 0.994478 3.45628C0.21788 3.2621 -0.0927586 2.32038 0.0237311 1.2233C0.137405 0.785379 0.328038 0.371156 0.586751 4.74055e-06L2.23703 2.75725Z" fill="black"/>
</g>
<g style="mix-blend-mode:multiply" opacity="0.1" transform="translate(253.313 150.681)">
<path d="M1.82501 1.02712C1.34934 1.40576 1.029 1.85237 0.854264 1.73586C0.518938 1.36942 0.231851 0.961584 1.18499e-06 0.522284C0.252395 0.33782 0.524209 -0.0602331 0.747481 0.00772733C0.970753 0.0756878 1.33964 0.531982 1.82501 1.02712Z" fill="black"/>
</g>
<g style="mix-blend-mode:multiply" opacity="0.1" transform="translate(309.217 175.188)">
<path d="M1.68909 0.818166C1.28137 1.29389 0.961032 1.78903 0.873664 1.78903C0.541993 1.41522 0.249264 1.0086 -2.36999e-06 0.57545C0.232977 0.36186 0.485373 -0.0361906 0.698937 0.00264391C0.912501 0.0414785 1.25225 0.410403 1.68909 0.818166Z" fill="black"/>
</g>
<g style="mix-blend-mode:multiply" opacity="0.1" transform="translate(278.812 186.668)">
<path d="M0.323553 4.74055e-06L1.40107 2.40773C1.21663 2.53394 0.905988 2.81552 0.886573 2.76697C0.566226 2.09708 0.275013 1.38834 0.00320417 0.669903C-0.0259182 0.592234 0.148818 0.349516 0.323553 4.74055e-06Z" fill="black"/>
</g>
<g style="mix-blend-mode:multiply" opacity="0.1" transform="translate(263.147 172.969)">
<path d="M0.593054 2.16503C0.282415 1.77668 -0.0185177 1.51455 0.000897263 1.40775C0.125447 0.930019 0.277792 0.459956 0.45715 -1.06662e-05C0.612469 0.155328 0.923095 0.339802 0.913387 0.466015C0.837527 1.03775 0.7306 1.60493 0.593054 2.16503Z" fill="black"/>
</g>
<g style="mix-blend-mode:multiply" opacity="0.1" transform="translate(268.264 178.264)">
<path d="M0.844556 0.861188C0.553331 0.958274 0.242694 1.15247 0.194157 1.06509C0.0924538 0.749979 0.0272978 0.424219 -4.73998e-06 0.0942265C0.194145 0.0942265 0.427135 -0.070818 0.572747 0.035977C0.71836 0.142772 0.737773 0.511677 0.844556 0.861188Z" fill="black"/>
</g>
<g style="mix-blend-mode:multiply" opacity="0.1" transform="translate(335.244 172.328)">
<path d="M1.0387 0.621353C0.805723 0.864069 0.640698 1.18444 0.495086 1.15532C0.349474 1.12619 0.165022 0.805808 -4.73998e-06 0.611635C0.1359 0.398045 0.281525 -1.42216e-05 0.407722 -1.42216e-05C0.533919 -1.42216e-05 0.757185 0.339802 1.0387 0.621353Z" fill="black"/>
</g>
<g style="mix-blend-mode:multiply" opacity="0.1" transform="translate(352.661 170.261)">
<path d="M0.902786 0.603566L0.368886 1.322C0.242689 1.0987 -2.36999e-06 0.865707 -2.36999e-06 0.642408C0.0117867 0.513116 0.0528735 0.388209 0.120156 0.277179C0.187439 0.166149 0.279141 0.0719141 0.388291 0.00163466C0.514488 -0.0274913 0.669806 0.341432 0.902786 0.603566Z" fill="black"/>
</g>
<g style="mix-blend-mode:multiply" opacity="0.1" transform="translate(327.689 140.912)">
<path d="M0.400456 0L0.759628 0.970864C0.594601 1.08737 0.429585 1.27182 0.25485 1.29124C0.0801155 1.31065 -0.0169687 0.941744 0.00244627 0.82524C0.0976945 0.53363 0.231556 0.25608 0.400456 0Z" fill="black"/>
</g>
<g style="mix-blend-mode:multiply" opacity="0.1" transform="translate(329.778 193.629)">
<path d="M0.689472 0.417482C0.580456 0.635817 0.446923 0.840996 0.291462 1.0291C0.291462 1.0291 -0.00948705 0.747564 0.000220427 0.708729C0.0834724 0.465599 0.184038 0.228738 0.30115 -1.18514e-05L0.689472 0.417482Z" fill="black"/>
</g>
<g style="mix-blend-mode:multiply" opacity="0.1" transform="translate(265.156 154.893)">
<path d="M0.300928 -5.92568e-06C0.398002 0.116498 0.553326 0.233006 0.563033 0.368927C0.572741 0.504848 0.446547 0.679594 0.368887 0.844641L-1.77749e-06 0.34952L0.300928 -5.92568e-06Z" fill="black"/>
</g>
<g style="mix-blend-mode:multiply" opacity="0.1" transform="translate(272.545 184.436)">
<path d="M0.310645 0.300982C0.242693 0.300982 0.174729 0.42718 0.116484 0.407763C0.0582389 0.388346 0.0388287 0.252425 -1.18499e-06 0.165047L0.300928 -1.30365e-05C0.310636 0.0970734 0.310645 0.165061 0.310645 0.300982Z" fill="black"/>
</g>
<g style="mix-blend-mode:multiply" opacity="0.1" transform="translate(375.705 152.92)">
<path d="M0.116503 -4.74055e-06C0.232992 0.087373 0.417431 0.135915 0.446553 0.271836C0.475676 0.407757 0.368898 0.631053 0.330068 0.815517C0.213579 0.72814 0.0291106 0.679598 -1.18499e-05 0.543677C0.00329987 0.35662 0.0428853 0.171984 0.116503 -4.74055e-06Z" fill="black"/>
</g>
<g style="mix-blend-mode:multiply" opacity="0.1" transform="translate(364.379 144.584)">
<path d="M0.601863 0.462794L0.300934 0.841415L4.73998e-06 0.181235C0.135909 0.113274 0.271808 -0.0323482 0.388298 0.00648635C0.504787 0.0453209 0.495081 0.297747 0.601863 0.462794Z" fill="black"/>
</g>
<g style="mix-blend-mode:multiply" opacity="0.1" transform="translate(368.939 130.533)">
<path d="M0.203865 -2.37027e-06L0.359188 0.174761C0.291236 0.300973 0.223283 0.436884 0.145623 0.543679C0.067963 0.650474 0.0485243 0.436886 -1.30349e-05 0.378634L0.203865 -2.37027e-06Z" fill="black"/>
</g>
<g style="mix-blend-mode:multiply" opacity="0.1" transform="translate(297.454 183.289)">
<path d="M0.262093 -5.92568e-06L0.533902 0.388334L0.262093 0.786391L2.36999e-06 0.368927L0.262093 -5.92568e-06Z" fill="black"/>
</g>
<g style="mix-blend-mode:multiply" opacity="0.1" transform="translate(313.278 180.805)">
<path d="M0.133533 -3.55541e-06C0.240316 0.0873742 0.415037 0.135907 0.453867 0.262119C0.445707 0.440221 0.402834 0.615042 0.327665 0.776705C0.211175 0.689328 0.0461614 0.640756 0.0073315 0.504835C-0.0314984 0.368914 0.0947035 0.174752 0.133533 -3.55541e-06Z" fill="black"/>
</g>
<g style="mix-blend-mode:multiply" opacity="0.1" transform="translate(336.094 172.648)">
<path d="M0.353624 0.359217L0.00416895 0.281561C-0.00138965 0.187793 -0.00138965 0.0937702 0.00416895 2.37027e-06C0.12555 0.00727414 0.245882 0.0267881 0.363341 0.0582518L0.353624 0.359217Z" fill="black"/>
</g>
<g style="mix-blend-mode:multiply" opacity="0.1" transform="translate(286.455 146.213)">
<path d="M0.864316 0.815514C0.684318 0.94226 0.484092 1.03748 0.272174 1.09707C0.184807 1.09707 -0.00937069 0.776704 0.000336787 0.689326C0.0789376 0.449106 0.183087 0.217992 0.310983 -8.29596e-06L0.864316 0.815514Z" fill="black"/>
</g>
<g style="mix-blend-mode:multiply" opacity="0.1" transform="translate(374.034 186.805)">
<path d="M0.203865 -1.06662e-05L0.359188 0.165049C0.294966 0.291929 0.223664 0.415104 0.145623 0.533982C0.145623 0.533982 0.0485243 0.436883 -1.30349e-05 0.368922L0.203865 -1.06662e-05Z" fill="black"/>
</g>
<g style="mix-blend-mode:multiply" opacity="0.1" transform="translate(278.107 137.018)">
<path d="M0.524207 0.533983L0.21356 0.941729C0.11592 0.737887 0.044173 0.522621 -5.33247e-06 0.300956C-5.33247e-06 0.223287 0.223273 0.106786 0.339762 -9.48109e-06L0.524207 0.533983Z" fill="black"/>
</g>
<g style="mix-blend-mode:multiply" opacity="0.1" transform="translate(297.831 172.91)">
<path d="M0.601875 0.399036L0.38831 0.962154L-1.30349e-05 0.408754C0.0970617 0.263125 0.203851 0.0203959 0.310633 0.000978612C0.417415 -0.0184387 0.5048 0.253407 0.601875 0.399036Z" fill="black"/>
</g>
<g style="mix-blend-mode:multiply" opacity="0.1" transform="translate(288.998 131.328)">
<path d="M0.194142 0.544362L1.06649e-05 0.146305C0.048548 0.0880529 0.135909 -0.00902759 0.145617 0.000681048C0.217738 0.122957 0.282549 0.249389 0.339749 0.379317L0.194142 0.544362Z" fill="black"/>
</g>
<g style="mix-blend-mode:multiply" opacity="0.1" transform="translate(262.957 130.902)">
<path d="M0.345051 0.359217L0.00529859 0.281546C-0.00176146 0.187829 -0.00176146 0.0937197 0.00529859 2.37027e-06C0.120892 0.00876946 0.234978 0.0315834 0.345051 0.0679551C0.374174 0.165042 0.354759 0.300965 0.345051 0.359217Z" fill="black"/>
</g>
<g style="mix-blend-mode:multiply" opacity="0.1" transform="translate(315.151 157.318)">
<path d="M0.368872 0.339802L0.252387 0.582518C0.159903 0.472282 0.0755697 0.355485 1.30349e-05 0.233022C0.0251542 0.150974 0.0610469 0.0726021 0.106781 -5.92568e-06L0.368872 0.339802Z" fill="black"/>
</g>
<g style="mix-blend-mode:multiply" opacity="0.1" transform="translate(300.497 153.717)">
<path d="M0.131517 2.37027e-06C0.248006 0.0776715 0.432465 0.126215 0.45188 0.242718C0.443745 0.42394 0.4009 0.601924 0.325678 0.766993C0.209188 0.689324 0.0344373 0.640771 0.00531486 0.514559C-0.0238076 0.388347 0.0732719 0.184467 0.131517 2.37027e-06Z" fill="black"/>
</g>
<g style="mix-blend-mode:multiply" opacity="0.1" transform="translate(347.146 134.11)">
<path d="M0.28153 0.276874L0.135894 0.480762L4.73998e-06 0.0827038C0.0679571 0.0827038 0.145609 -0.024093 0.203853 0.00503296C0.262098 0.0341589 0.252407 0.179787 0.28153 0.276874Z" fill="black"/>
</g>
<g style="mix-blend-mode:multiply" opacity="0.1" transform="translate(274.109 140.037)">
<path d="M0.327856 0.339814L0.00750778 0.271847C-0.00251049 0.18151 -0.00251049 0.0903429 0.00750778 5.92568e-06C0.115923 0.00246035 0.22358 0.0187619 0.327856 0.0485373C0.356979 0.145624 0.337564 0.242728 0.327856 0.339814Z" fill="black"/>
</g>
<g style="mix-blend-mode:multiply" opacity="0.1" transform="translate(278.659 135.085)">
<path d="M0.20385 0.526421L1.77749e-06 0.147785C0.0582466 0.0992419 0.145617 -0.0172559 0.155325 0.00216143C0.239179 0.122569 0.313812 0.249141 0.378593 0.380798L0.20385 0.526421Z" fill="black"/>
</g>
<g style="mix-blend-mode:multiply" opacity="0.1" transform="translate(254.946 131.079)">
<path d="M0.33833 0.471959L0.00827907 0.54963C-0.00275495 0.388008 -0.00275495 0.225821 0.00827907 0.0641983C0.00827907 0.0641983 0.163597 -0.0231771 0.173304 0.0059488C0.238154 0.157624 0.293273 0.313273 0.33833 0.471959Z" fill="black"/>
</g>
<g style="mix-blend-mode:multiply" opacity="0.1" transform="translate(275.049 128.727)">
<path d="M5.92497e-07 0.242713L0.106783 -2.96284e-06C0.191352 0.104985 0.269173 0.215235 0.339768 0.330087C0.339768 0.330087 0.281512 0.485431 0.25239 0.5631L5.92497e-07 0.242713Z" fill="black"/>
</g>
<g style="mix-blend-mode:multiply" opacity="0.1" transform="translate(294.43 178.467)">
<path d="M0.324888 0.308658L0.00452477 0.260126C-0.00152564 0.176094 -0.00152564 0.0917249 0.00452477 0.00769219C0.107817 -0.0025609 0.211878 -0.0025609 0.315171 0.00769219C0.344293 0.182448 0.334595 0.308658 0.324888 0.308658Z" fill="black"/>
</g>
<g style="mix-blend-mode:multiply" opacity="0.1" transform="translate(309.491 162.58)">
<path d="M0.203845 0.574827L-3.55498e-06 0.157362C0.0582413 0.108819 0.155329 -0.0173966 0.165037 0.00202066C0.252718 0.138713 0.330565 0.281469 0.398006 0.429203L0.203845 0.574827Z" fill="black"/>
</g>
<g style="mix-blend-mode:multiply" opacity="0.1" transform="translate(332.584 190.697)">
<path d="M0.15601 -1.18514e-06L0.330738 0.116498L0.0880508 0.427181C0.0880508 0.349512 -0.00902035 0.252416 0.000687125 0.174747C0.0103946 0.0970781 0.107473 0.0582506 0.15601 -1.18514e-06Z" fill="black"/>
</g>
<g style="mix-blend-mode:multiply" opacity="0.1" transform="translate(295.462 167.756)">
<path d="M0.262105 0.0388369C0.262105 0.0388369 0.165016 0.165044 0.126186 0.155336C0.0873566 0.145627 0.0388441 0.0582459 1.42199e-05 -5.92568e-06L0.262105 0.0388369Z" fill="black"/>
</g>
<g style="mix-blend-mode:multiply" opacity="0.1" transform="translate(306.55 173.184)">
<path d="M0.135916 -9.48109e-06V0.203893L-2.36999e-06 0.0970828L0.135916 -9.48109e-06Z" fill="black"/>
</g>
<g style="mix-blend-mode:multiply" opacity="0.1" transform="translate(326.101 160.543)">
<path d="M0.135901 0.213592L1.18499e-05 0.0873754L0.155305 1.18514e-06L0.135901 0.213592Z" fill="black"/>
</g>
<g style="mix-blend-mode:multiply" opacity="0.1" transform="translate(288.766 178.31)">
<path d="M-9.47995e-06 0.135925L0.174748 -1.06662e-05C0.174748 0.145619 0.223272 0.300958 0.252394 0.456297C0.184442 0.456297 0.10679 0.456299 0.0485457 0.398047C-0.00969918 0.339795 0.0194055 0.223302 -9.47995e-06 0.135925Z" fill="black"/>
</g>
<g style="mix-blend-mode:multiply" opacity="0.1" transform="translate(337.691 179.028)">
<path d="M1.42199e-05 0.27185V9.48109e-06C0.0679665 9.48109e-06 0.155307 -1.42211e-05 0.184429 0.0970722C0.213551 0.194159 0.184429 0.271856 0.184429 0.368943L1.42199e-05 0.27185Z" fill="black"/>
</g>
<g style="mix-blend-mode:multiply" opacity="0.1" transform="translate(272.185 190.98)">
<path d="M3.55498e-06 0.231342C3.55498e-06 0.163381 6.5166e-06 0.0954293 0.0485439 0.0274688C0.0970812 -0.0404917 0.165033 0.0274747 0.184448 0.124561C0.203863 0.221647 0.184448 0.260474 0.184448 0.328434L3.55498e-06 0.231342Z" fill="black"/>
</g>
<g style="mix-blend-mode:multiply" opacity="0.1" transform="translate(318.042 182.756)">
<path d="M0.174721 0.223286L-5.92497e-06 0.300971C-5.92497e-06 0.223302 -5.92497e-06 0.0970793 -5.92497e-06 0.077662C-5.92497e-06 0.0582447 0.106789 0.0291318 0.165034 5.92568e-06L0.174721 0.223286Z" fill="black"/>
</g>
<g style="mix-blend-mode:multiply" opacity="0.1" transform="translate(278.494 183.377)">
<path d="M3.55498e-06 0.252425L0.0679482 -9.48109e-06C0.126193 -9.48109e-06 0.213568 0.048529 0.24269 0.116489C0.271813 0.18445 0.242693 0.281546 0.184448 0.368924L3.55498e-06 0.252425Z" fill="black"/>
</g>
<g style="mix-blend-mode:multiply" opacity="0.1" transform="translate(181.749 172.611)">
<path d="M0.669818 2.4854C0.386655 2.02983 0.161631 1.54059 0 1.02911C0 0.747557 0.203864 0.339796 0.310646 -5.92568e-06C0.636199 0.357952 0.919567 0.752107 1.15519 1.17473C1.23285 1.31065 0.93192 1.83492 0.669818 2.4854Z" fill="black"/>
</g>
<g style="mix-blend-mode:multiply" opacity="0.1" transform="translate(194.98 152.73)">
<path d="M4.73998e-06 0.685845C0.165032 0.452837 0.310639 0.0547809 0.495081 0.0159463C0.829041 -0.0321247 1.16959 0.0291742 1.46583 0.190695C1.54349 0.190695 1.46583 0.792642 1.46583 1.11303C1.14347 1.14816 0.819333 1.16436 0.495081 1.16156C0.349468 1.16156 0.213571 0.996522 0.0776663 0.899436L4.73998e-06 0.685845Z" fill="black"/>
</g>
<g style="mix-blend-mode:multiply" opacity="0.1" transform="translate(228.405 187.653)">
<path d="M1.07753 2.77253L-2.36999e-06 0.364774C0.18444 0.238561 0.495078 -0.0429845 0.514492 0.00555867C0.834839 0.675455 1.12607 1.3842 1.38817 2.11235C1.427 2.18031 1.26197 2.42302 1.07753 2.77253Z" fill="black"/>
</g>
<g style="mix-blend-mode:multiply" opacity="0.1" transform="translate(239.52 197.742)">
<path d="M-5.33248e-06 0.225907C0.291219 0.12882 0.601856 -0.0653444 0.650394 0.0220334C0.750812 0.337478 0.815939 0.663091 0.844555 0.992897C0.650406 0.992897 0.417415 1.15794 0.271803 1.05115C0.126191 0.944352 0.106777 0.594835 -5.33248e-06 0.225907Z" fill="black"/>
</g>
<g style="mix-blend-mode:multiply" opacity="0.1" transform="translate(146.143 166.683)">
<path d="M1.47681 1.06495C0.981731 1.40475 0.709924 1.74455 0.447823 1.72513C0.185721 1.70571 -0.0181351 1.18145 0.0012798 0.909608C0.03655 0.558273 0.207142 0.234432 0.476944 0.00668254C0.593434 -0.0612779 0.855534 0.395054 1.47681 1.06495Z" fill="black"/>
</g>
<g style="mix-blend-mode:multiply" opacity="0.1" transform="translate(148.686 139.844)">
<path d="M2.36999e-06 0.776703C0.0472153 0.510745 0.12204 0.250421 0.22327 -5.92568e-06C0.549083 0.0276096 0.873147 0.0729983 1.19402 0.135929C1.12607 0.349519 1.07753 0.728161 0.990161 0.747578C0.661964 0.791034 0.330186 0.800792 2.36999e-06 0.776703Z" fill="black"/>
</g>
<g style="mix-blend-mode:multiply" opacity="0.1" transform="translate(208.95 169.766)">
<path d="M0.601863 1.18514e-06L1.14548 0.650493C0.892534 0.931913 0.616539 1.1917 0.320353 1.42717C0.167949 1.23962 0.0585895 1.02087 4.14748e-06 0.786399C0.170855 0.502761 0.372712 0.239009 0.601863 1.18514e-06Z" fill="black"/>
</g>
<g style="mix-blend-mode:multiply" opacity="0.1" transform="translate(197.544 150.301)">
<path d="M0.388297 1.30365e-05L0.747469 0.718443L0.271812 1.14563C0.162582 0.890307 0.0717484 0.627506 4.14748e-06 0.359228C4.14748e-06 0.359228 0.213563 0.155351 0.388297 1.30365e-05Z" fill="black"/>
</g>
<g style="mix-blend-mode:multiply" opacity="0.1" transform="translate(178.158 182.436)">
<path d="M2.96249e-06 0.611638C0.10938 0.39351 0.242888 0.188341 0.398013 -1.06662e-05C0.398013 -1.06662e-05 0.698933 0.271848 0.689225 0.320391C0.606788 0.563833 0.506197 0.800723 0.388296 1.0291L2.96249e-06 0.611638Z" fill="black"/>
</g>
<g style="mix-blend-mode:multiply" opacity="0.1" transform="translate(166.693 174.407)">
<path d="M0.5145 1.20386L5.33247e-06 0.582524C0.108582 0.372939 0.24222 0.177326 0.398 0C0.456245 0 0.718354 0.194161 0.708647 0.291247C0.6743 0.60113 0.609267 0.906836 0.5145 1.20386Z" fill="black"/>
</g>
<g style="mix-blend-mode:multiply" opacity="0.1" transform="translate(154.724 145.52)">
<path d="M3.55498e-06 0.469827C3.55498e-06 0.30478 0.0776595 0.0329278 0.155319 0.00380186C0.232979 -0.0253241 0.378592 0.120308 0.504789 0.188268C0.456252 0.353315 0.417423 0.615459 0.339764 0.654294C0.262104 0.693128 0.106786 0.537788 3.55498e-06 0.469827Z" fill="black"/>
</g>
<g style="mix-blend-mode:multiply" opacity="0.1" transform="translate(235.763 192.27)">
<path d="M-5.92497e-07 0.0992694C0.0582442 0.0992694 0.135901 -0.0172402 0.194146 0.00217708C0.252391 0.0215944 0.271816 0.167224 0.310646 0.244893L0.0194185 0.409953C0.00971103 0.293449 0.00970688 0.186647 -5.92497e-07 0.0992694Z" fill="black"/>
</g>
<g style="mix-blend-mode:multiply" opacity="0.1" transform="translate(203.717 142.32)">
<path d="M0.485378 0.463987C0.378596 0.551364 0.242694 0.735849 0.184449 0.697014C0.126204 0.65818 0.0582496 0.396036 4.73998e-06 0.230989C0.0970795 0.15332 0.24268 -0.0408638 0.291217 0.00767944C0.382422 0.147093 0.44817 0.301593 0.485378 0.463987Z" fill="black"/>
</g>
<g style="mix-blend-mode:multiply" opacity="0.1" transform="translate(210.641 193.018)">
<path d="M0.271803 0.78641L-5.33247e-06 0.398041L0.271803 1.30365e-05L0.533909 0.417477L0.271803 0.78641Z" fill="black"/>
</g>
<g style="mix-blend-mode:multiply" opacity="0.1" transform="translate(194.877 195.482)">
<path d="M0.32868 0.766982C0.221898 0.679605 0.0471618 0.640761 0.00833193 0.514548C-0.030498 0.388336 0.0762795 0.174747 0.124817 -8.29596e-06C0.241307 0.0873695 0.406335 0.135911 0.445165 0.271832C0.483995 0.407753 0.377218 0.631062 0.32868 0.766982Z" fill="black"/>
</g>
<g style="mix-blend-mode:multiply" opacity="0.1" transform="translate(134.232 189.766)">
<path d="M0.155319 0.524252L2.96249e-06 0.359222C0.0620994 0.234304 0.133482 0.114231 0.213561 7.11082e-06C0.213561 7.11082e-06 0.310637 0.0970971 0.359175 0.155349L0.155319 0.524252Z" fill="black"/>
</g>
<g style="mix-blend-mode:multiply" opacity="0.1" transform="translate(139.902 130.135)">
<path d="M0.339759 -5.92568e-06L0.640696 0.388348C0.524207 0.504852 0.407711 0.708726 0.300929 0.699017C0.194147 0.689309 0.0970741 0.46602 -5.92497e-07 0.330099L0.339759 -5.92568e-06Z" fill="black"/>
</g>
<g style="mix-blend-mode:multiply" opacity="0.1" transform="translate(223.191 177.28)">
<path d="M0.155325 0.524266L2.36999e-06 0.368925C0.0605544 0.242002 0.12862 0.118802 0.203851 -8.29596e-06C0.203851 -8.29596e-06 0.300935 0.0970722 0.349472 0.145615L0.155325 0.524266Z" fill="black"/>
</g>
<g style="mix-blend-mode:multiply" opacity="0.1" transform="translate(213.861 198.271)">
<path d="M0.0112057 -1.30365e-05L0.331554 0.0582661C0.331554 0.135935 0.331554 0.300962 0.331554 0.310671C0.224995 0.320426 0.117765 0.320426 0.0112057 0.310671C-0.00820928 0.17475 0.0014982 0.0873647 0.0112057 -1.30365e-05Z" fill="black"/>
</g>
<g style="mix-blend-mode:multiply" opacity="0.1" transform="translate(227.036 134.32)">
<path d="M-5.92497e-06 0.330097C0.106776 0.213593 0.223268 6.51825e-06 0.320342 6.51825e-06C0.417417 6.51825e-06 0.533914 0.2233 0.630989 0.359221C0.514499 0.475725 0.40772 0.689312 0.300938 0.689312C0.194156 0.689312 0.0970688 0.4466 -5.92497e-06 0.330097Z" fill="black"/>
</g>
<g style="mix-blend-mode:multiply" opacity="0.1" transform="translate(227.132 158.969)">
<path d="M0.203863 0.514563L0 0.388346C0.0639571 0.255049 0.135256 0.125408 0.213566 5.92568e-06C0.264775 0.0492134 0.313373 0.101067 0.359172 0.155348L0.203863 0.514563Z" fill="black"/>
</g>
<g style="mix-blend-mode:multiply" opacity="0.1" transform="translate(175.702 185.96)">
<path d="M0.174732 0.436895L4.14748e-06 0.320396L0.242691 -5.92568e-06C0.242691 0.0873718 0.339767 0.184468 0.320353 0.252428C0.300938 0.320389 0.232976 0.378643 0.174732 0.436895Z" fill="black"/>
</g>
<g style="mix-blend-mode:multiply" opacity="0.1" transform="translate(219.599 198.338)">
<path d="M0.252394 0.310678L0.0776669 0.446583L5.33247e-06 -5.92568e-06C0.0679576 -5.92568e-06 0.145609 -8.29321e-06 0.203854 0.0582435C0.262099 0.116495 0.242687 0.2233 0.252394 0.310678Z" fill="black"/>
</g>
<g style="mix-blend-mode:multiply" opacity="0.1" transform="translate(170.739 197.697)">
<path d="M0.197386 0.0970828C0.197386 0.184461 0.197386 0.281546 0.197386 0.368924C0.197386 0.456301 0.0420639 0.368918 0.0129415 0.271831C-0.0161809 0.174745 0.0129415 0.0970769 0.0129415 -9.48109e-06L0.197386 0.0970828Z" fill="black"/>
</g>
<g style="mix-blend-mode:multiply" opacity="0.1" transform="translate(206.446 150.301)">
<path d="M2.36999e-06 0.116512L0.232972 1.30365e-05L0.281513 0.262136L2.36999e-06 0.116512Z" fill="black"/>
</g>
<g style="mix-blend-mode:multiply" opacity="0.1" transform="translate(214.144 166.755)">
<path d="M-4.73998e-06 0.155337L0.145616 -4.74055e-06L0.262101 0.339804C0.203856 0.339804 0.135902 0.398055 0.0776568 0.339804C0.019412 0.281552 0.0291177 0.223298 -4.73998e-06 0.155337Z" fill="black"/>
</g>
<g style="mix-blend-mode:multiply" opacity="0.1" transform="translate(194.68 153.427)">
<path d="M0.417421 0.213576L7.10996e-06 0.543696L0.291219 1.42216e-05L0.417421 0.213576Z" fill="black"/>
</g>
<g style="mix-blend-mode:multiply" opacity="0.1" transform="translate(236.249 185.784)">
<path d="M0.193067 0.0970935C0.193067 0.165054 0.193064 0.233006 0.144527 0.300967C0.0959896 0.368927 0.0280379 0.300961 0.00862294 0.203874C-0.010792 0.106788 0.00862294 0.0776703 0.00862294 1.18514e-06L0.193067 0.0970935Z" fill="black"/>
</g>
<g style="mix-blend-mode:multiply" opacity="0.1" transform="translate(190.393 194.036)">
<path d="M0.0144416 0.0776573L0.189184 1.18514e-06C0.199421 0.074082 0.199421 0.14923 0.189184 0.223311C0.189184 0.281562 0.0823886 0.281549 0.0241437 0.300967C-0.0341011 0.320384 0.0338565 0.155326 0.0144416 0.0776573Z" fill="black"/>
</g>
<g style="mix-blend-mode:multiply" opacity="0.1" transform="translate(229.888 193.309)">
<path d="M0.244401 0.106782L0.186158 0.368934C0.127913 0.368934 0.0405532 0.320396 0.0114308 0.252435C-0.0176916 0.184475 0.0114284 0.0873789 0.0696733 1.18514e-06L0.244401 0.106782Z" fill="black"/>
</g>
<g style="mix-blend-mode:multiply" opacity="0.1" transform="translate(145.413 103.848)">
<path d="M2.20526 1.42294L0.516164 4.24816C0.331722 3.99573 -0.0274536 3.67535 0.00166881 3.52001C0.173124 2.53452 0.409863 1.56151 0.710318 0.607417C0.807392 0.30645 1.24423 -0.0818965 1.37043 0.0151899C1.7115 0.444237 1.99237 0.917862 2.20526 1.42294Z" fill="black"/>
</g>
<g style="mix-blend-mode:multiply" opacity="0.1" transform="translate(153.21 146.367)">
<path d="M0.786309 2.31066C0.485141 1.80349 0.222301 1.27451 -1.48124e-06 0.728143C0.115521 0.452807 0.287487 0.204755 0.504791 -4.74055e-06C0.853277 0.441483 1.17734 0.901727 1.47554 1.37864L0.786309 2.31066Z" fill="black"/>
</g>
<g style="mix-blend-mode:multiply" opacity="0.1" transform="translate(147.347 79.3398)">
<path d="M1.06783 0.00970508C1.28447 0.451045 1.41931 0.928005 1.46583 1.41745C1.46583 1.78638 0.99016 2.28152 0.728058 2.28152C0.465956 2.28152 0.048535 1.77668 -2.36999e-06 1.40775C0.0434638 0.918917 0.175018 0.441985 0.388298 1.7777e-06L1.06783 0.00970508Z" fill="black"/>
</g>
<g style="mix-blend-mode:multiply" opacity="0.1" transform="translate(131.945 52.0869)">
<path d="M0.268817 2.85434C0.123205 1.98056 -0.0709443 1.48542 0.0261304 1.25242C0.255015 0.804043 0.535172 0.38375 0.860974 -5.33311e-06C0.967756 0.359214 1.22986 0.805813 1.1619 1.04853C0.921346 1.67708 0.622341 2.28167 0.268817 2.85434Z" fill="black"/>
</g>
<g style="mix-blend-mode:multiply" opacity="0.1" transform="translate(156.17 127.631)">
<path d="M0.446544 2.60192C0.229534 2.04232 0.0796406 1.45897 1.48124e-06 0.864075C1.48124e-06 0.572816 0.359178 0.281558 0.553327 7.11082e-06C0.785873 0.403511 0.959146 0.838371 1.06782 1.29124C1.06782 1.63105 0.776598 1.96114 0.446544 2.60192Z" fill="black"/>
</g>
<g style="mix-blend-mode:multiply" opacity="0.1" transform="translate(131.077 93.1929)">
<path d="M1.79588 0.621821C1.32022 1.18492 1.07753 1.7286 0.825137 1.75773C0.572742 1.78686 0.28152 1.282 2.96249e-06 1.01016C0.271812 0.680067 0.514495 0.214052 0.815427 0.0392969C1.11636 -0.135459 1.2911 0.311145 1.79588 0.621821Z" fill="black"/>
</g>
<g style="mix-blend-mode:multiply" opacity="0.1" transform="translate(161.817 53.3496)">
<path d="M1.30371 0.728145L0.507705 2.10677C0.323263 1.82522 -0.0359172 1.44659 0.00291265 1.26212C0.121148 0.805048 0.329036 0.376027 0.614488 -2.37027e-06C0.614488 -2.37027e-06 0.993071 0.398052 1.30371 0.728145Z" fill="black"/>
</g>
<g style="mix-blend-mode:multiply" opacity="0.1" transform="translate(211.262 56.5303)">
<path d="M1.98033 1.08072C1.2911 1.34285 0.941631 1.64382 0.679529 1.51761C0.417427 1.39139 0.223266 0.847712 -5.92497e-06 0.488492C0.300926 0.304028 0.611578 -0.0357746 0.893095 0.00305995C1.17461 0.0418945 1.41729 0.498201 1.98033 1.08072Z" fill="black"/>
</g>
<g style="mix-blend-mode:multiply" opacity="0.1" transform="translate(154.662 42.6123)">
<path d="M0.556628 0C0.711563 0.376602 0.83179 0.766563 0.915807 1.16503C0.915807 1.28154 0.527509 1.66988 0.469264 1.60192C0.24569 1.34882 0.0859182 1.0459 0.00330238 0.718445C-0.0355275 0.650484 0.275111 0.349511 0.556628 0Z" fill="black"/>
</g>
<g style="mix-blend-mode:multiply" opacity="0.1" transform="translate(158.754 113.287)">
<path d="M0.844543 1.02322L0.194144 1.26593L-2.36999e-06 0.110604C0.194147 0.110604 0.456245 -0.083576 0.572735 0.0426363C0.715949 0.352574 0.807751 0.683774 0.844543 1.02322Z" fill="black"/>
</g>
<g style="mix-blend-mode:multiply" opacity="0.1" transform="translate(132.961 87.0376)">
<path d="M0.446541 1.03883C0.232976 0.932031 -2.07374e-06 0.844653 -2.07374e-06 0.79611C0.0289032 0.527522 0.0775741 0.261424 0.145612 -5.33312e-06C0.271809 0.0679551 0.495083 0.0970929 0.504791 0.194179C0.510776 0.476908 0.491277 0.759596 0.446541 1.03883Z" fill="black"/>
</g>
<g style="mix-blend-mode:multiply" opacity="0.1" transform="translate(206.077 101.844)">
<path d="M1.00958 0.631268C0.737774 0.873984 0.553333 1.16523 0.388305 1.13611C0.223278 1.10698 0.135902 0.747766 -2.36999e-06 0.534176C0.155317 0.340003 0.320344 0.00990662 0.485371 0.000197983C0.650398 -0.00951065 0.776604 0.330301 1.00958 0.631268Z" fill="black"/>
</g>
<g style="mix-blend-mode:multiply" opacity="0.1" transform="translate(184.178 34.9502)">
<path d="M1.21343 0.57301C0.88338 0.941939 0.679524 1.31086 0.592156 1.25261C0.359556 1.03713 0.160021 0.788505 0 0.514761C0.145612 0.330297 0.310646 -0.00950441 0.44655 0.000204229C0.582455 0.00991287 0.834843 0.29146 1.21343 0.57301Z" fill="black"/>
</g>
<g style="mix-blend-mode:multiply" opacity="0.1" transform="translate(152.812 50.832)">
<path d="M1.20373 0.555464C0.88338 0.904975 0.698938 1.22536 0.475666 1.30303C0.252395 1.3807 0.165029 1.00208 2.36999e-06 0.82732C0.135214 0.532008 0.311715 0.257408 0.524207 0.0117829C0.621282 -0.0658862 0.854258 0.254497 1.20373 0.555464Z" fill="black"/>
</g>
<g style="mix-blend-mode:multiply" opacity="0.1" transform="translate(201.387 57.8535)">
<path d="M-4.14748e-06 0.398055L0.572748 -2.96284e-06C0.694703 0.28502 0.776383 0.585636 0.815435 0.89319C0.815435 1.05824 0.533916 1.21359 0.388304 1.35922L-4.14748e-06 0.398055Z" fill="black"/>
</g>
<g style="mix-blend-mode:multiply" opacity="0.1" transform="translate(184.729 53.6978)">
<path d="M0.33976 1.39851C0.175118 1.09523 0.0604035 0.76741 7.10997e-06 0.427643C7.10997e-06 0.272304 0.252394 0.0878325 0.417421 0.0101634C0.582448 -0.0675057 0.660114 0.320846 0.650406 0.456767C0.583428 0.781586 0.479185 1.09759 0.33976 1.39851Z" fill="black"/>
</g>
<g style="mix-blend-mode:multiply" opacity="0.1" transform="translate(168.771 82.7466)">
<path d="M0.407717 1.08737L4.73998e-06 0.679598C0.098159 0.444092 0.215023 0.216833 0.349474 -3.55541e-06C0.349474 -3.55541e-06 0.660102 0.242709 0.640687 0.330087C0.587094 0.589298 0.509096 0.842868 0.407717 1.08737Z" fill="black"/>
</g>
<g style="mix-blend-mode:multiply" opacity="0.1" transform="translate(163.424 36.1436)">
<path d="M-4.73998e-06 0.380595C0.320342 0.186422 0.514499 -0.0562835 0.660111 0.0116769C0.805723 0.0796374 0.854254 0.458266 0.941621 0.700982C0.815424 0.798068 0.669817 1.03108 0.58245 0.982541C0.495082 0.933998 0.271805 0.681563 -4.73998e-06 0.380595Z" fill="black"/>
</g>
<g style="mix-blend-mode:multiply" opacity="0.1" transform="translate(159.1 119.63)">
<path d="M0.381168 1.36892C0.196726 0.999995 -0.0265451 0.747558 0.00257735 0.582511C0.0706705 0.351299 0.20995 0.147465 0.400587 1.7777e-06C0.400587 1.7777e-06 0.682103 0.271838 0.672395 0.388341C0.604856 0.723256 0.507387 1.05144 0.381168 1.36892Z" fill="black"/>
</g>
<g style="mix-blend-mode:multiply" opacity="0.1" transform="translate(148.686 125.761)">
<path d="M0.931919 0.587183C0.62128 0.810482 0.407712 1.08233 0.291222 1.01437C0.174732 0.946405 0.0873696 0.538633 2.36999e-06 0.2765C0.1262 0.179413 0.271809 -0.0341756 0.368884 0.0046589C0.465958 0.0434935 0.669817 0.266798 0.931919 0.587183Z" fill="black"/>
</g>
<g style="mix-blend-mode:multiply" opacity="0.1" transform="translate(156.657 61.5044)">
<path d="M1.48124e-06 0.524266L0.223269 6.51825e-06L0.621272 0.436892C0.51449 0.582522 0.427132 0.805819 0.32035 0.844653C0.213568 0.883488 0.106784 0.631061 1.48124e-06 0.524266Z" fill="black"/>
</g>
<g style="mix-blend-mode:multiply" opacity="0.1" transform="translate(190.555 146.785)">
<path d="M0.320341 0.291265C0.252388 0.291265 0.184439 0.398066 0.126194 0.388357C0.0679494 0.378649 0.0485445 0.242717 7.10997e-06 0.165048L0.291219 -1.18514e-05C0.310634 0.0970745 0.310633 0.194179 0.320341 0.291265Z" fill="black"/>
</g>
<g style="mix-blend-mode:multiply" opacity="0.1" transform="translate(170.801 129.262)">
<path d="M0.505939 0C0.632874 0.342949 0.708117 0.702873 0.729207 1.06796C0.649847 1.28446 0.489832 1.46188 0.282656 1.56309C0.214704 1.56309 -0.0182687 1.31067 0.00114624 1.26213C0.141144 0.830654 0.309786 0.409007 0.505939 0Z" fill="black"/>
</g>
<g style="mix-blend-mode:multiply" opacity="0.1" transform="translate(128.971 110.65)">
<path d="M0.718356 0.0973303C0.687483 0.30493 0.628707 0.507417 0.543621 0.699276C0.352879 0.660132 0.169442 0.591331 -2.66624e-06 0.495388C-2.66624e-06 0.320633 0.0873661 0.00996145 0.145611 0.000252812C0.340896 -0.00323704 0.535127 0.0296778 0.718356 0.0973303Z" fill="black"/>
</g>
<g style="mix-blend-mode:multiply" opacity="0.1" transform="translate(180.508 103.314)">
<path d="M0.543617 0.568428L0.194148 0.869394L1.18499e-06 0.131542C0.126198 0.131542 0.291225 -0.0529318 0.378592 0.0150287C0.465959 0.0829892 0.485373 0.374255 0.543617 0.568428Z" fill="black"/>
</g>
<g style="mix-blend-mode:multiply" opacity="0.1" transform="translate(187.274 99.9126)">
<path d="M0.475659 0.223299C0.427122 0.398054 0.398001 0.650483 0.310634 0.728152C0.223267 0.805821 0.00970984 0.631069 2.36999e-06 0.533982C0.0108552 0.350028 0.0535596 0.169351 0.126204 4.14798e-06L0.475659 0.223299Z" fill="black"/>
</g>
<g style="mix-blend-mode:multiply" opacity="0.1" transform="translate(156.47 97.7271)">
<path d="M0.651391 0.533982C0.539675 0.723701 0.406097 0.899652 0.253388 1.05824C0.253388 1.05824 -0.0184232 0.747572 0.00099179 0.669903C0.0736746 0.43519 0.17473 0.210225 0.301921 4.14798e-06L0.651391 0.533982Z" fill="black"/>
</g>
<g style="mix-blend-mode:multiply" opacity="0.1" transform="translate(150.541 87.793)">
<path d="M0.563034 0.449194C0.456252 0.555989 0.330051 0.759873 0.232976 0.740456C0.135901 0.721038 0.0776583 0.458908 -1.48124e-06 0.30357C0.106781 0.196775 0.23298 -0.0265362 0.320347 0.00258974C0.407714 0.0317157 0.485374 0.293855 0.563034 0.449194Z" fill="black"/>
</g>
<g style="mix-blend-mode:multiply" opacity="0.1" transform="translate(211.574 74.3984)">
<path d="M0.113362 0.786403C0.113362 0.601939 -0.0322504 0.368928 0.00657947 0.252425C0.0454094 0.135921 0.229857 0.0776744 0.346347 5.33311e-06C0.346347 0.174761 0.49196 0.41747 0.45313 0.524265C0.4143 0.63106 0.229852 0.699025 0.113362 0.786403Z" fill="black"/>
</g>
<g style="mix-blend-mode:multiply" opacity="0.1" transform="translate(166.907 66.3975)">
<path d="M0.349476 0.233013L0.0970724 0.52426C0.0578561 0.453001 0.0253666 0.37825 6.51747e-06 0.300965C0.0776663 0.184462 0.165028 0.0970864 0.252395 0L0.349476 0.233013Z" fill="black"/>
</g>
<g style="mix-blend-mode:multiply" opacity="0.1" transform="translate(186.35 26.5137)">
<path d="M0.203854 0.56372L5.33247e-06 0.155959C0.0582502 0.0977074 0.145606 -0.00909112 0.155314 0.000617513C0.233819 0.129244 0.305118 0.262137 0.368879 0.398675L0.203854 0.56372Z" fill="black"/>
</g>
<g style="mix-blend-mode:multiply" opacity="0.1" transform="translate(135.648 17.6123)">
<path d="M0.232979 0L0.388302 0.184466C0.319163 0.315728 0.241324 0.442222 0.155318 0.563103C0.155318 0.563103 0.0485394 0.45631 2.07374e-06 0.398058L0.232979 0Z" fill="black"/>
</g>
<g style="mix-blend-mode:multiply" opacity="0.1" transform="translate(170.859 34.6895)">
<path d="M0.232983 -3.55541e-06C0.291228 0.0679569 0.388297 0.174758 0.37859 0.203884C0.368882 0.23301 0.232982 0.485437 0.155322 0.631067C0.100058 0.569215 0.0482042 0.504382 -1.18499e-06 0.436882C0.0776586 0.281544 0.155324 0.145626 0.232983 -3.55541e-06Z" fill="black"/>
</g>
<g style="mix-blend-mode:multiply" opacity="0.1" transform="translate(176.723 43.2983)">
<path d="M0.368621 0.458805C0.252438 0.470751 0.135335 0.470751 0.0191514 0.458805C-0.00638855 0.363398 -0.00638855 0.262964 0.0191514 0.167557C0.0191514 0.0801795 0.164767 -0.0169051 0.174475 0.00251216C0.249795 0.14988 0.314668 0.302343 0.368621 0.458805Z" fill="black"/>
</g>
<g style="mix-blend-mode:multiply" opacity="0.1" transform="translate(200.71 96.7832)">
<path d="M0.213564 0.536142L-1.18499e-06 0.147788C0.0582437 0.0992449 0.145609 -0.0172529 0.165024 0.00216439C0.247208 0.125253 0.31866 0.255174 0.37859 0.390504L0.213564 0.536142Z" fill="black"/>
</g>
<g style="mix-blend-mode:multiply" opacity="0.1" transform="translate(182.246 92.8828)">
<path d="M0.407707 0.310682L0.28152 0.553398L-5.33247e-06 0.223293C0.0333733 0.146141 0.0723155 0.0715159 0.116494 -1.18514e-06C0.220433 0.0969013 0.317716 0.200702 0.407707 0.310682Z" fill="black"/>
</g>
<g style="mix-blend-mode:multiply" opacity="0.1" transform="translate(176.663 91.3975)">
<path d="M0.0776562 0L0.417424 0.223295C0.346248 0.367881 0.265159 0.507379 0.174737 0.640774C0.174737 0.640774 -5.33247e-06 0.553397 -5.33247e-06 0.504853C0.0144893 0.335014 0.0404367 0.166343 0.0776562 0Z" fill="black"/>
</g>
<g style="mix-blend-mode:multiply" opacity="0.1" transform="translate(179.372 87.3486)">
<path d="M0.427134 0.165047C0.427134 0.262133 0.427127 0.359223 0.359175 0.456309L2.96249e-06 0.281546L0.0582454 1.7777e-06C0.185436 0.0450292 0.3088 0.100221 0.427134 0.165047Z" fill="black"/>
</g>
<g style="mix-blend-mode:multiply" opacity="0.1" transform="translate(209.493 81.6504)">
<path d="M0.388295 0.3398L0.27181 0.601937C0.174735 0.485434 0.0776616 0.378638 1.77749e-06 0.252426C0.0257909 0.164464 0.0616215 0.0797703 0.106785 6.51825e-06L0.388295 0.3398Z" fill="black"/>
</g>
<g style="mix-blend-mode:multiply" opacity="0.1" transform="translate(167.791 147.027)">
<path d="M0.621273 0.359567C0.514491 0.476071 0.407707 0.67993 0.300925 0.670221C0.194142 0.660513 0.09707 0.446927 -4.73998e-06 0.311006C0.106777 0.194503 0.223269 -0.00938589 0.320344 0.000322746C0.417418 0.0100314 0.524198 0.223646 0.621273 0.359567Z" fill="black"/>
</g>
<g style="mix-blend-mode:multiply" opacity="0.1" transform="translate(188.934 144.445)">
<path d="M0.388302 0.349511L0.2621 0.601945C0.167923 0.483953 0.0804148 0.36078 -5.92497e-06 0.233012C0.0347433 0.151597 0.0769958 0.073601 0.126196 1.42216e-05L0.388302 0.349511Z" fill="black"/>
</g>
<g style="mix-blend-mode:multiply" opacity="0.1" transform="translate(200.767 137.484)">
<path d="M0.15532 0.514558L-3.55498e-06 0.300967C0.0840527 0.191919 0.178327 0.0911426 0.281521 1.18514e-06C0.281521 1.18514e-06 0.37859 0.126225 0.427128 0.194186L0.15532 0.514558Z" fill="black"/>
</g>
<g style="mix-blend-mode:multiply" opacity="0.1" transform="translate(137.3 25.0293)">
<path d="M-8.88746e-07 0.203887L0.0679511 -5.92568e-07C0.0679511 -5.92568e-07 0.18444 0.0582465 0.203855 0.116498C0.22327 0.17475 0.203858 0.252426 0.145613 0.320386L-8.88746e-07 0.203887Z" fill="black"/>
</g>
<g style="mix-blend-mode:multiply" opacity="0.1" transform="translate(158.491 57.5918)">
<path d="M0.203857 -7.11082e-06L0.35918 0.155335C0.297052 0.280235 0.225663 0.40032 0.145614 0.514564C0.145614 0.514564 0.0485309 0.427187 -6.51747e-06 0.378644L0.203857 -7.11082e-06Z" fill="black"/>
</g>
<g style="mix-blend-mode:multiply" opacity="0.1" transform="translate(143.018 105.31)">
<path d="M0.106781 1.7777e-06C0.174734 1.7777e-06 0.262103 0.058253 0.291226 0.135922C0.320348 0.213591 0.291226 0.32038 0.291226 0.417466L-1.48124e-06 0.213593L0.106781 1.7777e-06Z" fill="black"/>
</g>
<g style="mix-blend-mode:multiply" opacity="0.1" transform="translate(184.604 23.9316)">
<path d="M0.359174 0.242711L0.0970682 0.514551C0.0603116 0.442109 0.027905 0.367549 2.36999e-06 0.291257C0.0792114 0.187126 0.16688 0.0897063 0.262108 -5.33311e-06L0.359174 0.242711Z" fill="black"/>
</g>
<g style="mix-blend-mode:multiply" opacity="0.1" transform="translate(149.445 91.6597)">
<path d="M0.0291224 4.14798e-06C0.0777128 0.0874465 0.110569 0.182738 0.126196 0.281548C0.126196 0.359217 0.0388311 0.436882 1.18499e-06 0.504843C0.0291236 0.339796 0.0291224 0.17476 0.0291224 4.14798e-06Z" fill="black"/>
</g>
<g style="mix-blend-mode:multiply" opacity="0.1" transform="translate(154.987 88.0767)">
<path d="M0.145614 0.31067L2.96249e-07 0.135922C0.0582451 0.135922 0.116488 1.7777e-06 0.165026 1.7777e-06C0.213563 1.7777e-06 0.262102 0.116498 0.310639 0.17475L0.145614 0.31067Z" fill="black"/>
</g>
<g style="mix-blend-mode:multiply" opacity="0.1" transform="translate(192.759 97.397)">
<path d="M0.0970771 -7.11082e-06L0.15532 0.252427L-3.55498e-06 0.213584L0.0970771 -7.11082e-06Z" fill="black"/>
</g>
<g style="mix-blend-mode:multiply" opacity="0.1" transform="translate(172.983 54.3877)">
<path d="M0.000316712 0.116504L0.145923 4.74055e-06L0.204165 0.388344C0.145921 0.388344 0.0779753 0.388341 0.0294379 0.339798C0.00789331 0.267393 -0.00193705 0.192013 0.000316712 0.116504Z" fill="black"/>
</g>
<g style="mix-blend-mode:multiply" opacity="0.1" transform="translate(141.104 52.5425)">
<path d="M0.0679493 0.417475L-2.66624e-06 0.0679634L0.15532 -4.14798e-06L0.0679493 0.417475Z" fill="black"/>
</g>
<g style="mix-blend-mode:multiply" opacity="0.1" transform="translate(140.931 83.9126)">
<path d="M0.174732 0.388348L-2.96249e-06 0.300974C0.0679494 0.203887 0.126197 0.0970799 0.184441 -6.51825e-06L0.310636 0.213585L0.174732 0.388348Z" fill="black"/>
</g>
<g style="mix-blend-mode:multiply" opacity="0.1" transform="translate(181.294 142.737)">
<path d="M0.155322 0.262127L-1.18499e-06 0.184471L0.223267 4.74055e-06L0.155322 0.262127Z" fill="black"/>
</g>
<g style="mix-blend-mode:multiply" opacity="0.1" transform="translate(178.558 146.154)">
<path d="M0.223274 0.271835L0.0873702 0.504862C0.0401089 0.421115 0.0103868 0.328625 6.51747e-06 0.233022C6.51747e-06 0.155352 0.0776562 0.0776632 0.126194 -5.92568e-06L0.223274 0.271835Z" fill="black"/>
</g>
<g style="mix-blend-mode:multiply" opacity="0.1" transform="translate(154.329 55.8252)">
<path d="M0.21033 5.92568e-07C0.21033 0.0873783 0.268575 0.213591 0.21033 0.242717C0.158289 0.288611 0.094359 0.318892 0.0258854 0.330091C0.0258854 0.242713 -0.0323594 0.116501 0.0258854 0.0873748C0.0794031 0.043771 0.142693 0.0137929 0.21033 5.92568e-07Z" fill="black"/>
</g>
<g style="mix-blend-mode:multiply" opacity="0.1" transform="translate(180.179 51.3047)">
<path d="M0.242692 0.287001C0.184447 0.287001 0.0873643 0.384095 0.0679493 0.354969C0.032734 0.264604 0.00988458 0.169891 4.73998e-06 0.0734101C0.0582496 0.0734101 0.155317 -0.0236686 0.174732 0.0054573C0.209102 0.0960851 0.23194 0.190672 0.242692 0.287001Z" fill="black"/>
</g>
<g style="mix-blend-mode:multiply" opacity="0.1" transform="translate(175.614 25.3916)">
<path d="M0.244263 0.298525C0.186018 0.298525 0.0986577 0.395609 0.0695353 0.356774C0.0404129 0.31794 0.0209908 0.18202 0.00157588 0.0849334C-0.0178391 -0.012153 0.147196 -0.0121601 0.176318 0.0169659C0.214647 0.106324 0.237613 0.201519 0.244263 0.298525Z" fill="black"/>
</g>
<g style="mix-blend-mode:multiply" opacity="0.1" transform="translate(169.887 18.1074)">
<path d="M0.223267 0.252429L0.0970795 0.475723C0.0510615 0.397493 0.018257 0.312212 -1.18499e-06 0.223304C-1.18499e-06 0.145635 0.0776539 0.0776638 0.116484 -5.33311e-06L0.223267 0.252429Z" fill="black"/>
</g>
<g style="mix-blend-mode:multiply" opacity="0.1" transform="translate(255.129 70.5327)">
<path d="M-3.55498e-06 2.81551L1.6988 -5.33311e-06C1.87354 0.242711 2.24242 0.563096 2.2133 0.728142C2.04576 1.71356 1.81226 2.68661 1.51436 3.64073C1.41729 3.9417 0.980456 4.32034 0.854259 4.22326C0.505759 3.79579 0.218259 3.32202 -3.55498e-06 2.81551Z" fill="black"/>
</g>
<g style="mix-blend-mode:multiply" opacity="0.1" transform="translate(207.215 28.5146)">
<path d="M1.0078 -4.14798e-06C1.21166 0.436885 1.42522 0.6796 1.41551 0.97086C1.41201 1.5283 1.33697 2.08299 1.19225 2.62133C0.965062 3.28217 0.70257 3.93034 0.405929 4.56305C0.28944 4.42713 0.0758841 4.31064 0.0661766 4.16501C-0.0220549 3.3324 -0.0220549 2.49279 0.0661766 1.66018C0.275431 1.05364 0.594635 0.490849 1.0078 -4.14798e-06Z" fill="black"/>
</g>
<g style="mix-blend-mode:multiply" opacity="0.1" transform="translate(367.609 100.592)">
<path d="M-8.29496e-06 0.708265C0.58244 0.358754 0.970747 -0.0684269 1.25226 0.00924222C2.02886 0.203415 2.3395 1.14516 2.22301 2.24223C2.108 2.67968 1.91747 3.09366 1.65999 3.46552L-8.29496e-06 0.708265Z" fill="black"/>
</g>
<g style="mix-blend-mode:multiply" opacity="0.1" transform="translate(189.438 16.7168)">
<path d="M-1.77749e-06 1.0692C0.359175 0.583765 0.592159 0.0303814 0.854261 0.00125551C1.11636 -0.0278704 1.41729 0.457567 1.69881 0.7197L1.00958 2.16628L-1.77749e-06 1.0692Z" fill="black"/>
</g>
<g style="mix-blend-mode:multiply" opacity="0.1" transform="translate(248.073 29.9229)">
<path d="M0.689229 -7.11082e-06C0.991545 0.506535 1.25442 1.03561 1.47553 1.58251C1.36268 1.8593 1.19035 2.10788 0.970754 2.31065C0.623897 1.86795 0.299891 1.40781 7.10997e-06 0.932029L0.689229 -7.11082e-06Z" fill="black"/>
</g>
<g style="mix-blend-mode:multiply" opacity="0.1" transform="translate(253.916 96.999)">
<path d="M0.398006 2.27196C0.182163 1.83031 0.047352 1.3535 -3.55498e-06 0.86421C-3.55498e-06 0.495282 0.475672 -0.00956655 0.737774 0.000142085C0.999876 0.00985072 1.4173 0.504985 1.46583 0.873914C1.42031 1.36237 1.28885 1.83895 1.07753 2.28166L0.398006 2.27196Z" fill="black"/>
</g>
<g style="mix-blend-mode:multiply" opacity="0.1" transform="translate(211.979 27.0728)">
<path d="M-5.92497e-07 0.481371C0.349468 0.306615 0.737769 -0.0817411 1.04841 0.0153453C1.35905 0.112432 1.59202 0.704666 1.67939 1.16097C1.72793 1.39398 1.35904 2.13184 1.22314 2.13184C0.931912 2.13184 0.660102 1.69494 0.388292 1.44252L-5.92497e-07 0.481371Z" fill="black"/>
</g>
<g style="mix-blend-mode:multiply" opacity="0.1" transform="translate(356.194 73.3789)">
<path d="M0.660113 2.48541C0.379413 2.02984 0.157615 1.5405 1.18499e-05 1.02912C1.18499e-05 0.747565 0.203846 0.349513 0.310629 2.37027e-06C0.636382 0.357797 0.919797 0.751977 1.1552 1.17474C1.21345 1.31066 0.912507 1.82522 0.660113 2.48541Z" fill="black"/>
</g>
<g style="mix-blend-mode:multiply" opacity="0.1" transform="translate(269.627 123.698)">
<path d="M0.906847 4.14798e-06C1.06589 0.51918 1.14766 1.05893 1.14953 1.60192C0.921107 2.05057 0.640916 2.47091 0.314691 2.85435C0.207909 2.49513 -0.0639131 2.04853 0.0137467 1.80581C0.252241 1.17636 0.551356 0.57158 0.906847 4.14798e-06Z" fill="black"/>
</g>
<g style="mix-blend-mode:multiply" opacity="0.1" transform="translate(245.509 48.3784)">
<path d="M0.623131 2.37027e-06C0.840845 0.559368 0.990753 1.1428 1.06967 1.73784C1.06967 2.0291 0.710498 2.32036 0.516348 2.60191C0.283803 2.19841 0.110514 1.76353 0.0018384 1.31066C-0.027284 1.02911 0.293077 0.66019 0.623131 2.37027e-06Z" fill="black"/>
</g>
<g style="mix-blend-mode:multiply" opacity="0.1" transform="translate(269.845 83.6777)">
<path d="M0 1.13712C0.465959 0.574019 0.718353 0.0303366 0.970747 0.00121072C1.22314 -0.0279152 1.51436 0.476929 1.78617 0.739062C1.51436 1.06916 1.28139 1.53517 0.970747 1.70993C0.660108 1.88468 0.533911 1.4478 0 1.13712Z" fill="black"/>
</g>
<g style="mix-blend-mode:multiply" opacity="0.1" transform="translate(372.145 100.883)">
<path d="M4.73998e-06 0.970868C0.398011 0.495145 0.728062 4.14798e-06 0.815429 4.14798e-06C1.1471 0.373812 1.43983 0.780437 1.6891 1.21358C1.45612 1.42717 1.20372 1.82522 0.990156 1.78639C0.776592 1.74756 0.446549 1.37863 4.73998e-06 0.970868Z" fill="black"/>
</g>
<g style="mix-blend-mode:multiply" opacity="0.1" transform="translate(239.626 123.175)">
<path d="M-4.73998e-06 1.37862L0.805717 -4.14798e-06C0.980452 0.291255 1.34934 0.660188 1.31051 0.854361C1.19227 1.31144 0.984387 1.74046 0.698934 2.11649C0.698934 2.11649 0.310634 1.70871 -4.73998e-06 1.37862Z" fill="black"/>
</g>
<g style="mix-blend-mode:multiply" opacity="0.1" transform="translate(369.406 53.4966)">
<path d="M-2.36999e-06 0.687339C0.165025 0.454332 0.310646 0.0562751 0.495088 0.0174406C0.829094 -0.0335334 1.17057 0.0279469 1.46584 0.192204C1.5435 0.192204 1.46582 0.794142 1.51436 1.10482C1.19211 1.14125 0.867892 1.15746 0.543614 1.15335C0.398002 1.15335 0.262104 0.988308 0.1262 0.90093L-2.36999e-06 0.687339Z" fill="black"/>
</g>
<g style="mix-blend-mode:multiply" opacity="0.1" transform="translate(190.118 12.5205)">
<path d="M-4.73998e-06 0.469797C0.592151 0.207663 0.893081 -0.0641796 1.13577 0.0134895C1.28283 0.0960566 1.40967 0.210335 1.50706 0.348039C1.60445 0.485743 1.66994 0.643409 1.6988 0.80959C1.6737 1.18223 1.58163 1.54729 1.427 1.88725L-4.73998e-06 0.469797Z" fill="black"/>
</g>
<g style="mix-blend-mode:multiply" opacity="0.1" transform="translate(189.516 120.542)">
<path d="M0 0.465947C0.679523 0.213523 1.0387 -0.0971506 1.3008 0.0290617C1.5629 0.155274 1.75705 0.708664 1.98032 1.05817C1.67939 1.23293 1.36875 1.58244 1.08723 1.54361C0.805715 1.50477 0.563033 1.05817 0 0.465947Z" fill="black"/>
</g>
<g style="mix-blend-mode:multiply" opacity="0.1" transform="translate(194.902 28.5537)">
<path d="M0.835108 0.57281L0.398275 1.81551C0.252663 1.61163 -0.00944223 1.38833 0.000265239 1.22329C0.0691295 0.806523 0.17637 0.397024 0.320614 4.14798e-06L0.835108 0.57281Z" fill="black"/>
</g>
<g style="mix-blend-mode:multiply" opacity="0.1" transform="translate(389.714 22.875)">
<path d="M1.06649e-05 0.765225C0.398017 0.386588 0.611577 0.0856067 0.844556 0.00793755C1.07754 -0.0697316 1.27169 0.444833 1.24257 0.561337C1.16491 0.920557 0.999858 1.38657 0.796001 1.48365C0.592144 1.58074 0.38831 1.13415 1.06649e-05 0.765225Z" fill="black"/>
</g>
<g style="mix-blend-mode:multiply" opacity="0.1" transform="translate(247.159 134.449)">
<path d="M0.359177 1.60798C0.200461 1.23274 0.0801268 0.842412 4.73998e-06 0.442943C4.73998e-06 0.326439 0.388295 -0.052195 0.44654 0.00605682C0.67171 0.258049 0.831707 0.561381 0.91251 0.889532C0.961047 0.928366 0.650401 1.21963 0.359177 1.60798Z" fill="black"/>
</g>
<g style="mix-blend-mode:multiply" opacity="0.1" transform="translate(320.575 67.4497)">
<path d="M1.47681 1.06505C0.981734 1.40485 0.709927 1.74466 0.447825 1.72524C0.185723 1.70583 -0.0181254 1.18156 0.00128957 0.909723C0.03852 0.558981 0.208742 0.235843 0.476946 0.00681174C0.583728 -0.0611487 0.855537 0.385445 1.47681 1.06505Z" fill="black"/>
</g>
<g style="mix-blend-mode:multiply" opacity="0.1" transform="translate(307.374 17.0391)">
<path d="M3.55498e-06 0.699214C0.213568 0.359412 0.349483 -0.00951751 0.465973 0.000191128C0.582463 0.00989977 0.776593 0.320571 0.931913 0.495326C0.844545 0.660373 0.766876 0.951628 0.679509 0.961337C0.592142 0.971046 0.330058 0.835135 3.55498e-06 0.699214Z" fill="black"/>
</g>
<g style="mix-blend-mode:multiply" opacity="0.1" transform="translate(243.16 64.0674)">
<path d="M-5.33247e-06 0.242722L0.650394 5.92568e-06C0.708638 0.388351 0.776593 0.766985 0.834838 1.16504C0.640688 1.16504 0.37859 1.3495 0.262101 1.22329C0.120901 0.913253 0.032318 0.581867 -5.33247e-06 0.242722Z" fill="black"/>
</g>
<g style="mix-blend-mode:multiply" opacity="0.1" transform="translate(351.135 21.9976)">
<path d="M-9.47995e-06 0.410615C0.252385 0.23586 0.5242 -0.0651115 0.582445 0.0125576C0.748053 0.31939 0.875223 0.645471 0.961051 0.983421C0.776609 1.08051 0.563037 1.2941 0.407717 1.22614C0.252398 1.15818 0.165018 0.750418 -9.47995e-06 0.410615Z" fill="black"/>
</g>
<g style="mix-blend-mode:multiply" opacity="0.1" transform="translate(195.671 75.6484)">
<path d="M-3.55498e-06 0.506874C0.271806 0.264158 0.456252 -0.0271052 0.611572 0.00202076C0.766892 0.0311467 0.873668 0.390362 0.999865 0.603952C0.844545 0.798124 0.679518 1.11851 0.514491 1.13793C0.349464 1.15735 0.223268 0.798133 -3.55498e-06 0.506874Z" fill="black"/>
</g>
<g style="mix-blend-mode:multiply" opacity="0.1" transform="translate(346.767 104.376)">
<path d="M-9.47995e-06 0.535826C0.23297 0.29311 0.397995 -0.0272781 0.543607 0.00184777C0.689219 0.0309737 0.87367 0.351356 1.0387 0.545529C0.902793 0.759119 0.757197 1.15718 0.631 1.15718C0.504803 1.15718 0.281507 0.817376 -9.47995e-06 0.535826Z" fill="black"/>
</g>
<g style="mix-blend-mode:multiply" opacity="0.1" transform="translate(323.121 40.6123)">
<path d="M4.73998e-06 0.776697C0.0440802 0.511095 0.115654 0.250796 0.21357 2.37027e-06C0.55604 0.027201 0.896457 0.0758336 1.23284 0.145626C1.16489 0.359216 1.11636 0.728149 1.02899 0.757275C0.687731 0.801256 0.342684 0.807772 4.73998e-06 0.776697Z" fill="black"/>
</g>
<g style="mix-blend-mode:multiply" opacity="0.1" transform="translate(329.498 106.28)">
<path d="M1.18499e-05 0.718446L0.533911 1.77771e-06C0.660108 0.2233 0.9028 0.466014 0.9028 0.679604C0.891011 0.808896 0.849924 0.933803 0.782641 1.04483C0.715359 1.15586 0.623656 1.2501 0.514507 1.32038C0.378602 1.3495 0.203869 0.98058 1.18499e-05 0.718446Z" fill="black"/>
</g>
<g style="mix-blend-mode:multiply" opacity="0.1" transform="translate(288.66 118.912)">
<path d="M0.339772 -3.55541e-06C0.630996 0.553389 0.88339 0.844648 0.854267 0.97086C0.825145 1.09707 0.563042 1.53397 0.398015 1.55338C0.232988 1.5728 4.73998e-06 1.19416 4.73998e-06 0.97086C0.0624502 0.631634 0.177069 0.304129 0.339772 -3.55541e-06Z" fill="black"/>
</g>
<g style="mix-blend-mode:multiply" opacity="0.1" transform="translate(217.425 142.42)">
<path d="M0 0.685714C0.330054 0.316786 0.53391 -0.0521538 0.621278 0.00609804C0.855172 0.220372 1.05487 0.469219 1.21343 0.743964C1.05811 0.928428 0.902788 1.26823 0.766884 1.25852C0.630979 1.24881 0.320347 0.967265 0 0.685714Z" fill="black"/>
</g>
<g style="mix-blend-mode:multiply" opacity="0.1" transform="translate(248.741 126.483)">
<path d="M-5.33247e-06 0.757929C0.320341 0.408418 0.504783 0.0880284 0.728055 0.0103592C0.951327 -0.0673099 1.0387 0.311332 1.20373 0.486088C1.06852 0.781399 0.892022 1.05598 0.67953 1.30161C0.582455 1.37928 0.339756 1.0589 -5.33247e-06 0.757929Z" fill="black"/>
</g>
<g style="mix-blend-mode:multiply" opacity="0.1" transform="translate(383.374 70.5327)">
<path d="M0.60187 -5.33311e-06L1.14549 0.650472C0.894828 0.927732 0.622131 1.18424 0.330062 1.41746C0.173531 1.23492 0.0606588 1.01911 1.18499e-05 0.786407C0.169543 0.501873 0.37151 0.237962 0.60187 -5.33311e-06Z" fill="black"/>
</g>
<g style="mix-blend-mode:multiply" opacity="0.1" transform="translate(200.564 119.417)">
<path d="M0.805727 0.961161L0.242692 1.3592C0.118994 1.07479 0.0372454 0.773921 4.73998e-06 0.466011C4.73998e-06 0.300964 0.281524 0.14563 0.427136 5.92568e-07L0.805727 0.961161Z" fill="black"/>
</g>
<g style="mix-blend-mode:multiply" opacity="0.1" transform="translate(206.67 11.8901)">
<path d="M0.260361 1.31391C0.143871 0.94498 -0.0405806 0.614886 0.00795681 0.44984C0.0564942 0.284793 0.338011 -0.0355988 0.493331 0.00323573C0.64865 0.0420703 0.823392 0.478966 0.803977 0.692556C0.784562 0.906146 0.503047 1.05177 0.260361 1.31391Z" fill="black"/>
</g>
<g style="mix-blend-mode:multiply" opacity="0.1" transform="translate(217.383 123.533)">
<path d="M0.303613 5.92568e-06C0.467947 0.303419 0.582644 0.631188 0.643366 0.97087C0.643366 1.13592 0.381271 1.31067 0.225952 1.38833C0.0706321 1.466 -0.016731 1.07767 0.00268393 0.941745C0.0660419 0.617198 0.167032 0.301149 0.303613 5.92568e-06Z" fill="black"/>
</g>
<g style="mix-blend-mode:multiply" opacity="0.1" transform="translate(233.335 94.7954)">
<path d="M0.233214 0L0.640926 0.407761C0.539719 0.641836 0.422968 0.868875 0.291456 1.08736C0.291456 1.08736 -0.00947816 0.84465 0.000229315 0.757273C0.0518717 0.497564 0.129943 0.243821 0.233214 0Z" fill="black"/>
</g>
<g style="mix-blend-mode:multiply" opacity="0.1" transform="translate(354.632 135.736)">
<path d="M0.359168 1.29199L-3.55498e-06 0.321123C0.165023 0.20462 0.33004 0.0201538 0.504774 0.000736544C0.679509 -0.0186807 0.776593 0.350253 0.757178 0.476465C0.660716 0.764535 0.526903 1.03871 0.359168 1.29199Z" fill="black"/>
</g>
<g style="mix-blend-mode:multiply" opacity="0.1" transform="translate(371.967 51.0674)">
<path d="M0.397992 6.51825e-06L0.757194 0.728154L0.27182 1.14562C0.163668 0.889885 0.0728604 0.62716 1.18499e-05 0.359221C1.18499e-05 0.359221 0.21355 0.155345 0.397992 6.51825e-06Z" fill="black"/>
</g>
<g style="mix-blend-mode:multiply" opacity="0.1" transform="translate(238.394 141.492)">
<path d="M0.931915 0.614357C0.611568 0.80853 0.407713 1.05122 0.281516 0.98326C0.155319 0.9153 0.0873732 0.536671 5.92497e-06 0.293955C0.126203 0.18716 0.271805 -0.0264178 0.36888 0.00270812C0.465955 0.031834 0.660106 0.313389 0.931915 0.614357Z" fill="black"/>
</g>
<g style="mix-blend-mode:multiply" opacity="0.1" transform="translate(352.592 83.2026)">
<path d="M-9.47995e-06 0.611647C0.108094 0.392791 0.241694 0.18748 0.398 -2.37027e-06C0.398 -2.37027e-06 0.69895 0.28155 0.689242 0.320384C0.606179 0.563587 0.505608 0.800447 0.388313 1.02911L-9.47995e-06 0.611647Z" fill="black"/>
</g>
<g style="mix-blend-mode:multiply" opacity="0.1" transform="translate(242.985 57.6206)">
<path d="M0.291474 6.51825e-06C0.475916 0.378643 0.68948 0.63106 0.670065 0.796107C0.602583 1.02761 0.463184 1.23163 0.272055 1.37863C0.272055 1.37863 -0.00946029 1.10679 0.000247183 0.999995C0.0653887 0.658182 0.162906 0.323344 0.291474 6.51825e-06Z" fill="black"/>
</g>
<g style="mix-blend-mode:multiply" opacity="0.1" transform="translate(341.166 75.1846)">
<path d="M0.514496 1.19416L1.18499e-06 0.582512C0.105919 0.371349 0.239795 0.175424 0.398011 2.96284e-06C0.456256 2.96284e-06 0.718365 0.194179 0.708657 0.291265C0.673435 0.597828 0.608399 0.900219 0.514496 1.19416Z" fill="black"/>
</g>
<g style="mix-blend-mode:multiply" opacity="0.1" transform="translate(253.139 51.873)">
<path d="M-6.51747e-06 0.437806C0.300925 0.214507 0.514493 -0.0573374 0.64069 0.0106231C0.766887 0.0785835 0.834843 0.486346 0.931917 0.738771C0.80572 0.835857 0.660103 1.04945 0.563029 1.01061C0.465954 0.971777 0.252388 0.69023 -6.51747e-06 0.437806Z" fill="black"/>
</g>
<g style="mix-blend-mode:multiply" opacity="0.1" transform="translate(245.469 116.336)">
<path d="M0.621277 0.304032L0.398009 0.83801L-5.92497e-07 0.401124C0.0970741 0.255495 0.194147 0.0321923 0.300929 0.00306643C0.407711 -0.0260595 0.514495 0.158402 0.621277 0.304032Z" fill="black"/>
</g>
<g style="mix-blend-mode:multiply" opacity="0.1" transform="translate(233.869 24.5049)">
<path d="M0.27222 0.873777C0.15573 0.699022 -0.00929571 0.543683 0.000411766 0.41747C0.0101192 0.291258 0.165443 0.135927 0.262518 5.92568e-06C0.349885 0.145636 0.505205 0.281553 0.505205 0.436892C0.505205 0.59223 0.34988 0.757274 0.27222 0.873777Z" fill="black"/>
</g>
<g style="mix-blend-mode:multiply" opacity="0.1" transform="translate(211.872 31.4536)">
<path d="M-1.18499e-06 0.09927C0.0679511 0.09927 0.1359 -0.0172396 0.194145 0.00217767C0.25239 0.021595 0.281517 0.147818 0.320347 0.225487L0.0194179 0.390532C0.0194179 0.293446 0.00970629 0.196356 -1.18499e-06 0.09927Z" fill="black"/>
</g>
<g style="mix-blend-mode:multiply" opacity="0.1" transform="translate(282.269 43.7764)">
<path d="M0.196526 0.436883C0.128573 0.436883 0.0509112 0.368928 0.0120813 0.291259C-0.00403025 0.194841 -0.00403025 0.0964148 0.0120813 -2.96284e-06L0.303294 0.194167L0.196526 0.436883Z" fill="black"/>
</g>
<g style="mix-blend-mode:multiply" opacity="0.1" transform="translate(291.647 45.54)">
<path d="M-8.29496e-06 0.479308C0.0485291 0.314261 0.0776551 0.0327204 0.155315 0.00359451C0.232975 -0.0255314 0.38829 0.129799 0.514487 0.207468C0.465949 0.372514 0.427116 0.663774 0.359163 0.6929C0.291211 0.722026 0.116481 0.556977 -8.29496e-06 0.479308Z" fill="black"/>
</g>
<g style="mix-blend-mode:multiply" opacity="0.1" transform="translate(329.149 46.269)">
<path d="M-3.55498e-06 0.469823C-3.55498e-06 0.304777 0.0776598 0.0329388 0.15532 0.00381289C0.232979 -0.025313 0.378597 0.120309 0.495087 0.178561C0.44655 0.343608 0.407707 0.605747 0.330047 0.65429C0.252387 0.702833 0.116486 0.557201 -3.55498e-06 0.469823Z" fill="black"/>
</g>
<g style="mix-blend-mode:multiply" opacity="0.1" transform="translate(231.23 47.8442)">
<path d="M0.223269 1.56309C0.0950554 1.22051 0.019772 0.860391 1.18499e-06 0.495135C0.0784694 0.27809 0.238737 0.100377 0.446537 -5.92568e-07C0.514489 -5.92568e-07 0.747471 0.252422 0.737764 0.300965C0.593311 0.7322 0.421463 1.15377 0.223269 1.56309Z" fill="black"/>
</g>
<g style="mix-blend-mode:multiply" opacity="0.1" transform="translate(378.143 43.0889)">
<path d="M0.485371 0.463995C0.388297 0.551373 0.242696 0.735842 0.194159 0.697008C0.145622 0.658173 0.0679499 0.396029 -2.36999e-06 0.230982C0.0970724 0.153313 0.232985 -0.0408555 0.281523 0.00768774C0.375606 0.146712 0.444593 0.301151 0.485371 0.463995Z" fill="black"/>
</g>
<g style="mix-blend-mode:multiply" opacity="0.1" transform="translate(306.895 124.126)">
<path d="M0.335015 0.815529C0.218526 0.728151 0.0340872 0.679609 0.00496476 0.543688C-0.0241577 0.407767 0.0825997 0.184471 0.131137 6.51825e-06C0.247627 0.0873843 0.422387 0.135926 0.461217 0.271847C0.454839 0.45955 0.411971 0.644212 0.335015 0.815529Z" fill="black"/>
</g>
<g style="mix-blend-mode:multiply" opacity="0.1" transform="translate(283.038 126.582)">
<path d="M0.398006 5.33311e-06L0.543613 0.533969C0.417415 0.611638 0.271819 0.776696 0.165037 0.728153C0.0582543 0.67961 0.0485338 0.388352 -3.55498e-06 0.213597L0.398006 5.33311e-06Z" fill="black"/>
</g>
<g style="mix-blend-mode:multiply" opacity="0.1" transform="translate(318.111 132.436)">
<path d="M1.18499e-06 0.37864L0.30093 4.14798e-06L0.60186 0.650481C0.475663 0.718442 0.330056 0.873773 0.213567 0.82523C0.0970771 0.776686 0.077661 0.543687 1.18499e-06 0.37864Z" fill="black"/>
</g>
<g style="mix-blend-mode:multiply" opacity="0.1" transform="translate(313.761 146.756)">
<path d="M0.155314 0.573124L-9.47995e-06 0.398376C0.0679428 0.272163 0.135896 0.136238 0.213556 0.0294428C0.291216 -0.0773523 0.310625 0.136251 0.359162 0.194503L0.155314 0.573124Z" fill="black"/>
</g>
<g style="mix-blend-mode:multiply" opacity="0.1" transform="translate(385.092 93.7861)">
<path d="M0.271809 0.786404L1.18499e-06 0.398049L0.271809 6.51825e-06L0.5339 0.417471L0.271809 0.786404Z" fill="black"/>
</g>
<g style="mix-blend-mode:multiply" opacity="0.1" transform="translate(369.312 96.2808)">
<path d="M0.325286 0.776693C0.208797 0.689315 0.0340753 0.640768 0.00495291 0.514556C-0.0241695 0.388343 0.0826174 0.174754 0.131155 -1.18514e-06C0.247644 0.0873766 0.412658 0.135919 0.451488 0.27184C0.490318 0.40776 0.373824 0.601937 0.325286 0.776693Z" fill="black"/>
</g>
<g style="mix-blend-mode:multiply" opacity="0.1" transform="translate(346.592 104.854)">
<path d="M0.00971458 5.92568e-07L0.359169 0.0776715C0.364661 0.171441 0.364661 0.265446 0.359169 0.359215C0.237795 0.351878 0.11747 0.332365 -2.36999e-06 0.300966L0.00971458 5.92568e-07Z" fill="black"/>
</g>
<g style="mix-blend-mode:multiply" opacity="0.1" transform="translate(273.059 67.2808)">
<path d="M-2.36999e-06 0.601934C0.0345842 0.395164 0.0932349 0.193151 0.17474 3.55541e-06C0.365139 0.0403295 0.548392 0.10905 0.718356 0.203877C0.718356 0.378632 0.640687 0.689318 0.572735 0.699027C0.377664 0.699792 0.183922 0.666944 -2.36999e-06 0.601934Z" fill="black"/>
</g>
<g style="mix-blend-mode:multiply" opacity="0.1" transform="translate(221.705 74.4556)">
<path d="M3.55498e-06 0.291265L0.349473 2.96284e-06L0.54362 0.737854C0.417423 0.737854 0.242689 0.922314 0.165029 0.854353C0.0873691 0.786393 0.0485409 0.436895 3.55498e-06 0.291265Z" fill="black"/>
</g>
<g style="mix-blend-mode:multiply" opacity="0.1" transform="translate(214.998 77.9902)">
<path d="M0 0.5242C0.0485374 0.339736 0.077658 0.0970308 0.165025 0.0193616C0.252393 -0.0583075 0.465964 0.116445 0.475671 0.213531C0.464433 0.397429 0.421744 0.578041 0.34947 0.74751L0 0.5242Z" fill="black"/>
</g>
<g style="mix-blend-mode:multiply" opacity="0.1" transform="translate(245.635 79.8447)">
<path d="M-2.36999e-06 0.524266C0.109939 0.333363 0.243682 0.157205 0.398008 5.92568e-06C0.398008 5.92568e-06 0.669812 0.300968 0.650397 0.388346C0.576921 0.622758 0.475907 0.84763 0.349467 1.05824L-2.36999e-06 0.524266Z" fill="black"/>
</g>
<g style="mix-blend-mode:multiply" opacity="0.1" transform="translate(251.645 90.1333)">
<path d="M0 0.292553C0.106782 0.185758 0.232976 -0.0181262 0.330051 0.00129103C0.427125 0.0207083 0.485375 0.282839 0.563035 0.438177C0.456253 0.544972 0.330054 0.768283 0.242687 0.739157C0.15532 0.710031 0.0873673 0.409057 0 0.292553Z" fill="black"/>
</g>
<g style="mix-blend-mode:multiply" opacity="0.1" transform="translate(308.655 90.5234)">
<path d="M0.155334 0.533969L1.06649e-05 0.368924C0.0638735 0.24185 0.135187 0.118669 0.213576 5.92568e-06C0.213576 5.92568e-06 0.310645 0.0970905 0.359182 0.165051L0.155334 0.533969Z" fill="black"/>
</g>
<g style="mix-blend-mode:multiply" opacity="0.1" transform="translate(190.724 103.445)">
<path d="M0.346351 3.55541e-06C0.346351 0.184468 0.501671 0.417468 0.453134 0.524264C0.404597 0.631059 0.229856 0.699028 0.113366 0.776698C0.113366 0.592233 -0.0322463 0.359218 0.00658361 0.252423C0.0454135 0.145628 0.220154 0.0776727 0.346351 3.55541e-06Z" fill="black"/>
</g>
<g style="mix-blend-mode:multiply" opacity="0.1" transform="translate(384.628 103.989)">
<path d="M-9.47995e-06 0.563104L0.213556 1.18514e-06L0.601849 0.553386C0.495067 0.699015 0.398015 0.941744 0.291232 0.961162C0.18445 0.980579 0.0873578 0.708734 -9.47995e-06 0.563104Z" fill="black"/>
</g>
<g style="mix-blend-mode:multiply" opacity="0.1" transform="translate(235.49 111.708)">
<path d="M5.92497e-07 0.29126L0.262107 -1.7777e-06C0.302871 0.0704864 0.335432 0.145402 0.359172 0.223293C0.281328 0.331805 0.19705 0.435558 0.106783 0.533976L5.92497e-07 0.29126Z" fill="black"/>
</g>
<g style="mix-blend-mode:multiply" opacity="0.1" transform="translate(367.533 119.961)">
<path d="M4.73998e-06 0.242714L0.11649 -1.7777e-06C0.208191 0.110843 0.292514 0.227599 0.368893 0.34951C0.343752 0.431557 0.30783 0.509914 0.262096 0.582522L4.73998e-06 0.242714Z" fill="black"/>
</g>
<g style="mix-blend-mode:multiply" opacity="0.1" transform="translate(382.133 123.368)">
<path d="M0.320347 0.766984C0.203857 0.689315 0.019428 0.640771 1.30349e-05 0.524268C0.00930388 0.343211 0.0520684 0.165441 0.126185 -7.11082e-06C0.242675 0.077662 0.417426 0.126215 0.446549 0.252427C0.475671 0.378639 0.320347 0.592228 0.320347 0.766984Z" fill="black"/>
</g>
<g style="mix-blend-mode:multiply" opacity="0.1" transform="translate(231.521 143.299)">
<path d="M0.14561 0.631047C0.0892424 0.569036 0.0403747 0.500613 4.14748e-06 0.427174C0.0679565 0.271836 0.145612 0.145621 0.223272 -8.29596e-06C0.276202 0.0613015 0.324848 0.126191 0.368878 0.194176C0.291218 0.349515 0.22327 0.524252 0.14561 0.631047Z" fill="black"/>
</g>
<g style="mix-blend-mode:multiply" opacity="0.1" transform="translate(259.012 16.7383)">
<path d="M0.0097134 5.92568e-06L0.368885 0.0582554C0.378122 0.155122 0.378122 0.252651 0.368885 0.349517C0.252728 0.361962 0.135573 0.361962 0.0194155 0.349517C-0.00970688 0.194179 5.92533e-06 0.0970923 0.0097134 5.92568e-06Z" fill="black"/>
</g>
<g style="mix-blend-mode:multiply" opacity="0.1" transform="translate(225.658 134.863)">
<path d="M-4.14748e-06 0.00974315C0.119369 -0.0032493 0.239809 -0.0032493 0.359182 0.00974315C0.384722 0.105149 0.384722 0.205599 0.359182 0.301005C0.359182 0.378674 0.213567 0.485468 0.203859 0.46605C0.125369 0.31888 0.057244 0.166406 -4.14748e-06 0.00974315Z" fill="black"/>
</g>
<g style="mix-blend-mode:multiply" opacity="0.1" transform="translate(251.401 18.1074)">
<path d="M0 -5.33312e-06L0.165025 0.0776656L0.0388234 0.194179L0 -5.33312e-06Z" fill="black"/>
</g>
<g style="mix-blend-mode:multiply" opacity="0.1" transform="translate(275.807 18.709)">
<path d="M-5.92497e-07 0.281549C0.0907044 0.181325 0.187998 0.0872721 0.291227 4.74055e-06C0.336073 0.07114 0.375028 0.145817 0.407712 0.223299C0.318087 0.327561 0.220734 0.424926 0.116484 0.514561C0.0711592 0.440314 0.0321953 0.362362 -5.92497e-07 0.281549Z" fill="black"/>
</g>
<g style="mix-blend-mode:multiply" opacity="0.1" transform="translate(258.061 22.6797)">
<path d="M5.92497e-07 0.31067C0.0970753 0.203875 0.203855 1.18514e-06 0.30093 1.18514e-06C0.398005 1.18514e-06 0.495088 0.2233 0.582455 0.349513C0.475673 0.466016 0.368883 0.66989 0.271809 0.660181C0.174734 0.650473 0.0873679 0.446591 5.92497e-07 0.31067Z" fill="black"/>
</g>
<g style="mix-blend-mode:multiply" opacity="0.1" transform="translate(318.857 24.2324)">
<path d="M0.135909 7.11082e-06L0.388313 0.320379C0.312253 0.430243 0.227864 0.534114 0.135909 0.631063C0.135909 0.631063 -9.47995e-06 0.504852 -9.47995e-06 0.466018C0.0350945 0.307885 0.080507 0.152219 0.135909 7.11082e-06Z" fill="black"/>
</g>
<g style="mix-blend-mode:multiply" opacity="0.1" transform="translate(335.633 143.271)">
<path d="M-1.06649e-05 0.203896L0.145625 -7.11082e-06L0.281514 0.398051C0.213562 0.398051 0.135911 0.504862 0.0776657 0.475736C0.0194209 0.44661 0.0194043 0.300982 -1.06649e-05 0.203896Z" fill="black"/>
</g>
<g style="mix-blend-mode:multiply" opacity="0.1" transform="translate(201.602 81.3101)">
<path d="M0.184441 5.92568e-07L0.388305 0.38834C0.33006 0.446592 0.24268 0.553396 0.223265 0.533979C0.140614 0.409438 0.0660412 0.279715 -2.96249e-06 0.145624L0.184441 5.92568e-07Z" fill="black"/>
</g>
<g style="mix-blend-mode:multiply" opacity="0.1" transform="translate(220.104 85.1934)">
<path d="M-5.33247e-06 0.242717L0.126197 5.92568e-07L0.398005 0.330091C0.364212 0.403922 0.325291 0.475294 0.28152 0.543682C0.181891 0.448937 0.0878829 0.348445 -5.33247e-06 0.242717Z" fill="black"/>
</g>
<g style="mix-blend-mode:multiply" opacity="0.1" transform="translate(225.665 86.6113)">
<path d="M0.339758 0.640766L5.33247e-06 0.407768C0.0717003 0.266577 0.152778 0.130352 0.242692 7.11082e-06C0.242692 7.11082e-06 0.41742 0.0873748 0.41742 0.126209C0.402061 0.299153 0.376124 0.470993 0.339758 0.640766Z" fill="black"/>
</g>
<g style="mix-blend-mode:multiply" opacity="0.1" transform="translate(285.97 89.1357)">
<path d="M0.300945 0.320385C0.2427 0.320385 0.165038 0.436885 0.1165 0.407759C0.067963 0.378633 0.0388157 0.252421 -1.42199e-05 0.165043L0.291228 -1.7777e-06C0.300935 0.087376 0.300945 0.194173 0.300945 0.320385Z" fill="black"/>
</g>
<g style="mix-blend-mode:multiply" opacity="0.1" transform="translate(222.948 90.8442)">
<path d="M2.36999e-06 0.291255L0.067947 -7.11082e-06L0.436836 0.174756C0.436836 0.271842 0.378593 0.466018 0.378593 0.466018C0.248383 0.416888 0.121862 0.358479 2.36999e-06 0.291255Z" fill="black"/>
</g>
<g style="mix-blend-mode:multiply" opacity="0.1" transform="translate(192.875 96.3774)">
<path d="M6.51747e-06 0.262127L0.116491 4.74055e-06C0.214461 0.113987 0.305238 0.233954 0.388299 0.35922C0.362046 0.447015 0.326237 0.531658 0.281517 0.611639L6.51747e-06 0.262127Z" fill="black"/>
</g>
<g style="mix-blend-mode:multiply" opacity="0.1" transform="translate(234.336 30.8838)">
<path d="M-1.77749e-06 0.320385C0.10678 0.203881 0.213564 -1.7777e-06 0.320347 -1.7777e-06C0.427129 -1.7777e-06 0.514499 0.223292 0.611574 0.359213C0.504792 0.475717 0.398008 0.679605 0.291225 0.669897C0.184443 0.660188 0.097073 0.495141 -1.77749e-06 0.320385Z" fill="black"/>
</g>
<g style="mix-blend-mode:multiply" opacity="0.1" transform="translate(314.345 30.9033)">
<path d="M0.330047 2.37027e-06L0.640693 0.39806C0.524204 0.514564 0.407708 0.718437 0.300926 0.708729C0.194144 0.69902 0.0970712 0.475717 -3.55498e-06 0.339796L0.330047 2.37027e-06Z" fill="black"/>
</g>
<g style="mix-blend-mode:multiply" opacity="0.1" transform="translate(213.427 33.6211)">
<path d="M4.73998e-06 0.252425L0.126192 5.33311e-06C0.221226 0.117349 0.308771 0.24056 0.388298 0.368923C0.356554 0.449938 0.317571 0.527929 0.271813 0.601936L4.73998e-06 0.252425Z" fill="black"/>
</g>
<g style="mix-blend-mode:multiply" opacity="0.1" transform="translate(201.534 40.6016)">
<path d="M0.281515 -7.11082e-06L0.427136 0.213584C0.341999 0.321708 0.247812 0.422405 0.145611 0.514564C0.145611 0.514564 0.0485421 0.388346 4.73998e-06 0.310676L0.281515 -7.11082e-06Z" fill="black"/>
</g>
<g style="mix-blend-mode:multiply" opacity="0.1" transform="translate(287.95 46.1221)">
<path d="M0.339762 0.693117L-5.92497e-06 0.479526C-5.92497e-06 0.314479 0.0776574 0.032923 0.155317 0.00379712C0.232977 -0.0253288 0.388312 0.120303 0.504802 0.188264L0.339762 0.693117Z" fill="black"/>
</g>
<g style="mix-blend-mode:multiply" opacity="0.1" transform="translate(277.475 49.7188)">
<path d="M0.0582431 7.11082e-06L0.436834 0.0776632C0.436834 0.17475 0.436842 0.359222 0.368889 0.359222C0.243734 0.350748 0.11996 0.327938 5.92497e-07 0.291254C0.029123 0.194168 0.0485356 0.106802 0.0582431 7.11082e-06Z" fill="black"/>
</g>
<g style="mix-blend-mode:multiply" opacity="0.1" transform="translate(285.377 57.2236)">
<path d="M0 0.194173C0.0363409 0.125902 0.0785714 0.0609346 0.126202 2.96284e-06C0.221421 0.096673 0.309037 0.200532 0.388293 0.310672C0.288089 0.366048 0.184307 0.414708 0.0776467 0.45631C0.0467968 0.370481 0.0208811 0.282956 0 0.194173Z" fill="black"/>
</g>
<g style="mix-blend-mode:multiply" opacity="0.1" transform="translate(388.275 99.0381)">
<path d="M0 -4.74055e-06L0.320334 0.0582447C0.326097 0.142288 0.326097 0.226636 0.320334 0.310679C0.217035 0.320806 0.113016 0.320806 0.00971695 0.310679C9.48017e-06 0.174758 0 0.126208 0 -4.74055e-06Z" fill="black"/>
</g>
<g style="mix-blend-mode:multiply" opacity="0.1" transform="translate(243.897 120.523)">
<path d="M0.155312 0.514557L4.14748e-06 0.359215C0.0590084 0.234612 0.127138 0.11455 0.203853 0C0.203853 0 0.300936 0.0970858 0.349474 0.13592L0.155312 0.514557Z" fill="black"/>
</g>
<g style="mix-blend-mode:multiply" opacity="0.1" transform="translate(259.423 72.9131)">
<path d="M0.201701 0.407768C0.143456 0.407768 0.0560864 0.339808 0.0172565 0.271847C-0.0215733 0.203887 0.0172565 0.0970929 0.0172565 6.51825e-06L0.308484 0.20388L0.201701 0.407768Z" fill="black"/>
</g>
<g style="mix-blend-mode:multiply" opacity="0.1" transform="translate(373.171 114.699)">
<path d="M0.184447 0L0.398012 0.417464C0.339767 0.466008 0.24268 0.592223 0.232972 0.572806C0.145696 0.435873 0.0678652 0.293147 2.36999e-06 0.145624L0.184447 0Z" fill="black"/>
</g>
<g style="mix-blend-mode:multiply" opacity="0.1" transform="translate(253.246 86.4653)">
<path d="M0.0970747 0.495133C0.0464129 0.412139 0.0133635 0.319607 -5.92497e-06 0.223293C-5.92497e-06 0.145624 0.0776586 0.0679587 0.126196 -1.7777e-06C0.0970735 0.165045 0.0970747 0.330087 0.0970747 0.495133Z" fill="black"/>
</g>
<g style="mix-blend-mode:multiply" opacity="0.1" transform="translate(350.137 86.7373)">
<path d="M0.174749 0.42718L-8.29496e-06 0.310681L0.242679 -2.96284e-06C0.242679 0.0776661 0.33975 0.174762 0.330042 0.252431C0.320335 0.3301 0.223286 0.368928 0.174749 0.42718Z" fill="black"/>
</g>
<g style="mix-blend-mode:multiply" opacity="0.1" transform="translate(387.306 109.95)">
<path d="M0 0.117032C0 0.117032 0.097089 -0.00917534 0.135919 0.000533302C0.174749 0.0102419 0.223261 0.0976232 0.262091 0.155875L0 0.117032Z" fill="black"/>
</g>
<g style="mix-blend-mode:multiply" opacity="0.1" transform="translate(247.45 90.2422)">
<path d="M0.165033 -2.37027e-06L0.310639 0.174761C0.252394 0.223304 0.203859 0.310672 0.145614 0.300963C0.087369 0.291254 0.0485303 0.194175 -7.10997e-06 0.126215L0.165033 -2.37027e-06Z" fill="black"/>
</g>
<g style="mix-blend-mode:multiply" opacity="0.1" transform="translate(209.843 80.98)">
<path d="M0.0582448 0.252423L2.36999e-06 4.14798e-06L0.155326 0.0291289L0.0582448 0.252423Z" fill="black"/>
</g>
<g style="mix-blend-mode:multiply" opacity="0.1" transform="translate(376.373 104.476)">
<path d="M-9.47996e-06 0.203874V1.18514e-06L0.135909 0.106797L-9.47996e-06 0.203874Z" fill="black"/>
</g>
<g style="mix-blend-mode:multiply" opacity="0.1" transform="translate(229.56 123.892)">
<path d="M0.203863 0.271842L0.0582425 0.388341L0 1.18514e-06C0.0582448 1.18514e-06 0.126195 -1.18268e-06 0.165025 0.0582507C0.203855 0.116502 0.194156 0.194173 0.203863 0.271842Z" fill="black"/>
</g>
<g style="mix-blend-mode:multiply" opacity="0.1" transform="translate(356.804 117.106)">
<path d="M0.0194209 -4.14798e-06L0.145623 0.126213L-1.30349e-05 0.213587L0.0194209 -4.14798e-06Z" fill="black"/>
</g>
<g style="mix-blend-mode:multiply" opacity="0.1" transform="translate(284.777 141.775)">
<path d="M0.035521 0.106795L0.210248 1.42216e-05C0.210248 0.135935 0.210248 0.281538 0.210248 0.427167C0.142296 0.427167 0.0646245 0.42719 0.0160871 0.359229C-0.0324502 0.291269 0.0452285 0.184464 0.035521 0.106795Z" fill="black"/>
</g>
<g style="mix-blend-mode:multiply" opacity="0.1" transform="translate(261.486 125.668)">
<path d="M0.0873631 2.96284e-06C0.0873631 0.174758 0.0873702 0.262127 0.155323 0.339796L-5.92497e-07 0.407764L0.0873631 2.96284e-06Z" fill="black"/>
</g>
<g style="mix-blend-mode:multiply" opacity="0.1" transform="translate(345.161 98.4658)">
<path d="M0.197394 0.0970911V0.368932C0.129441 0.368932 0.0420716 0.368926 0.0129492 0.27184C-0.0161732 0.174753 0.0129492 0.0970852 0.0129492 -1.18514e-06L0.197394 0.0970911Z" fill="black"/>
</g>
<g style="mix-blend-mode:multiply" opacity="0.1" transform="translate(261.507 94.3101)">
<path d="M0.135908 0L0.310635 0.0873742L0.126191 0.38834L3.55498e-06 0.184467L0.135908 0Z" fill="black"/>
</g>
<g style="mix-blend-mode:multiply" opacity="0.1" transform="translate(380.87 51.0674)">
<path d="M-4.73998e-06 0.116505L0.232965 6.51825e-06V0.262129L-4.73998e-06 0.116505Z" fill="black"/>
</g>
<g style="mix-blend-mode:multiply" opacity="0.1" transform="translate(388.577 67.5229)">
<path d="M-2.36999e-06 0.155345L0.145604 3.55541e-06L0.262089 0.339797C0.203844 0.339797 0.135899 0.398049 0.0873613 0.339797C0.038824 0.281545 0.0291201 0.233014 -2.36999e-06 0.155345Z" fill="black"/>
</g>
<g style="mix-blend-mode:multiply" opacity="0.1" transform="translate(369.115 54.1929)">
<path d="M0.417424 0.213584L9.47995e-06 0.543689L0.291222 -7.11082e-06L0.417424 0.213584Z" fill="black"/>
</g>
<g style="mix-blend-mode:multiply" opacity="0.1" transform="translate(221.24 35.6309)">
<path d="M0.0679523 -2.37027e-06L0.223275 0.0776685L-7.10997e-06 0.262135C0.0194078 0.174757 0.0679523 0.0873754 0.0679523 -2.37027e-06Z" fill="black"/>
</g>
<g style="mix-blend-mode:multiply" opacity="0.1" transform="translate(364.844 94.8052)">
<path d="M-1.42199e-05 0.0776656L0.174743 -5.33311e-06C0.174743 0.0776638 0.174743 0.203887 0.174743 0.223304C0.174743 0.242721 0.0679476 0.281558 0.00970273 0.300975L-1.42199e-05 0.0776656Z" fill="black"/>
</g>
<g style="mix-blend-mode:multiply" opacity="0.1" transform="translate(228.71 25.5918)">
<path d="M0.216806 0.0873754C0.216806 0.165044 0.216803 0.233001 0.168266 0.31067C0.119728 0.388339 0.0420651 0.310679 0.0129427 0.213592C-0.0161797 0.116506 0.0129427 0.0776703 0.0129427 1.18514e-06L0.216806 0.0873754Z" fill="black"/>
</g>
<g style="mix-blend-mode:multiply" opacity="0.1" transform="translate(223.966 31.9424)">
<path d="M5.33247e-06 0.233007L0.135909 -5.33311e-06C0.184364 0.0840264 0.217241 0.176116 0.232975 0.271835C0.232975 0.359213 0.145618 0.427179 0.106788 0.504848L5.33247e-06 0.233007Z" fill="black"/>
</g>
<g style="mix-blend-mode:multiply" opacity="0.1" transform="translate(317.49 28.292)">
<path d="M-1.30349e-05 0.310684C-1.30349e-05 0.223306 -1.30349e-05 0.116505 -1.30349e-05 0.0776709C-1.30349e-05 0.0388363 0.106792 0.0291259 0.174744 0C0.174744 0.135921 0.174744 0.262137 0.174744 0.398058L-1.30349e-05 0.310684Z" fill="black"/>
</g>
<g style="mix-blend-mode:multiply" opacity="0.1" transform="translate(248.191 122.483)">
<path d="M0.0258878 0.321539C0.0258878 0.24387 -0.0323571 0.107943 0.0258878 0.088526C0.0841326 0.0691087 0.14238 0.0205691 0.210332 0.00115179C0.278284 -0.0182655 0.268577 0.214742 0.210332 0.243868C0.155869 0.284 0.0926509 0.310622 0.0258878 0.321539Z" fill="black"/>
</g>
<g style="mix-blend-mode:multiply" opacity="0.1" transform="translate(222.327 126.944)">
<path d="M2.96249e-06 0.0734136C0.0582478 0.0734136 0.155315 -0.0236799 0.17473 0.00544605C0.206411 0.0963345 0.225992 0.191006 0.232973 0.287005C0.174728 0.287005 0.077655 0.384084 0.0679476 0.354958C0.0344858 0.264052 0.0116903 0.169576 2.96249e-06 0.0734136Z" fill="black"/>
</g>
<g style="mix-blend-mode:multiply" opacity="0.1" transform="translate(289.065 104.834)">
<path d="M0.0776645 0.417476C0.0399454 0.347701 0.0137057 0.27229 -1.18499e-05 0.194166C-1.18499e-05 0.126206 0.0679559 0.0679569 0.106786 -3.55541e-06C0.0970783 0.155335 0.0970795 0.281555 0.0776645 0.417476Z" fill="black"/>
</g>
<g style="mix-blend-mode:multiply" opacity="0.1" transform="translate(281.682 145.271)">
<path d="M0.026325 0.0776762L0.201052 -9.48109e-06C0.201052 0.0776596 0.259297 0.203892 0.201052 0.233018C0.142808 0.262144 0.0942774 0.291266 0.026325 0.320392C-0.0416273 0.349518 0.04574 0.155345 0.026325 0.0776762Z" fill="black"/>
</g>
<path d="M0.957115 22.1889C0.369548 19.3121 -0.21802 16.3739 0.0801488 13.4182C0.527402 9.65553 2.49181 6.25249 4.68422 3.1652C6.01721 1.29704 8.19209 -0.720226 10.2968 0.253323C11.0858 0.699968 11.7169 1.38021 12.1034 2.20042C15.2429 7.78737 14.4098 14.6461 14.0151 21.0399C13.7433 25.4253 13.7257 29.9334 12.2612 34.082C11.8252 35.4954 11.0551 36.783 10.0162 37.8358C9.49122 38.3567 8.84662 38.741 8.13877 38.9551C7.43093 39.1692 6.68142 39.2065 5.95582 39.0637C2.80751 38.2919 1.9744 33.8978 1.93055 31.135C1.88484 28.1292 1.55895 25.1342 0.957115 22.1889Z" transform="translate(134.009 234.777)" fill="#92BC6A"/>
<path d="M22.0745 1.67656C23.8284 2.17649 25.6525 2.90446 26.4593 4.43056C25.3706 6.04817 24.1155 7.54736 22.7147 8.90363C20.6275 10.9209 17.9001 12.7277 14.9448 12.4119C11.9894 12.0962 9.68296 9.7807 7.47301 7.92131C5.52614 6.27242 2.63216 5.21116 0.869455 3.53595C-1.57728 1.16786 1.68503 0.746865 3.94761 0.431119C10.0105 -0.426145 16.1858 -0.00186275 22.0745 1.67656Z" transform="translate(122.372 287.04)" fill="#3535A5"/>
<path d="M28.7996 84.9941C26.0371 81.5735 11.8741 76.1708 8.70827 73.0835C5.96335 70.3783 3.78073 67.1567 2.28617 63.6042C0.791601 60.0518 0.0146254 56.2387 0 52.3846C0 43.1227 4.44622 34.3169 4.57776 25.055C4.63915 20.8012 3.77972 16.565 3.9902 12.3112C4.20067 8.05739 5.74413 3.54047 9.37477 1.2864C14.5927 -1.93245 21.8891 1.2864 25.0198 6.54883C28.1506 11.8113 28.1331 18.3454 27.5806 24.4499C27.0281 30.5543 26.0196 36.8429 27.4841 42.7543C29.8607 52.4021 38.2796 59.6204 40.9192 69.1893C41.9365 72.8642 32.325 80.5912 32.2197 84.3889C32.097 88.7129 31.904 94.3963 30.001 98.2817C27.3701 103.737 34.228 105.991 28.9925 99.8955C25.432 95.7821 32.7635 89.9583 28.7996 84.9941Z" transform="translate(107 209.775)" fill="#9AC670"/>
<path d="M15.6012 83.6638L15.1715 83.5849C16.9383 73.3388 14.9551 62.799 9.58524 53.896C8.9889 52.9225 8.33995 51.9402 7.70853 50.9929C5.9546 48.3617 4.1042 45.5814 3.22724 42.459C1.91179 37.8105 2.8326 32.9165 3.71834 28.1891C3.94635 26.9524 4.1919 25.6719 4.38483 24.4264C5.87567 14.8313 4.33221 6.24475 -8.02887e-07 0.25435L0.359557 -1.67288e-07C4.74439 6.08687 6.29662 14.7787 4.74439 24.4966C4.55146 25.7508 4.3059 27.0313 4.07789 28.2768C3.20093 32.9516 2.32396 37.793 3.57802 42.3099C4.45499 45.3709 6.20892 48.0898 7.96285 50.721C8.59427 51.6683 9.24323 52.6506 9.84833 53.6329C15.3205 62.6233 17.3633 73.2873 15.6012 83.6638Z" transform="translate(121.216 216.095)" fill="white"/>
<path d="M8.2084 8.34972C5.76765 5.38301 3.01578 2.68668 -3.6799e-07 0.306975L0.271859 0C3.3102 2.39795 6.08265 5.11486 8.54165 8.10414L8.2084 8.34972Z" transform="translate(117.69 229.954)" fill="white"/>
<path d="M0.377095 8.00766L-5.35258e-07 7.77962C0.692803 6.65697 1.51715 5.27997 2.33273 3.8942C3.14831 2.50842 3.98143 1.12265 4.67423 6.69152e-07L5.05132 0.228038C4.35852 1.35069 3.53417 2.72769 2.71859 4.11346C1.90302 5.49924 1.0699 6.88501 0.377095 8.00766Z" transform="translate(126.415 254.905)" fill="white"/>
<path d="M16.8991 7.98135C15.6451 6.00794 13.1545 5.40276 10.7604 4.81512L10.1114 4.65725C6.53724 3.76582 3.1252 2.31856 3.01082e-07 0.36837L0.228011 1.3383e-06C3.31542 1.9261 6.68599 3.35558 10.2167 4.23626L10.8656 4.39413C13.2422 4.973 15.9345 5.6308 17.285 7.75331L16.8991 7.98135Z" transform="translate(118.962 274.595)" fill="white"/>
<path d="M6.77895 7.71823C4.35561 5.39026 2.09089 2.90258 0 0.27189L0.342017 5.35322e-07C2.42367 2.60029 4.67664 5.05864 7.08589 7.35863L6.77895 7.71823Z" transform="translate(117.304 241.889)" fill="white"/>
<path d="M7.85838 0H0V0.438493H7.85838V0Z" transform="translate(125.819 228.762) rotate(-64.0817)" fill="white"/>
<path d="M0.403404 7.29723L1.33814e-07 7.13059C0.987221 4.69214 2.11153 2.31148 3.36755 0L3.75341 0.210495C2.50421 2.50777 1.38576 4.87378 0.403404 7.29723Z" transform="translate(132.732 265.914)" fill="white"/>
<path d="M26.6071 2.26284C17.7576 4.76484 8.30007 3.96051 0 -1.60597e-06L4.70054 29.3819H19.2406L26.6071 2.26284Z" transform="translate(122.347 289.305)" fill="#1671FF"/>
<path d="M19.9861 4.13978L20.5999 1.86816C20.2316 1.98218 19.8633 2.0962 19.4862 2.18391C17.2446 2.67726 14.9463 2.86315 12.6546 2.73646C8.95408 2.67235 5.28809 2.01192 1.79778 0.780591C1.17513 0.552552 0.578798 0.280661 -6.69072e-08 -2.14129e-06L0.385865 2.43826L1.0699 2.72769C7.08589 5.13087 13.9613 6.38508 19.9861 4.13978Z" transform="translate(124.61 303.459)" fill="white"/>
<path d="M28.7996 84.9941C26.0371 81.5735 11.8741 76.1708 8.70827 73.0835C5.96335 70.3783 3.78073 67.1567 2.28617 63.6042C0.791601 60.0518 0.0146254 56.2387 0 52.3846C0 43.1227 4.44622 34.3169 4.57776 25.055C4.63915 20.8012 3.77972 16.565 3.9902 12.3112C4.20067 8.05739 5.74413 3.54047 9.37477 1.2864C14.5927 -1.93245 21.8891 1.2864 25.0198 6.54883C28.1506 11.8113 28.1331 18.3454 27.5806 24.4499C27.0281 30.5543 26.0196 36.8429 27.4841 42.7543C29.8607 52.4021 38.2796 59.6204 40.9192 69.1893C41.9365 72.8642 32.325 80.5912 32.2197 84.3889C32.097 88.7129 31.904 94.3963 30.001 98.2817C27.3701 103.737 34.228 105.991 28.9925 99.8955C25.432 95.7821 32.7635 89.9583 28.7996 84.9941Z" transform="translate(391 209.775)" fill="#C0CAE0"/>
<path d="M4.60663 8.89311C4.60663 8.89311 -0.722772 7.46594 0.0829487 -3.55541e-06C1.63884 0.860929 2.90127 2.16816 3.70754 3.75321C4.5138 5.33825 4.82695 7.12845 4.60663 8.89311Z" transform="translate(242.652 259.708)" fill="#C0CAE0"/>
<path d="M0.0540586 8.82515C0.0540586 8.82515 5.40288 7.47566 4.69423 3.55541e-06C3.12849 0.839905 1.84987 2.12919 1.02293 3.70196C0.19599 5.27472 -0.141441 7.05898 0.0540586 8.82515Z" transform="translate(247.204 259.775)" fill="#C0CAE0"/>
<path d="M1.61057 9.97076C1.61057 9.97076 5.64888 6.22324 1.44555 0C0.474836 1.48861 -0.0281915 3.23371 0.00121911 5.01067C0.0306297 6.78763 0.59113 8.5151 1.61057 9.97076Z" transform="translate(245.647 255.252)" fill="#C0CAE0"/>
<path d="M3.70742 7.16499C3.70742 7.16499 -0.583283 6.01936 0.0671173 5.92568e-06C1.31969 0.694447 2.33576 1.74793 2.98453 3.02486C3.6333 4.30179 3.88507 5.74372 3.70742 7.16499Z" transform="translate(292.728 316.279)" fill="#9AC670"/>
<path d="M0.0441345 7.11644C0.0441345 7.11644 4.35426 6.02906 3.78152 -5.92568e-06C2.51934 0.677443 1.48885 1.7173 0.822765 2.98562C0.156677 4.25393 -0.11451 5.69264 0.0441345 7.11644Z" transform="translate(296.42 316.327)" fill="#9AC670"/>
<path d="M1.30061 8.03875C1.30061 8.03875 4.56231 5.01936 1.1647 -4.74055e-06C0.382098 1.20029 -0.0231976 2.60748 0.00102455 4.04021C0.0252467 5.47295 0.477884 6.8656 1.30061 8.03875Z" transform="translate(295.126 312.657)" fill="#9AC670"/>
<path d="M3.5044 4.74054e-06H80.0964C81.031 4.74054e-06 81.9273 0.371306 82.5881 1.03223C83.249 1.69315 83.6202 2.58954 83.6202 3.52423V27.2327C83.6202 28.1648 83.25 29.0588 82.591 29.7179C81.932 30.377 81.0381 30.7472 80.1061 30.7472H3.5141C2.5821 30.7472 1.68828 30.377 1.02925 29.7179C0.370232 29.0588 -2.36999e-06 28.1648 -2.36999e-06 27.2327V3.52423C-2.36999e-06 2.58954 0.371255 1.69315 1.0321 1.03223C1.69294 0.371306 2.58924 4.74054e-06 3.52382 4.74054e-06H3.5044Z" transform="translate(263.879 90.9087) rotate(-3.75955)" fill="#CAD3E6"/>
<path d="M66.4089 5.92568e-06H5.33248e-06V5.68927H66.4089V5.92568e-06Z" transform="translate(272.863 96.6006) rotate(-3.75955)" fill="#E4ECFB"/>
<path d="M41.9363 0H0V5.68926H41.9363V0Z" transform="translate(273.561 107.15) rotate(-3.75955)" fill="#E4ECFB"/>
<path d="M9.33858 87.4651L5.25175 45.485L0 0.582525L4.08685 5.92568e-07L13.4157 42.5627L27.9866 43.7374L43.1497 0.582525L47.2268 1.16503L36.1506 47.2325L36.7331 86.3001L9.33858 87.4651Z" transform="translate(276.865 118.223)" fill="#C0CAE0"/>
<path d="M3.49468 6.99022C5.42475 6.99022 6.98937 5.4254 6.98937 3.49511C6.98937 1.56481 5.42475 6.51825e-06 3.49468 6.51825e-06C1.56462 6.51825e-06 3.55498e-06 1.56481 3.55498e-06 3.49511C3.55498e-06 5.4254 1.56462 6.99022 3.49468 6.99022Z" transform="translate(276.293 112.98)" fill="#FFCFD3"/>
<path d="M3.49468 6.99022C5.42474 6.99022 6.98937 5.4254 6.98937 3.4951C6.98937 1.56481 5.42474 3.55541e-06 3.49468 3.55541e-06C1.56461 3.55541e-06 1.18499e-05 1.56481 1.18499e-05 3.4951C1.18499e-05 5.4254 1.56461 6.99022 3.49468 6.99022Z" transform="translate(317.104 114.146)" fill="#FFCFD3"/>
<path d="M13.1849 12.8544L13.282 12.7184C13.5052 12.398 13.7188 12.068 13.9033 11.7476L13.9712 11.6214C14.1265 11.3398 14.2624 11.0582 14.3886 10.767L14.4954 10.5146C14.6278 10.198 14.7412 9.87377 14.8352 9.5437C15.3176 7.97633 15.2516 6.29131 14.6481 4.76646C14.0446 3.24161 12.9396 1.96795 11.5152 1.15544C11.3308 1.03894 11.1658 0.903017 10.9716 0.80593C10.5158 0.573858 10.0377 0.388445 9.54461 0.252531C9.00871 0.108284 8.45852 0.0236356 7.90405 0.000111747H7.5934C7.15752 -0.00229075 6.72226 0.0334444 6.2926 0.106907L6.0402 0.165157C5.57136 0.263528 5.11301 0.406577 4.67144 0.592339H4.58408C3.55715 1.03306 2.64162 1.6976 1.90433 2.53744C1.16704 3.37729 0.626616 4.37122 0.322513 5.44666C-0.774432 9.46603 0.963194 15.9223 4.98209 17.0291C6.84592 17.5436 8.86508 16.7961 10.6318 15.466C11.3041 14.9509 11.9221 14.3686 12.4763 13.7281L12.5345 13.6505C12.7545 13.4174 12.9714 13.1521 13.1849 12.8544Z" transform="translate(291.115 142.796)" fill="#A5B1CB"/>
<path d="M28.1711 6.80576L24.1328 71.2031H19.677L15.8911 7.33003L11.9111 7.49506L9.4842 72.776L6.04774 72.6983L0.776593 7.9708L7.10996e-06 5.33311e-06L28.074 0.359205L28.1711 6.80576Z" transform="translate(285.428 197.718)" fill="#D0D9ED"/>
<path d="M4.90227 -1.30365e-05L14.6874 1.07766L14.3379 2.59221H4.73998e-06L0.44654 -1.30365e-05H4.90227Z" transform="translate(304.659 268.92)" fill="#D0D9ED"/>
<path d="M13.4546 0.077681V1.90288L1.06649e-05 2.41744V0.737861L10.0181 -4.74055e-06L13.4546 0.077681Z" transform="translate(281.459 270.416)" fill="#D0D9ED"/>
<path d="M7.47476 0H1.84442L7.40621e-07 53.2033L2.71809 53.3004L7.47476 0Z" transform="translate(324.283 221)" fill="#DDE5F6"/>
<path d="M-1.85155e-07 1.48142e-06L1.65027 4.85432H50.7701V2.42716L-1.85155e-07 1.48142e-06Z" transform="translate(276.232 271.493)" fill="#DDE5F6"/>
<path d="M4.17422 1.48142e-06L21.3564 60.679H19.3179L-1.48124e-06 1.48142e-06H4.17422Z" transform="translate(321.758 276.729)" fill="#DDE5F6"/>
<path d="M17.1822 1.48142e-06L0 60.679H2.03857L21.3564 1.48142e-06H17.1822Z" transform="translate(263.903 276.349)" fill="#DDE5F6"/>
<path d="M0 27.2924V34.3507L283.545 38.1152L344.98 7.05837V-3.59007e-06L0 27.2924Z" transform="translate(567 317.884) scale(-1 1)" fill="#CFC5FF"/>
<path d="M283.545 34.8213L0 31.0568L61.4348 0L344.98 3.76446L283.545 34.8213Z" transform="translate(567 321.179) scale(-1 1)" fill="#CFC5FF"/>
<path d="M283.545 34.8213L0 31.0568L61.4348 0L344.98 3.76446L283.545 34.8213Z" transform="translate(567 314.119) scale(-1 1)" fill="#1671FF"/>
<path d="M155.95 4.23502L1.80273e-06 2.35279L4.72576 3.59007e-06L160.439 1.88223L155.95 4.23502Z" transform="translate(505.092 317.414) scale(-1 1)" fill="white"/>
<path d="M155.714 4.23502L-1.80273e-06 2.11751L4.72575 3.59007e-06L160.439 1.88223L155.714 4.23502Z" transform="translate(516.672 323.295) scale(-1 1)" fill="white"/>
<path d="M155.714 4.4703L9.01366e-07 2.35279L4.72576 1.79504e-06L160.439 2.11751L155.714 4.4703Z" transform="translate(527.777 328.708) scale(-1 1)" fill="white"/>
<path d="M155.714 4.47031L9.01366e-07 2.35279L4.48947 0L160.439 2.11751L155.714 4.47031Z" transform="translate(538.409 334.119) scale(-1 1)" fill="white"/>
<path d="M100.659 24.9396L7.21093e-06 23.5279L46.785 -1.79504e-06L147.68 1.41168L100.659 24.9396Z" transform="translate(384.35 319.53) scale(-1 1)" fill="white"/>
<path d="M6.14347 5.60949e-08L14.4135 12.7051L22.4473 36.9388L46.3124 75.2893L42.7681 76.4657L14.1773 44.4677L1.44219e-05 17.6459L6.14347 5.60949e-08Z" transform="translate(167.438 241.417) scale(-1 1)" fill="#62BDDD"/>
<path d="M30.4811 2.2438e-07L-1.44219e-05 50.585L4.01691 51.9967L40.8778 5.17614L30.4811 2.2438e-07Z" transform="translate(241.161 258.594) scale(-1 1)" fill="#2B159B"/>
<path d="M1.44219e-05 17.8812L8.27009 33.8802L12.5232 10.3523L12.0507 8.47005L6.85235 0.235279L5.90721 2.2438e-07C5.90721 2.2438e-07 3.78059 7.76421 3.07173 9.17588C2.83544 10.117 1.41774 13.8815 1.44219e-05 17.8812Z" transform="translate(165.076 245.653) scale(-1 1)" fill="url(#paint0_linear)"/>
<path d="M11.4318 0.0894948C16.8665 1.03061 23.7188 6.67731 22.7737 12.0887C21.8285 17.5001 13.5584 20.5588 8.36009 19.8529C2.92547 18.9118 -0.618845 13.971 0.0900179 8.55954C0.798881 2.91284 5.99722 -0.616342 11.4318 0.0894948Z" transform="translate(234.636 247.212) scale(-1 1)" fill="#FFCFD3"/>
<path d="M1.07642 2.82335C0.603846 3.76446 0.367573 4.94086 0.131285 5.88198C-0.105002 6.58781 -0.105031 7.76421 0.84012 7.76421C1.3127 7.76421 1.549 7.52893 1.78529 7.29365C2.73044 6.58781 3.91186 5.6467 4.38444 4.4703C4.85701 3.52919 4.62075 2.35279 4.14817 1.41167C3.67559 0.705838 2.73044 -4.48759e-07 1.78529 -4.48759e-07C1.549 1.17639 1.549 2.11751 1.07642 2.82335Z" transform="translate(231.369 261.652) scale(-1 1)" fill="#FFCFD3"/>
<path d="M22.6836 10.9672C22.4473 6.02636 16.3039 1.0855 11.3418 0.144385C5.90719 -0.796731 0.708856 2.96773 -7.21093e-06 8.37915C-7.21093e-06 8.61443 -7.21093e-06 9.08499 -7.21093e-06 9.32027C0.708856 9.79083 1.65401 10.0261 2.36287 10.0261C5.19832 10.2614 8.03377 8.84971 9.92407 6.49692C9.4515 6.7322 21.2659 9.55555 22.6836 10.9672Z" transform="translate(234.546 247.156) scale(-1 1)" fill="#2B159B"/>
<path d="M0.0364572 2.70571C0.272745 1.99987 0.745299 1.29403 1.45416 0.588198C3.58075 -1.05876 6.41623 1.05876 6.65252 3.17627C6.65252 3.8821 6.65251 4.58794 6.41622 5.29378C6.17993 5.99962 5.94366 6.47017 5.47108 6.94073C4.99851 7.41129 4.28964 7.41129 3.58077 7.41129C2.87191 7.41129 2.39934 6.94073 1.92677 6.70545C0.745328 5.99962 -0.199831 4.11738 0.0364572 2.70571Z" transform="translate(223.713 250.007) scale(-1 1)" fill="#FFCFD3"/>
<path d="M19.1393 32.0349L-7.21093e-06 64.9739L4.25318 65.2092L28.5908 40.5049L31.8988 8.97753C31.8988 8.97753 31.8988 -0.668908 27.6457 0.0369287C23.3925 0.742766 21.2659 5.9189 21.2659 5.9189L19.1393 32.0349Z" transform="translate(232.183 252.439) scale(-1 1)" fill="#2688C4"/>
<path d="M1.44219e-05 12.7051C19.6119 3.05863 42.0592 0 42.0592 0L52.6922 20.9398L4.48947 28.704L1.44219e-05 12.7051Z" transform="translate(212.334 240.007) scale(-1 1)" fill="#2688C4"/>
<path d="M8.97894 0.00632917H12.0507C20.0845 -0.22895 26.9368 6.12358 26.9368 14.3583L10.8693 43.0624L13.7047 84.4715H9.45151L0 45.4152L8.97894 0.00632917Z" transform="translate(179.488 240) scale(-1 1)" fill="#62BDDD"/>
<path d="M4.96204 10.3523C7.7025 10.3523 9.92409 8.03484 9.92409 5.17614C9.92409 2.31744 7.7025 0 4.96204 0C2.22158 0 1.44219e-05 2.31744 1.44219e-05 5.17614C1.44219e-05 8.03484 2.22158 10.3523 4.96204 10.3523Z" transform="translate(245.414 307.767) scale(-1 1)" fill="#FFCFD3"/>
<path d="M4.96203 10.3523C7.70249 10.3523 9.92409 8.03484 9.92409 5.17614C9.92409 2.31744 7.70249 0 4.96203 0C2.22157 0 7.21093e-06 2.31744 7.21093e-06 5.17614C7.21093e-06 8.03484 2.22157 10.3523 4.96203 10.3523Z" transform="translate(234.308 312.943) scale(-1 1)" fill="#FFCFD3"/>
<path d="M20.0844 0.235277L20.7933 4.23502L-1.44219e-05 4.70558C-1.44219e-05 4.70558 1.18143 1.64695 1.89029 1.88223C2.59916 2.11751 15.8313 1.79504e-06 15.8313 1.79504e-06H20.0844V0.235277Z" transform="translate(185.633 324.001) scale(-1 1)" fill="#2688C4"/>
<path d="M16.7764 -3.59007e-06L18.903 4.70558L1.44219e-05 5.17614L0.472583 2.82335L13.2321 1.17639L16.7764 -3.59007e-06Z" transform="translate(137.903 316.706) scale(-1 1)" fill="#2688C4"/>
<defs>
<linearGradient id="paint0_linear" x2="1" gradientUnits="userSpaceOnUse" gradientTransform="translate(0.108456 10.7725) scale(12.6026 12.5488)">
<stop stop-color="#2688C4" stop-opacity="0.8"/>
<stop offset="0.9896" stop-color="#2688C4" stop-opacity="0"/>
</linearGradient>
</defs>
</svg>
