<svg width="100" height="100" viewBox="0 0 100 100" fill="none" xmlns="http://www.w3.org/2000/svg">
<rect opacity="0.5" width="100" height="100" rx="30" fill="#E9F1FF"/>
<path d="M3.10375 45.3H36.0626C37.7623 45.3 39.1664 43.8959 39.1664 42.1962V38.3535L36.8755 3.10375C36.8755 1.40408 35.4714 -2.81902e-07 33.7718 -2.81902e-07H5.39461C3.69494 -2.81902e-07 2.29086 1.40408 2.29086 3.02985L0 38.3535V42.1962C0 43.8959 1.40408 45.3 3.10375 45.3ZM5.39461 1.47798H33.6979C34.5847 1.47798 35.2497 2.14307 35.2497 3.10375L37.5406 37.5406H1.62577L3.91664 3.02985C3.84274 2.21697 4.58173 1.47798 5.39461 1.47798ZM36.0626 43.7481H3.10375C2.21697 43.7481 1.55188 43.083 1.55188 42.1962V39.0925H37.6145V42.1962C37.6145 43.0091 36.9494 43.7481 36.0626 43.7481Z" transform="translate(31 27)" fill="#2075FB"/>
<path d="M1.25628 2.51256C1.9501 2.51256 2.51256 1.95011 2.51256 1.25628C2.51256 0.562457 1.9501 -2.25521e-06 1.25628 -2.25521e-06C0.562456 -2.25521e-06 0 0.562457 0 1.25628C0 1.95011 0.562456 2.51256 1.25628 2.51256Z" transform="translate(36.3936 67.1279)" fill="#2075FB"/>
<path d="M1.25628 2.51256C1.9501 2.51256 2.51256 1.95011 2.51256 1.25628C2.51256 0.562457 1.9501 -2.25521e-06 1.25628 -2.25521e-06C0.562455 -2.25521e-06 0 0.562457 0 1.25628C0 1.95011 0.562455 2.51256 1.25628 2.51256Z" transform="translate(41.0527 67.1279)" fill="#2075FB"/>
</svg>
