<svg width="100" height="100" viewBox="0 0 100 100" fill="none" xmlns="http://www.w3.org/2000/svg">
<rect opacity="0.5" width="100" height="100" rx="30" fill="#E9F1FF"/>
<path fill-rule="evenodd" clip-rule="evenodd" d="M4.01049 15.0184V20.2391H3.68737C1.65362 20.2391 0 22.0168 0 24.2031V46.036C0 48.2223 1.65362 50 3.68737 50H32.0269C34.0607 50 35.7143 48.2223 35.7143 46.036V24.1929C35.7143 22.0065 34.0607 20.2289 32.0269 20.2289H31.9319V15.0082C31.9319 6.73273 25.6691 0 17.9712 0C10.2733 0.0102166 4.01049 6.74295 4.01049 15.0184ZM20.043 36.085C19.7579 36.3098 19.6818 36.5243 19.6818 36.8819C19.6913 38.4859 19.6913 40.0797 19.6913 41.6837C19.7198 42.3478 19.4062 43.0016 18.855 43.2979C17.553 44.0131 16.251 43.0119 16.251 41.6837V41.6735C16.251 40.0695 16.251 38.4655 16.2605 36.8615C16.2605 36.5345 16.194 36.32 15.9279 36.1054C14.5784 35.0327 14.1318 33.2039 14.8065 31.5999C15.4623 30.0368 17.0684 29.1173 18.5794 29.4442C20.2615 29.812 21.4305 31.2628 21.4495 33.0711C21.4495 34.3277 20.9838 35.3494 20.043 36.085ZM10.1213 15.0184C10.1213 10.3596 13.6471 6.57948 17.9712 6.57948C22.3048 6.57948 25.8211 10.3698 25.8211 15.0184V20.2391H10.1213V15.0184Z" transform="translate(32 25)" stroke="#2075FB" stroke-width="1.5"/>
</svg>
