<svg width="80" height="80" viewBox="0 0 80 80" fill="none" xmlns="http://www.w3.org/2000/svg">
<rect width="80" height="80" fill="black" fill-opacity="0"/>
<path d="M40 80C47.9112 80 55.6448 77.654 62.2228 73.2588C68.8008 68.8635 73.9277 62.6164 76.9552 55.3073C79.9827 47.9983 80.7748 39.9556 79.2314 32.1964C77.688 24.4372 73.8784 17.3098 68.2843 11.7157C62.6902 6.12165 55.5628 2.31201 47.8036 0.768606C40.0444 -0.774802 32.0017 0.0173318 24.6927 3.04484C17.3836 6.07234 11.1365 11.1992 6.74121 17.7772C2.34596 24.3552 0 32.0888 0 40C0.0105396 50.6054 4.2282 60.7735 11.7274 68.2726C19.2265 75.7718 29.3946 79.9895 40 80ZM40 2.99579C47.3211 2.99579 54.4778 5.16688 60.565 9.23449C66.6522 13.3021 71.3964 19.0835 74.1976 25.8476C76.9988 32.6116 77.7312 40.0544 76.3022 47.2347C74.8732 54.415 71.347 61.0103 66.1694 66.1865C60.9919 71.3626 54.3957 74.8871 47.215 76.3141C40.0343 77.7412 32.5917 77.0068 25.8284 74.2037C19.0651 71.4007 13.285 66.655 9.21899 60.5667C5.15302 54.4784 2.98385 47.3211 2.98582 40C2.99635 30.1865 6.89944 20.7779 13.8387 13.8387C20.7779 6.89945 30.1865 2.99637 40 2.98584V2.99579ZM54.2324 26.5539C54.8142 25.7849 55.5664 25.1612 56.4298 24.7318C57.2932 24.3024 58.2444 24.0789 59.2087 24.0789C60.1731 24.0789 61.1243 24.3024 61.9877 24.7318C62.8511 25.1612 63.6033 25.7849 64.1851 26.5539C64.3311 26.8598 64.3687 27.2063 64.2916 27.5364C64.2146 27.8665 64.0275 28.1606 63.7611 28.3702C63.4947 28.5798 63.1649 28.6926 62.8259 28.6899C62.4869 28.6872 62.159 28.5692 61.896 28.3553C61.5934 27.9458 61.1989 27.613 60.7443 27.3836C60.2897 27.1543 59.7876 27.0348 59.2784 27.0348C58.7692 27.0348 58.2671 27.1543 57.8125 27.3836C57.3579 27.613 56.9634 27.9458 56.6608 28.3553C56.5456 28.5195 56.3985 28.6588 56.2282 28.7649C56.0579 28.8709 55.868 28.9416 55.6698 28.9726C55.4716 29.0037 55.2692 28.9944 55.0747 28.9455C54.8801 28.8966 54.6975 28.8089 54.5375 28.6878C54.3776 28.5667 54.2438 28.4146 54.1439 28.2406C54.0441 28.0666 53.9804 27.8743 53.9565 27.6751C53.9327 27.4759 53.9492 27.274 54.0052 27.0813C54.0611 26.8887 54.1553 26.7093 54.2821 26.5539H54.2324ZM15.7552 26.5539C16.337 25.7849 17.0892 25.1612 17.9526 24.7318C18.816 24.3024 19.7672 24.0789 20.7315 24.0789C21.6958 24.0789 22.647 24.3024 23.5105 24.7318C24.3739 25.1612 25.126 25.7849 25.7079 26.5539C25.8745 26.8651 25.9254 27.2252 25.8517 27.5703C25.7779 27.9155 25.5843 28.2234 25.3051 28.4393C25.0259 28.6553 24.6793 28.7653 24.3266 28.75C23.974 28.7346 23.6383 28.5948 23.3789 28.3553C23.0764 27.9458 22.6819 27.613 22.2273 27.3836C21.7727 27.1543 21.2706 27.0348 20.7614 27.0348C20.2522 27.0348 19.7501 27.1543 19.2955 27.3836C18.8409 27.613 18.4464 27.9458 18.1438 28.3553C18.0286 28.5195 17.8814 28.6588 17.7112 28.7649C17.5409 28.8709 17.351 28.9416 17.1528 28.9726C16.9546 29.0037 16.7522 28.9944 16.5577 28.9455C16.3631 28.8966 16.1804 28.8089 16.0205 28.6878C15.8606 28.5667 15.7267 28.4146 15.6269 28.2406C15.5271 28.0666 15.4633 27.8743 15.4395 27.6751C15.4157 27.4759 15.4322 27.274 15.4882 27.0813C15.5441 26.8887 15.6383 26.7093 15.7651 26.5539H15.7552ZM40 50.948C44.5614 50.9505 49.0061 49.5068 52.6954 46.8244C56.3847 44.1419 59.1285 40.3589 60.5325 36.0189C60.5939 35.8327 60.6914 35.6603 60.8194 35.5118C60.9475 35.3632 61.1035 35.2413 61.2786 35.1531C61.4538 35.0648 61.6446 35.0119 61.8401 34.9974C62.0357 34.9829 62.2322 35.007 62.4185 35.0684C62.6047 35.1299 62.7771 35.2274 62.9256 35.3554C63.0742 35.4834 63.1961 35.6395 63.2843 35.8146C63.3726 35.9897 63.4255 36.1805 63.44 36.3761C63.4546 36.5717 63.4304 36.7682 63.369 36.9545C61.7586 41.8884 58.6292 46.1868 54.4283 49.2347C50.2274 52.2826 45.1702 53.9239 39.9801 53.9239C34.79 53.9239 29.7328 52.2826 25.5319 49.2347C21.331 46.1868 18.2015 41.8884 16.5912 36.9545C16.4671 36.573 16.4997 36.158 16.6816 35.8005C16.8636 35.4431 17.1802 35.1726 17.5616 35.0485C17.943 34.9245 18.3581 34.957 18.7155 35.139C19.073 35.321 19.3435 35.6375 19.4675 36.0189C20.8715 40.3589 23.6153 44.1419 27.3046 46.8244C30.9939 49.5068 35.4386 50.9505 40 50.948Z" fill="#2DA94F"/>
</svg>
