<svg width="100" height="100" viewBox="0 0 100 100" fill="none" xmlns="http://www.w3.org/2000/svg">
<rect opacity="0.5" width="100" height="100" rx="30" fill="#E9F1FF"/>
<path fill-rule="evenodd" clip-rule="evenodd" d="M54.6211 0.875C53.999 0.291992 53.2412 0 52.3516 0H36.8594L32.3184 4.25C31.0273 5.41699 29.5146 6 27.7783 6C26.042 6 24.5283 5.41699 23.2373 4.25L18.7305 0H3.20508C2.31543 0 1.55859 0.291992 0.93457 0.875C0.311523 1.45801 0 2.16699 0 3V13.001C0 13.834 0.311523 14.542 0.93457 15.126C1.55859 15.709 2.31445 16 3.20508 16H52.3516C53.2412 16 53.999 15.709 54.6211 15.126C55.2451 14.542 55.5566 13.834 55.5566 13.001V3C55.5566 2.16699 55.2451 1.45801 54.6211 0.875ZM42.1025 11.4072C41.6787 11.8037 41.1777 12.001 40.5996 12.001C40.0205 12.001 39.5205 11.8037 39.0967 11.4072C38.6738 11.0117 38.4629 10.543 38.4629 10.002C38.4629 9.45996 38.6738 8.99023 39.0967 8.5957C39.5205 8.19922 40.0205 8.00098 40.5996 8.00098C41.1777 8.00098 41.6787 8.19922 42.1025 8.5957C42.5244 8.99023 42.7363 9.45996 42.7363 10.002C42.7363 10.543 42.5244 11.0117 42.1025 11.4072ZM49.1455 12.001C49.7246 12.001 50.2256 11.8037 50.6484 11.4072C51.0713 11.0117 51.2832 10.543 51.2832 10.002C51.2832 9.45996 51.0713 8.99023 50.6484 8.5957C50.2256 8.19922 49.7246 8.00098 49.1455 8.00098C48.5674 8.00098 48.0664 8.19922 47.6436 8.5957C47.2207 8.99023 47.0098 9.45996 47.0098 10.002C47.0098 10.543 47.2207 11.0117 47.6436 11.4072C48.0664 11.8037 48.5674 12.001 49.1455 12.001Z" transform="translate(22 56.001)" stroke="#2075FB" stroke-width="1.5"/>
<path d="M15.3861 35.3722C15.7809 35.7909 16.2739 36.0005 16.8654 36.0005C17.4574 36.0005 17.9498 35.7909 18.3447 35.3722L33.0724 20.5483C33.7516 19.9087 33.9054 19.1365 33.5326 18.232C33.1607 17.372 32.514 16.9419 31.5932 16.9414H23.1771V2.11775C23.1771 1.5443 22.9686 1.04792 22.553 0.628846C22.1361 0.209654 21.6432 0 21.0737 0H12.6571C12.0876 0 11.5944 0.209654 11.1779 0.628846C10.7616 1.04792 10.5533 1.54419 10.5533 2.11775V16.9415H2.13754C1.21662 16.9415 0.570429 17.3721 0.197822 18.2321C-0.174554 19.1362 -0.0212971 19.9088 0.658284 20.5484L15.3861 35.3722Z" transform="translate(32.9053 22)" stroke="#2075FB" stroke-width="1.5"/>
</svg>
